<?xml version="1.0" encoding="utf-8"?>
<!-- Generator: Adobe Illustrator 22.0.0, SVG Export Plug-In . SVG Version: 6.00 Build 0)  -->
<svg version="1.1" id="Слой_1" xmlns="http://www.w3.org/2000/svg" xmlns:xlink="http://www.w3.org/1999/xlink" x="0px" y="0px"
	 viewBox="0 0 1417.3 1417.3" style="enable-background:new 0 0 1417.3 1417.3;" xml:space="preserve">
<style type="text/css">
	.st0{fill:#FFFFFF;}
	.st1{fill:#1B1924;}
</style>
<g>
	<path class="st0" d="M1845.5,660.1c-5.4-138.7,49.7-267-62.7-375.6c-36.5-35.3-33.6-88.5-0.2-129.6c32.7-40.2,81.3-51.9,128-34.6
		c55.9,20.7,77,69.6,66.1,127.1c-28.4,149.2,44.3,270.6,104.6,415.8c37.7-165.8,70.1-312.1,16-461c-17.3-47.6-11.4-87.5,30-118.3
		c41.4-30.8,87.3-36.9,129.7-5.9c40,29.2,50.9,74.9,33.6,119.3c-57.3,147.4-21.8,291,17.1,437.6c60.8-117.7,126.1-235,104.2-374.7
		c-9.9-63.1,1.3-110,60.2-135.7c49.9-21.8,100-16.5,131.7,33.1c33,51.6,31.1,103.1-17.5,147.6c-52,47.7-49,113.8-51.9,175.2
		c-2.4,51.3,7.4,103.2,11.9,155.6c92.2-48.6,146.8-152.5,128.7-250.4c-12.5-67.8,13-111.4,75.2-135.1c56-21.3,97.7,2,124.7,49.9
		c33.6,59.5,16.6,114.7-36.8,150.1c-33.1,22-40.5,45.6-46.6,81.2c-17,99.8-39.1,198.9-62.2,297.5c-13.6,58.2-61.7,96-97.4,139.8
		c-49.1,60.3-66.6,113.3-29.2,190.7c55.5,114.8,32.9,158.1-92.7,174.9c-220.4,29.6-442.2,41.7-661.9-11.1
		c-95.7-23-113.3-43.5-71.3-134.7c47-102.2,24.4-177.7-48-252.5c-95-98.2-100.6-230.7-126.7-354.2c-11.7-55.6-12.1-108.6-69.4-146.5
		c-44.1-29.2-53.1-83.3-25.2-133.5c25.5-45.8,69.7-66.7,118.7-55.7c56.3,12.6,94,53.7,84.9,114
		C1692.7,482.9,1748.4,569.4,1845.5,660.1z"/>
	<path class="st1" d="M2198.3,57.7c19.8,0,39.7,6.4,58.9,20.4c40,29.2,50.9,74.9,33.6,119.3c-57.3,147.4-21.8,291,17.1,437.6
		c60.8-117.7,126.1-235,104.2-374.7c-9.9-63.1,1.3-110,60.2-135.7c18-7.9,36-12.2,53.2-12.2c30.4,0,58.2,13.6,78.5,45.3
		c33,51.6,31.1,103.1-17.5,147.6c-52,47.7-49,113.8-51.9,175.2c-2.4,51.3,7.4,103.2,11.9,155.6c92.2-48.6,146.8-152.5,128.7-250.4
		c-12.5-67.8,13-111.4,75.2-135.1c14.2-5.4,27.4-7.9,39.8-7.9c36.4,0,64.7,22,84.9,57.8c33.6,59.5,16.6,114.7-36.8,150.1
		c-33.1,22-40.5,45.6-46.6,81.2c-17,99.8-39.1,198.9-62.2,297.5c-13.6,58.2-61.7,96-97.4,139.8c-49.1,60.3-66.6,113.3-29.2,190.7
		c55.5,114.8,32.9,158.1-92.7,174.9c-110.9,14.9-222.2,25.4-333.4,25.4c-109.8,0-219.4-10.2-328.5-36.5
		c-95.7-23-113.3-43.5-71.3-134.7c47-102.2,24.4-177.7-48-252.5c-95-98.2-100.6-230.7-126.7-354.2c-11.7-55.6-12.1-108.6-69.4-146.5
		c-44.1-29.2-53.1-83.3-25.2-133.5c21-37.7,54.7-58.6,93.4-58.6c8.2,0,16.7,0.9,25.3,2.9c56.3,12.6,94,53.7,84.9,114
		c-18.6,122.5,37,209,134.1,299.8c-5.4-138.7,49.7-267-62.7-375.6c-36.5-35.3-33.6-88.5-0.2-129.6c22.9-28.2,53.7-42.4,86.1-42.4
		c13.8,0,28,2.6,41.9,7.8c55.9,20.7,77,69.6,66.1,127.1c-28.4,149.2,44.3,270.6,104.6,415.8c37.7-165.8,70.1-312.1,16-461
		c-17.3-47.6-11.4-87.5,30-118.3C2150.2,67.1,2174.2,57.7,2198.3,57.7 M2198.3,15.2c-17,0-34.1,3.2-50.9,9.6
		c-15.4,5.8-30.6,14.3-45.3,25.2c-28.3,21.1-46.2,47.2-53.1,77.5c-6.1,26.9-3.3,57,8.5,89.4c36.4,100,30.1,199.9,10.1,307.9
		c-39-91.4-67-175.1-49-269.3c15.4-80.9-20.3-147.9-93.1-174.9c-18.6-6.9-37.7-10.4-56.7-10.4c-46.3,0-88.6,20.6-119.1,58.1
		c-11.1,13.6-19.8,28.5-25.9,44c-6.3,16.1-9.6,32.6-9.8,49.1c-0.1,8.8,0.6,17.5,2.2,25.9c-20.6-20.6-48.1-35.1-80.5-42.4
		c-11.5-2.6-23.2-3.9-34.6-3.9c-27,0-53.2,7.5-75.9,21.6c-22.4,14-40.8,33.8-54.7,58.8c-39.2,70.6-23.3,148.6,38.9,189.7
		c31.8,21.1,37.7,46.4,46.2,93.1c1.6,8.6,3.2,17.5,5.1,26.7c4.7,22.5,8.9,46,13,68.8c9.2,51.7,18.7,105.2,36.2,156.6
		c20.5,60.3,49.5,109.2,88.6,149.6c65.6,67.7,76.8,125.3,40,205.2c-12,26.1-19.2,46.4-22.7,63.9c-4.9,24.2-2.9,44.8,5.9,63
		c9.3,19.1,25.5,33.9,49.5,45.3c16.1,7.6,36.9,14.3,67.4,21.6c105.3,25.3,216,37.6,338.5,37.6c100.5,0,208.2-8.2,339-25.7
		c36.1-4.8,64.3-11.8,86.3-21.3c27.8-12,47.9-29.2,59.6-51.1c11.8-22,15.1-48.4,9.7-78.6c-4.3-23.7-14.2-51.4-30.2-84.6
		c-26.6-55.1-20.9-90.4,23.9-145.3c8.2-10,17.3-19.9,26.9-30.4c31-33.8,66.2-72.1,78.9-126.5c22.1-94.2,44.9-195.7,62.8-300.1
		c5.2-30.3,9.3-40.3,28.2-52.9c35.5-23.6,59.2-54.9,68.6-90.7c9.7-37.2,3.4-77.2-18.3-115.7c-13.5-23.9-29.9-42.8-48.9-56.2
		c-21.9-15.4-46.5-23.3-73-23.3c-17.8,0-36.2,3.6-54.9,10.7c-29.4,11.2-52.9,26.6-70.3,45.9c9.4-38.8,1.1-80.7-25.3-121.9
		c-13.6-21.3-30.7-37.8-50.6-48.8c-19.3-10.7-40.7-16.1-63.7-16.1c-22.7,0-46.3,5.3-70.2,15.8c-38.6,16.9-65,42.9-78.4,77.4
		c-11.2,28.6-13.3,61.7-6.7,103.9c13.8,88-11.6,167.2-48.6,246.6c-21.4-99.2-30.3-200,8.9-300.7c11.9-30.7,14.1-62.5,6.1-91.9
		c-8.3-30.6-27-57.4-54.3-77.2C2256.3,24.8,2228,15.2,2198.3,15.2L2198.3,15.2z M1806.8,556.1c-48.5-63-63.8-120.8-53.3-189.4
		c2.8-18.2,2.4-35.8-1-52.5c0.3,0.3,0.6,0.6,0.9,0.8c67.6,65.3,61.7,138.8,54.2,231.7C1807.2,549.9,1807,553,1806.8,556.1
		L1806.8,556.1z M2580.7,557.3c-2.8-25.8-4.7-50.7-3.6-74.8c0.3-6.2,0.5-12.5,0.7-18.5c1.9-51.7,3.5-96.3,37.4-127.4
		c6.8-6.2,13-12.7,18.5-19.3c-5.3,22.9-5.4,48.3-0.2,76.1C2644.1,451,2622.9,512.6,2580.7,557.3L2580.7,557.3z"/>
</g>
<g>
	<path class="st0" d="M2186.6,1298.6c-130.8,0-261.6,0.7-392.3-0.4c-37.3-0.3-89.5,15.2-100.3-35.5c-10.9-51-22.8-107.8,10.8-158.2
		c4.2-6.4,10.1-12.5,16.6-16.4c220.3-132.9,172.5-349.8,169-550.5c-1-56-57.7-86.4-96.9-116.2c-87.1-66.3-61.9-155.4-53.6-236.5
		c4.4-43.3,50.7-68.4,102.7-62.1c46.1,5.6,106.4-17.8,115.6,57.4c3.5,28.9,18.5,33.1,41.9,33.1c24.9,0,46.9,0.2,48.6-34.5
		c2.5-48.6,35.8-57.3,77-55.9c41.8,1.5,83.7,1.4,125.5,0c44.1-1.4,79.2,9,81.1,60.6c1.2,32.7,22,28.6,42.9,29.8
		c24.1,1.4,34.1-4.5,40.2-32.5c20.9-94.6,100.1-55.1,154.5-54.4c44.3,0.6,74.3,36.7,78.7,89.3c7.7,90.4-3.8,170-87.4,224.5
		c-60.1,39.2-84.1,95.8-72,167.6c3,17.8,2.8,36.9,0.1,54.8c-27.2,178.5,18.7,325.4,173.5,432.4c60.7,42,34,112,24,166.3
		c-8.2,44-60.6,37.8-100.2,37.6C2453.4,1298.1,2320,1298.6,2186.6,1298.6z"/>
	<path class="st1" d="M2487.8,117.5c27.3,0,57.4,8.4,82.3,8.8c44.3,0.6,74.3,36.7,78.7,89.3c7.7,90.4-3.8,170-87.4,224.5
		c-60.1,39.2-84.1,95.8-72,167.6c3,17.8,2.8,36.9,0.1,54.8c-27.2,178.5,18.7,325.4,173.5,432.4c60.7,42,34,112,24,166.3
		c-6.3,33.9-38.9,38-71.6,38c-9.7,0-19.5-0.4-28.5-0.4c-59.6-0.3-119.2-0.4-178.8-0.4c-73.8,0-147.6,0.1-221.4,0.1
		c-72,0-144,0.2-215.9,0.2c-58.8,0-117.6-0.1-176.4-0.6c-0.4,0-0.7,0-1.1,0c-13.7,0-29.4,2-44.2,2c-25.3,0-48.2-5.8-55-37.5
		c-10.9-51-22.8-107.8,10.8-158.2c4.2-6.4,10.1-12.5,16.6-16.4c220.3-132.9,172.5-349.8,169-550.5c-1-56-57.7-86.4-96.9-116.2
		c-87.1-66.3-61.9-155.4-53.6-236.5c4-38.8,41.7-63.1,87-63.1c5.2,0,10.4,0.3,15.7,1c6.4,0.8,13,1,19.7,1c8.7,0,17.5-0.4,26.2-0.4
		c33.2,0,63.5,5.3,69.7,56.8c3.5,28.8,18.3,33.1,41.6,33.1c0.1,0,0.2,0,0.3,0c24.9,0,46.9,0.2,48.6-34.5c2.3-45.4,31.5-56,69-56
		c2.6,0,5.3,0.1,8,0.1c20.7,0.7,41.5,1.1,62.2,1.1c21.1,0,42.2-0.4,63.3-1c2.5-0.1,5-0.1,7.4-0.1c40.6,0,71.9,12,73.7,60.7
		c1.2,32.7,22,28.6,42.9,29.8c2.1,0.1,4.1,0.2,6,0.2c19.8,0,28.6-7.1,34.2-32.6C2426.9,129.3,2455.4,117.5,2487.8,117.5 M2487.8,75
		c-27.9,0-50.6,6.8-69.4,20.8c-21.7,16.2-36.5,41.3-44.1,74.7c-0.1,0-0.1,0-0.2,0c-4.4-38.5-23.6-59.6-39.7-70.7
		c-19.1-13.2-43.8-19.7-75.6-19.7c-2.8,0-5.8,0-8.8,0.1c-20.9,0.7-41.8,1-61.9,1c-20.5,0-40.9-0.4-60.7-1.1
		c-3.3-0.1-6.5-0.2-9.5-0.2c-30.4,0-53.1,5.8-71.6,18.3c-16.2,11-35.8,32.3-39.5,72.2c-2.2,0-4.3,0-6.2,0l-0.5,0l-0.2,0
		c-5.1-34.4-19.9-59.4-44-74.4c-22-13.6-46.4-15.5-67.4-15.5c-4.8,0-9.4,0.1-13.9,0.2c-4.3,0.1-8.3,0.2-12.2,0.2
		c-6.1,0-10.8-0.2-14.6-0.7c-6.9-0.8-14-1.3-20.8-1.3c-31.1,0-60.7,8.8-83.4,24.7c-26.4,18.5-42.7,45.7-45.9,76.6
		c-1,9.8-2.3,19.7-3.6,30.2c-5,39-10.1,79.2-3.1,120.6c4.1,24.1,11.8,45.6,23.6,65.5c12.9,21.8,30.8,41.5,53.2,58.5
		c6.6,5,13.5,9.9,20.2,14.7c36,25.7,59.5,44.3,60,68.4c0.5,29.1,1.9,58.8,3.3,87.4c8.4,174.4,15.6,325-151.8,426
		c-14.6,8.8-24.4,20.8-30,29.3c-19.8,29.8-29.4,63.4-29.2,102.6c0.2,31.7,6.9,63,12.2,88.1c7.2,33.6,26.5,50.6,41.5,58.9
		c19.7,11,40.9,12.2,55.1,12.2c9,0,17.5-0.6,25.8-1.1c6.7-0.5,13.1-0.9,18.4-0.9c0.3,0,0.5,0,0.8,0c51.3,0.4,107.5,0.6,176.8,0.6
		c36,0,72.6-0.1,108-0.1c35.4,0,72-0.1,107.9-0.1c36.9,0,74.4,0,110.7-0.1c36.3,0,73.8-0.1,110.6-0.1c70,0,126.8,0.1,178.6,0.4
		c3.8,0,7.8,0.1,12,0.2c5.4,0.1,11,0.2,16.7,0.2c19,0,41.2-1.1,61.7-9.4c27.9-11.3,46.3-33.8,51.8-63.4c1.3-6.9,2.9-14.3,4.6-22.2
		c5.9-27.1,12.7-57.8,10.1-89.1c-3.4-41.4-22.3-74.3-56.3-97.8c-132.9-91.9-182.4-216.1-155.7-391c3.5-23,3.5-46.6-0.2-68.3
		c-9.3-55.4,7.6-95.1,53.3-125c24.2-15.8,44.5-34.3,60.5-55.1c15.1-19.6,26.7-41.9,34.6-66.2c12.7-39.1,16.3-84.4,11.4-142.4
		c-3-35.1-15-65.7-34.7-88.4c-21.9-25.3-52.4-39.4-85.9-39.8c-8.9-0.1-20.4-1.9-32.5-3.7C2522.8,77.6,2505.3,75,2487.8,75L2487.8,75
		z M2375.1,184C2375.1,184,2375.1,184,2375.1,184C2375.1,184,2375.1,184,2375.1,184L2375.1,184z"/>
</g>
<g>
	<path class="st0" d="M2378.9,1092.1c61.6,28,119.5,40.1,180.3,39.2c44.4-0.7,88.9-2.7,133.3-0.6c59.7,2.8,139.3,67.7,144.8,115
		c2.9,25.1-82.4,144.1-111,154.4c-7.2,2.6-18.3,8.5-21.7,5.7c-81.8-68.5-184.9-40.2-276.9-61.6c-73.5-17.1-142.4-43.9-212.3-73.1
		c-72.8-30.4-126.4,55.9-200.9,66.8c-113.8,16.6-235.3,1.5-340.4,66.5c-5.3,3.3-22.7-7.9-31-16c-16.8-16.3-35.3-32.9-45.5-53.3
		c-16.7-33.6-69.4-55.5-43.7-103.5c32-59.8,76.9-104.4,152.8-102.2c98.9,2.8,198.8,11.3,297.7-37.1c-20.9-8-37.7-16.5-55.5-20.9
		c-60.9-14.8-85.2-50.5-57.7-108.9c32.5-69,17.5-123.1-25.3-185.8c-109.1-160-87-294.1,57.6-420.8c19.6-17.1,40.4-33.3,62.3-47.3
		c60.2-38.5,127.4-66.7,72.7-163.6c-22.7-40.4,4-92.5,55.4-114.1c60.9-25.6,123.4-31.1,176.6,14.1c45.9,38.9,48.5,97.7,21.8,143.5
		c-31.5,53.9-8.7,66.3,33.7,88.6c45.5,24,87.8,56.5,126.4,91c137.1,122.3,148.9,277.6,29,429.8c-29.9,38-36.3,71.1-22.5,112.9
		C2526.9,1055.7,2498.6,1044.8,2378.9,1092.1z"/>
	<path class="st1" d="M2199.6,11.2c31.8,0,62.7,9.7,90.9,33.7c45.9,38.9,48.5,97.7,21.8,143.5c-31.5,53.9-8.7,66.3,33.7,88.6
		c45.5,24,87.8,56.5,126.4,91c137.1,122.3,148.9,277.6,29,429.8c-29.9,38-36.3,71.1-22.5,112.9c47.9,145.1,19.6,134.2-100.1,181.5
		c59.4,27,115.2,39.2,173.6,39.2c2.2,0,4.5,0,6.7-0.1c30.1-0.5,60.2-1.6,90.3-1.6c14.3,0,28.7,0.2,43,0.9
		c59.7,2.8,139.3,67.7,144.8,115c2.9,25.1-82.4,144.1-111,154.4c-5.9,2.1-14.4,6.4-19.1,6.4c-1.1,0-2-0.2-2.6-0.7
		c-81.8-68.5-184.9-40.2-276.9-61.6c-73.5-17.1-142.4-43.9-212.3-73.1c-10.8-4.5-21.2-6.5-31.3-6.5c-57.9,0-106.2,64-169.7,73.3
		c-113.8,16.6-235.3,1.5-340.4,66.5c-0.6,0.4-1.5,0.6-2.4,0.6c-7,0-21.3-9.5-28.6-16.6c-16.8-16.3-35.3-32.9-45.5-53.3
		c-16.7-33.6-69.4-55.5-43.7-103.5c31.2-58.4,74.8-102.3,147.5-102.3c1.7,0,3.5,0,5.3,0.1c31.8,0.9,63.7,2.4,95.6,2.4
		c67.4,0,135-6.7,202.1-39.5c-20.9-8-37.7-16.5-55.5-20.9c-60.9-14.8-85.2-50.5-57.7-108.9c32.5-69,17.5-123.1-25.3-185.8
		c-109.1-160-87-294.1,57.6-420.8c19.6-17.1,40.4-33.3,62.3-47.3c60.2-38.5,127.4-66.7,72.7-163.6c-22.7-40.4,4-92.5,55.4-114.1
		C2142.5,18.8,2171.4,11.2,2199.6,11.2 M2199.6-31.3v42.5V-31.3L2199.6-31.3L2199.6-31.3c-32,0-65.5,7.5-102.2,22.9
		c-19.8,8.3-37.1,20-51.6,34.7c-14.5,14.8-25.5,32.2-31.7,50.5c-10.4,30.4-7.8,62,7.4,88.9c21.3,37.7,13.8,50.5,11.4,54.7
		c-8,13.8-30.7,27.8-52.7,41.4c-5.6,3.5-11.4,7-17.2,10.8c-22.2,14.2-44.8,31.4-67.4,51.1c-39.3,34.4-70.7,70.1-93.3,106
		c-23.9,37.9-38.9,77.6-44.7,117.8c-5.8,40.7-2.4,82.9,10.3,125.6c12.2,41,33.4,83.9,63,127.3c39.2,57.5,44.9,95.1,22,143.7
		c-8.5,18.1-13.6,35.6-14.9,52.1c-1.6,18.7,1.5,36.2,9,51.9c6.8,14.2,17,26.6,30.5,36.9c-26.2,3.3-51.5,4-75,4
		c-22.2,0-45.2-0.8-67.3-1.5c-8.9-0.3-18-0.6-27.1-0.9c-2.2-0.1-4.3-0.1-6.5-0.1c-43.5,0-82.2,12.8-115.2,38
		c-26.7,20.5-49.6,48.8-69.9,86.8c-13.9,26.1-15.7,53.2-5,78.4c8,18.8,20.9,32.7,32.4,44.9c6.5,7,13.3,14.2,15.8,19.2
		c12.3,24.7,31.6,43.3,48.6,59.7c1.8,1.7,3.5,3.4,5.3,5.1c6,5.8,14,12,22,16.8c13.1,7.9,24.9,11.8,36.2,11.8
		c8.9,0,17.5-2.4,24.8-6.9c66.2-41,142.1-46,222.5-51.2c33.3-2.2,67.6-4.4,101.6-9.4c39.3-5.7,71.5-26.1,100-44
		c23.5-14.8,45.7-28.8,63.6-28.8c4.9,0,9.8,1,14.9,3.2c78.8,32.9,146.2,58.3,219,75.3c35,8.1,70,9.8,103.8,11.4
		c60.3,2.9,112.3,5.3,155.4,41.4c8.3,7,18.7,10.7,29.9,10.7c11.8,0,21.8-4.1,29.9-7.5c1.4-0.6,2.9-1.2,3.7-1.5
		c13.9-5,28.2-16.2,46.7-36.1c12.9-14,27-31.5,40.8-50.7c13.8-19.2,25.7-37.9,34.4-54.1c13.7-25.3,18.7-42.8,16.9-58.4
		c-2.2-18.7-10.3-38-24.2-57.4c-11.3-15.7-26.3-31.3-43.5-45c-37.6-30.1-80.3-48.4-117.3-50.1c-13.8-0.6-28.5-1-45-1
		c-19.8,0-39.8,0.5-59,0.9c-10.5,0.2-21.3,0.5-31.9,0.7c-2,0-4,0-6,0c-16.9,0-33.4-1.1-49.8-3.4c11.7-8,24.4-19.8,32.5-37.6
		c8.6-18.7,10.5-40.3,6.2-68c-3.2-20.4-10-45.8-22.1-82.4c-8.1-24.5-8-43.4,15.5-73.3c32.5-41.2,56.7-83.7,71.9-126.1
		c15.5-43.2,21.9-86.7,18.9-129.3c-3-42.6-15.3-84.2-36.7-123.6c-20.9-38.6-50.6-75.2-88.3-108.8c-47.5-42.3-91.6-74-134.9-96.9
		c-7.7-4.1-18.6-9.8-24.5-13.9c1.1-3.1,3.4-8.2,7.7-15.6c18.2-31.1,25.9-66.9,21.8-100.8c-4.6-37.7-22.8-71-52.8-96.5
		C2283.8-16.6,2244-31.3,2199.6-31.3L2199.6-31.3z"/>
</g>
<g>
	<path class="st0" d="M2029.5,514.3c6.5-87.9,21.1-155.7,90.1-202.6c41.3-28,35.4-65.7-9.2-92.5c-24.6-14.7-49.2-26.4-48.4-63.5
		c1.1-47.6,35.9-26.2,56.5-30.9c27.9-6.4,22.8-32,33.2-48.4c27-42.8,56.8-41.1,81.2-0.7c11.6,19.2,10.2,45.8,40.7,49.6
		c18.3,2.3,44.8-9.5,46.5,25.1c1.2,25-2.3,45.3-28.6,58.1c-72.8,35.2-67,75.1-7,120.3c39.1,29.5,63.4,69.8,63.2,120.5
		c-0.2,50.5,9.9,68.4,60.3,32.5c57.5-40.9,125.6-48.1,195.1-39c142.2,18.7,232,165.4,186.3,302c-13.4,40.2-32.1,77.7-58.3,109.7
		c-86.3,105.5-126.1,227.4-129.8,361.3c-1.8,63.3-36.3,98.3-89.4,112.7c-213.2,57.9-427.5,59.7-640.7-1.4
		c-59.1-16.9-89.3-59-89.7-122.2c-0.7-126.8-42.1-239.1-118.8-340.2c-45.9-60.6-86.1-126.6-78.9-206.8
		c14.1-157,172.5-256.1,326.5-207.2C1949.9,463.4,1985.8,483.7,2029.5,514.3z"/>
	<path class="st1" d="M2193.1,45c14,0,27.6,10.5,39.9,30.9c11.6,19.2,10.2,45.8,40.7,49.6c1.9,0.2,3.9,0.3,6,0.3
		c5,0,10.4-0.5,15.5-0.5c12.7,0,23.9,3.2,25,25.3c1.2,25-2.3,45.3-28.6,58.1c-72.8,35.2-67,75.1-7,120.3
		c39.1,29.5,63.4,69.8,63.2,120.5c-0.1,32.4,4,51.3,20.2,51.3c9.1,0,22-5.9,40.1-18.8c43.3-30.8,92.6-42.5,144-42.5
		c16.9,0,33.9,1.3,51.1,3.5c142.2,18.7,232,165.4,186.3,302c-13.4,40.2-32.1,77.7-58.3,109.7c-86.3,105.5-126.1,227.4-129.8,361.3
		c-1.8,63.3-36.3,98.3-89.4,112.7c-106.8,29-213.8,43.9-320.9,43.9c-106.7,0-213.4-14.8-319.8-45.3c-59.1-16.9-89.3-59-89.7-122.2
		c-0.7-126.8-42.1-239.1-118.8-340.2c-45.9-60.6-86.1-126.6-78.9-206.8c11.6-129.6,121.7-219.8,246.3-219.8c26.3,0,53.3,4,80.2,12.6
		c39.6,12.6,75.5,32.9,119.2,63.5c6.5-87.9,21.1-155.7,90.1-202.6c41.3-28,35.4-65.7-9.2-92.5c-24.6-14.7-49.2-26.4-48.4-63.5
		c0.6-26.9,11.9-31.7,25.4-31.7c7.7,0,16.1,1.6,23.6,1.6c2.6,0,5.2-0.2,7.5-0.7c27.9-6.4,22.8-32,33.2-48.4
		C2165.2,55.3,2179.3,45,2193.1,45 M2193.1,2.5c-20.5,0-50.5,8.9-77.3,51.4c-6.6,10.4-9.6,21-11.7,28.7c-0.1,0-0.3,0-0.4,0
		c-4.8-0.5-10.2-1-16.2-1c-19.4,0-35.4,6.1-47.6,18.2c-13.2,13.1-19.8,31.2-20.3,55.1c-0.6,26.3,7.3,48.9,23.4,67.1
		c12.5,14.2,27.4,23,40.6,30.8c1.7,1,3.4,2,5.1,3c9.5,5.7,14.1,10.7,15.7,13.3c-1.2,1.6-3.8,4.3-8.6,7.5
		c-39.6,26.9-67.1,61.4-84.3,105.7c-7.5,19.2-12.6,39.6-16.2,59.8c-25.1-14.1-48.2-24.2-72-31.8c-30.4-9.7-61.7-14.6-93.1-14.6
		c-71.6,0-140.3,25.5-193.4,71.7c-26.7,23.3-48.5,50.8-64.7,81.9c-16.9,32.5-27.2,67.7-30.5,104.8c-4,44.2,3.5,87.2,22.9,131.6
		c18,41.2,43.9,77.6,64.5,104.7c73.5,96.8,109.5,199.8,110.2,314.8c0.2,40.7,10.7,75.4,31,103.2c20.8,28.5,50.9,48.5,89.5,59.6
		c54.6,15.6,110.3,27.5,165.6,35.3c54.8,7.7,110.6,11.6,166,11.6c109.3,0,221-15.3,332-45.4c36.1-9.8,64.8-27.2,85.4-51.7
		c22.4-26.6,34.3-60.6,35.4-100.8c3.7-131.5,43-241.2,120.2-335.5c27.5-33.6,49.6-75,65.7-123.2c26-77.9,15.9-162.7-27.8-232.7
		c-43.1-68.9-113.5-114.5-193.2-125c-19.6-2.6-38.6-3.9-56.6-3.9c-30.7,0-59.8,3.8-86.5,11.3c-27.1,7.6-52.4,19.2-75.4,34.4
		c-0.9-29.2-8.3-56.7-21.9-81.8c-13.5-24.9-33.1-47.1-58.1-65.9c-20.7-15.6-26.9-25.2-28.7-28.8c2.3-2.9,9.4-9.9,28.7-19.2
		c21.8-10.6,37.1-26.2,45.5-46.6c7.6-18.6,7.8-37.5,7.1-51.8c-0.5-10.3-2.4-19.2-5.7-27.4c-4.1-10.1-10.4-18.5-18.6-24.9
		c-17.1-13.4-36.7-13.4-43.1-13.4c-3.6,0-6.9,0.2-9.9,0.3c-1,0-1.9,0.1-2.8,0.1c-0.7-1.6-1.3-3.5-1.9-5c-2.6-6.9-5.8-15.6-11.1-24.3
		C2243.8,11.4,2213.8,2.5,2193.1,2.5L2193.1,2.5z"/>
</g>
<g>
	<path class="st0" d="M2168.6,802.6c-112.1,42.6-180.7,109.3-234,195c-57.8,92.8-60.9,93.7-151.8,30c-16.7-11.7-28.6-2.5-42.9-3.1
		c-108.3-4-170.4-93.1-129.1-192.4c63.7-153.2,134.1-303.5,198.7-456.3c26.4-62.5,46.4-128.4,24.4-197.5
		c-13.2-41.5,10.1-42.4,40-40.6c50.5,3,96.2,20.7,139,45.9c25.5,15,40.8,18.8,63-10.5c60.2-79.2,103.5-74.5,142.3,20.5
		c21.9,53.6,47.5,74.8,106.7,82.6c131.1,17.1,214.2,111.8,287.2,211.7c136.7,186.9,173.6,402.9,174.2,628.3
		c0.5,183.9,0.6,183.9-180.9,183.9c-196,0-391.9,0-587.9,0c-25.3,0-50.6,0-72.2,0C1936.7,1099.1,2127.8,993.1,2168.6,802.6z"/>
	<path class="st1" d="M2150,117.6c25.3,0,47.5,25,68.3,75.9c21.9,53.6,47.5,74.8,106.7,82.6c131.1,17.1,214.2,111.8,287.2,211.7
		c136.7,186.9,173.6,402.9,174.2,628.3c0.5,183.9,0.6,183.9-180.9,183.9c-196,0-391.9,0-587.9,0c-25.3,0-50.6,0-72.2,0
		c-8.6-200.9,182.5-306.9,223.4-497.4c-112.1,42.6-180.7,109.3-234,195c-31.8,51-47,74.2-69.4,74.2c-18.3,0-41.4-15.6-82.4-44.3
		c-6.6-4.6-12.4-6-17.9-6c-8.1,0-15.5,2.9-23.7,2.9c-0.4,0-0.8,0-1.2,0c-108.3-4-170.4-93.1-129.1-192.4
		c63.7-153.2,134.1-303.5,198.7-456.3c26.4-62.5,46.4-128.4,24.4-197.5c-11.1-35,3.6-41.1,26.4-41.1c4.3,0,8.8,0.2,13.6,0.5
		c50.5,3,96.2,20.7,139,45.9c11.8,6.9,21.4,11.5,30.4,11.5c10.6,0,20.6-6.2,32.6-22C2103.8,136.3,2128.1,117.6,2150,117.6
		 M2150,75.1c-20.2,0-40.6,7.6-60.4,22.5c-15.4,11.6-31,27.9-47.6,49.7c-0.8,1-1.5,1.9-2.1,2.7c-1.5-0.8-3.3-1.8-5.5-3.1
		c-53.8-31.7-105.4-48.6-158-51.7c-4.7-0.3-10.4-0.6-16.1-0.6c-10.4,0-42.2,0-61.1,25.9c-7.7,10.5-11.6,23-11.7,37.3
		c0,10,1.8,21,5.8,33.4c18.1,57-0.3,114.5-23,168.1c-29.8,70.4-61.4,141.6-92,210.5c-35.6,80.3-72.5,163.3-106.9,246
		c-12.3,29.6-17.6,59.5-15.8,88.7c1.8,28.6,10.8,56.2,25.9,79.8c32.1,50.1,89.2,80.3,156.7,82.8c0.9,0,1.9,0.1,2.8,0.1
		c8.1,0,14.8-1.3,19.8-2.2c0.3,0,0.5-0.1,0.8-0.1c42.8,30,71.7,49.7,103.5,49.7c13.1,0,25.7-3.5,37.3-10.3
		c9-5.3,17.4-12.6,25.9-22.4c12.5-14.4,24.8-33.8,42.2-61.6c34.1-54.8,72.6-96.7,119.2-129.1c-19.3,35.8-43.1,69.9-67.6,105
		c-29.9,42.8-60.7,87-83.5,135.6c-26.7,57-38.5,112.7-36,170.1l1.7,40.7h40.7h72.2h587.9c47.3,0,81.5,0,109.4-3.1
		c24.7-2.8,56.1-8.9,79.2-32.1c23.3-23.3,29.4-55,32.1-80c3-28.2,3-63,2.8-111.1l0-0.2c-0.3-128.9-12.6-239.7-37.3-338.8
		c-14.2-56.8-33-111.2-55.9-161.6c-24.4-53.9-54.5-105.4-89.2-152.9c-34.6-47.3-77-101.4-129-144.5c-57.7-47.8-118.9-75.3-187-84.2
		c-42.7-5.6-56.3-16.1-72.8-56.5c-12.4-30.4-25.5-53-40.1-69.3C2193,80.8,2167.3,75.1,2150,75.1L2150,75.1z"/>
</g>
<g>
	<path class="st0" d="M2186.6,1298.6c-130.8,0-261.6,0.7-392.3-0.4c-37.3-0.3-89.5,15.2-100.3-35.5c-10.9-51-22.8-107.8,10.8-158.2
		c4.2-6.4,10.1-12.5,16.6-16.4c220.3-132.9,172.5-349.8,169-550.5c-1-56-57.7-86.4-96.9-116.2c-87.1-66.3-61.9-155.4-53.6-236.5
		c4.4-43.3,50.7-68.4,102.7-62.1c46.1,5.6,106.4-17.8,115.6,57.4c3.5,28.9,18.5,33.1,41.9,33.1c24.9,0,46.9,0.2,48.6-34.5
		c2.5-48.6,35.8-57.3,77-55.9c41.8,1.5,83.7,1.4,125.5,0c44.1-1.4,79.2,9,81.1,60.6c1.2,32.7,22,28.6,42.9,29.8
		c24.1,1.4,34.1-4.5,40.2-32.5c20.9-94.6,100.1-55.1,154.5-54.4c44.3,0.6,74.3,36.7,78.7,89.3c7.7,90.4-3.8,170-87.4,224.5
		c-60.1,39.2-84.1,95.8-72,167.6c3,17.8,2.8,36.9,0.1,54.8c-27.2,178.5,18.7,325.4,173.5,432.4c60.7,42,34,112,24,166.3
		c-8.2,44-60.6,37.8-100.2,37.6C2453.4,1298.1,2320,1298.6,2186.6,1298.6z"/>
	<path class="st1" d="M2487.8,117.5c27.3,0,57.4,8.4,82.3,8.8c44.3,0.6,74.3,36.7,78.7,89.3c7.7,90.4-3.8,170-87.4,224.5
		c-60.1,39.2-84.1,95.8-72,167.6c3,17.8,2.8,36.9,0.1,54.8c-27.2,178.5,18.7,325.4,173.5,432.4c60.7,42,34,112,24,166.3
		c-6.3,33.9-38.9,38-71.6,38c-9.7,0-19.5-0.4-28.5-0.4c-59.6-0.3-119.2-0.4-178.8-0.4c-73.8,0-147.6,0.1-221.4,0.1
		c-72,0-144,0.2-215.9,0.2c-58.8,0-117.6-0.1-176.4-0.6c-0.4,0-0.7,0-1.1,0c-13.7,0-29.4,2-44.2,2c-25.3,0-48.2-5.8-55-37.5
		c-10.9-51-22.8-107.8,10.8-158.2c4.2-6.4,10.1-12.5,16.6-16.4c220.3-132.9,172.5-349.8,169-550.5c-1-56-57.7-86.4-96.9-116.2
		c-87.1-66.3-61.9-155.4-53.6-236.5c4-38.8,41.7-63.1,87-63.1c5.2,0,10.4,0.3,15.7,1c6.4,0.8,13,1,19.7,1c8.7,0,17.5-0.4,26.2-0.4
		c33.2,0,63.5,5.3,69.7,56.8c3.5,28.8,18.3,33.1,41.6,33.1c0.1,0,0.2,0,0.3,0c24.9,0,46.9,0.2,48.6-34.5c2.3-45.4,31.5-56,69-56
		c2.6,0,5.3,0.1,8,0.1c20.7,0.7,41.5,1.1,62.2,1.1c21.1,0,42.2-0.4,63.3-1c2.5-0.1,5-0.1,7.4-0.1c40.6,0,71.9,12,73.7,60.7
		c1.2,32.7,22,28.6,42.9,29.8c2.1,0.1,4.1,0.2,6,0.2c19.8,0,28.6-7.1,34.2-32.6C2426.9,129.3,2455.4,117.5,2487.8,117.5 M2487.8,75
		c-27.9,0-50.6,6.8-69.4,20.8c-21.7,16.2-36.5,41.3-44.1,74.7c-0.1,0-0.1,0-0.2,0c-4.4-38.5-23.6-59.6-39.7-70.7
		c-19.1-13.2-43.8-19.7-75.6-19.7c-2.8,0-5.8,0-8.8,0.1c-20.9,0.7-41.8,1-61.9,1c-20.5,0-40.9-0.4-60.7-1.1
		c-3.3-0.1-6.5-0.2-9.5-0.2c-30.4,0-53.1,5.8-71.6,18.3c-16.2,11-35.8,32.3-39.5,72.2c-2.2,0-4.3,0-6.2,0l-0.5,0l-0.2,0
		c-5.1-34.4-19.9-59.4-44-74.4c-22-13.6-46.4-15.5-67.4-15.5c-4.8,0-9.4,0.1-13.9,0.2c-4.3,0.1-8.3,0.2-12.2,0.2
		c-6.1,0-10.8-0.2-14.6-0.7c-6.9-0.8-14-1.3-20.8-1.3c-31.1,0-60.7,8.8-83.4,24.7c-26.4,18.5-42.7,45.7-45.9,76.6
		c-1,9.8-2.3,19.7-3.6,30.2c-5,39-10.1,79.2-3.1,120.6c4.1,24.1,11.8,45.6,23.6,65.5c12.9,21.8,30.8,41.5,53.2,58.5
		c6.6,5,13.5,9.9,20.2,14.7c36,25.7,59.5,44.3,60,68.4c0.5,29.1,1.9,58.8,3.3,87.4c8.4,174.4,15.6,325-151.8,426
		c-14.6,8.8-24.4,20.8-30,29.3c-19.8,29.8-29.4,63.4-29.2,102.6c0.2,31.7,6.9,63,12.2,88.1c7.2,33.6,26.5,50.6,41.5,58.9
		c19.7,11,40.9,12.2,55.1,12.2c9,0,17.5-0.6,25.8-1.1c6.7-0.5,13.1-0.9,18.4-0.9c0.3,0,0.5,0,0.8,0c51.3,0.4,107.5,0.6,176.8,0.6
		c36,0,72.6-0.1,108-0.1c35.4,0,72-0.1,107.9-0.1c36.9,0,74.4,0,110.7-0.1c36.3,0,73.8-0.1,110.6-0.1c70,0,126.8,0.1,178.6,0.4
		c3.8,0,7.8,0.1,12,0.2c5.4,0.1,11,0.2,16.7,0.2c19,0,41.2-1.1,61.7-9.4c27.9-11.3,46.3-33.8,51.8-63.4c1.3-6.9,2.9-14.3,4.6-22.2
		c5.9-27.1,12.7-57.8,10.1-89.1c-3.4-41.4-22.3-74.3-56.3-97.8c-132.9-91.9-182.4-216.1-155.7-391c3.5-23,3.5-46.6-0.2-68.3
		c-9.3-55.4,7.6-95.1,53.3-125c24.2-15.8,44.5-34.3,60.5-55.1c15.1-19.6,26.7-41.9,34.6-66.2c12.7-39.1,16.3-84.4,11.4-142.4
		c-3-35.1-15-65.7-34.7-88.4c-21.9-25.3-52.4-39.4-85.9-39.8c-8.9-0.1-20.4-1.9-32.5-3.7C2522.8,77.6,2505.3,75,2487.8,75L2487.8,75
		z M2375.1,184C2375.1,184,2375.1,184,2375.1,184C2375.1,184,2375.1,184,2375.1,184L2375.1,184z"/>
</g>
<g>
	<path class="st0" d="M2378.9,1092.1c61.6,28,119.5,40.1,180.3,39.2c44.4-0.7,88.9-2.7,133.3-0.6c59.7,2.8,139.3,67.7,144.8,115
		c2.9,25.1-82.4,144.1-111,154.4c-7.2,2.6-18.3,8.5-21.7,5.7c-81.8-68.5-184.9-40.2-276.9-61.6c-73.5-17.1-142.4-43.9-212.3-73.1
		c-72.8-30.4-126.4,55.9-200.9,66.8c-113.8,16.6-235.3,1.5-340.4,66.5c-5.3,3.3-22.7-7.9-31-16c-16.8-16.3-35.3-32.9-45.5-53.3
		c-16.7-33.6-69.4-55.5-43.7-103.5c32-59.8,76.9-104.4,152.8-102.2c98.9,2.8,198.8,11.3,297.7-37.1c-20.9-8-37.7-16.5-55.5-20.9
		c-60.9-14.8-85.2-50.5-57.7-108.9c32.5-69,17.5-123.1-25.3-185.8c-109.1-160-87-294.1,57.6-420.8c19.6-17.1,40.4-33.3,62.3-47.3
		c60.2-38.5,127.4-66.7,72.7-163.6c-22.7-40.4,4-92.5,55.4-114.1c60.9-25.6,123.4-31.1,176.6,14.1c45.9,38.9,48.5,97.7,21.8,143.5
		c-31.5,53.9-8.7,66.3,33.7,88.6c45.5,24,87.8,56.5,126.4,91c137.1,122.3,148.9,277.6,29,429.8c-29.9,38-36.3,71.1-22.5,112.9
		C2526.9,1055.7,2498.6,1044.8,2378.9,1092.1z"/>
	<path class="st1" d="M2199.6,11.2c31.8,0,62.7,9.7,90.9,33.7c45.9,38.9,48.5,97.7,21.8,143.5c-31.5,53.9-8.7,66.3,33.7,88.6
		c45.5,24,87.8,56.5,126.4,91c137.1,122.3,148.9,277.6,29,429.8c-29.9,38-36.3,71.1-22.5,112.9c47.9,145.1,19.6,134.2-100.1,181.5
		c59.4,27,115.2,39.2,173.6,39.2c2.2,0,4.5,0,6.7-0.1c30.1-0.5,60.2-1.6,90.3-1.6c14.3,0,28.7,0.2,43,0.9
		c59.7,2.8,139.3,67.7,144.8,115c2.9,25.1-82.4,144.1-111,154.4c-5.9,2.1-14.4,6.4-19.1,6.4c-1.1,0-2-0.2-2.6-0.7
		c-81.8-68.5-184.9-40.2-276.9-61.6c-73.5-17.1-142.4-43.9-212.3-73.1c-10.8-4.5-21.2-6.5-31.3-6.5c-57.9,0-106.2,64-169.7,73.3
		c-113.8,16.6-235.3,1.5-340.4,66.5c-0.6,0.4-1.5,0.6-2.4,0.6c-7,0-21.3-9.5-28.6-16.6c-16.8-16.3-35.3-32.9-45.5-53.3
		c-16.7-33.6-69.4-55.5-43.7-103.5c31.2-58.4,74.8-102.3,147.5-102.3c1.7,0,3.5,0,5.3,0.1c31.8,0.9,63.7,2.4,95.6,2.4
		c67.4,0,135-6.7,202.1-39.5c-20.9-8-37.7-16.5-55.5-20.9c-60.9-14.8-85.2-50.5-57.7-108.9c32.5-69,17.5-123.1-25.3-185.8
		c-109.1-160-87-294.1,57.6-420.8c19.6-17.1,40.4-33.3,62.3-47.3c60.2-38.5,127.4-66.7,72.7-163.6c-22.7-40.4,4-92.5,55.4-114.1
		C2142.5,18.8,2171.4,11.2,2199.6,11.2 M2199.6-31.3v42.5V-31.3L2199.6-31.3L2199.6-31.3c-32,0-65.5,7.5-102.2,22.9
		c-19.8,8.3-37.1,20-51.6,34.7c-14.5,14.8-25.5,32.2-31.7,50.5c-10.4,30.4-7.8,62,7.4,88.9c21.3,37.7,13.8,50.5,11.4,54.7
		c-8,13.8-30.7,27.8-52.7,41.4c-5.6,3.5-11.4,7-17.2,10.8c-22.2,14.2-44.8,31.4-67.4,51.1c-39.3,34.4-70.7,70.1-93.3,106
		c-23.9,37.9-38.9,77.6-44.7,117.8c-5.8,40.7-2.4,82.9,10.3,125.6c12.2,41,33.4,83.9,63,127.3c39.2,57.5,44.9,95.1,22,143.7
		c-8.5,18.1-13.6,35.6-14.9,52.1c-1.6,18.7,1.5,36.2,9,51.9c6.8,14.2,17,26.6,30.5,36.9c-26.2,3.3-51.5,4-75,4
		c-22.2,0-45.2-0.8-67.3-1.5c-8.9-0.3-18-0.6-27.1-0.9c-2.2-0.1-4.3-0.1-6.5-0.1c-43.5,0-82.2,12.8-115.2,38
		c-26.7,20.5-49.6,48.8-69.9,86.8c-13.9,26.1-15.7,53.2-5,78.4c8,18.8,20.9,32.7,32.4,44.9c6.5,7,13.3,14.2,15.8,19.2
		c12.3,24.7,31.6,43.3,48.6,59.7c1.8,1.7,3.5,3.4,5.3,5.1c6,5.8,14,12,22,16.8c13.1,7.9,24.9,11.8,36.2,11.8
		c8.9,0,17.5-2.4,24.8-6.9c66.2-41,142.1-46,222.5-51.2c33.3-2.2,67.6-4.4,101.6-9.4c39.3-5.7,71.5-26.1,100-44
		c23.5-14.8,45.7-28.8,63.6-28.8c4.9,0,9.8,1,14.9,3.2c78.8,32.9,146.2,58.3,219,75.3c35,8.1,70,9.8,103.8,11.4
		c60.3,2.9,112.3,5.3,155.4,41.4c8.3,7,18.7,10.7,29.9,10.7c11.8,0,21.8-4.1,29.9-7.5c1.4-0.6,2.9-1.2,3.7-1.5
		c13.9-5,28.2-16.2,46.7-36.1c12.9-14,27-31.5,40.8-50.7c13.8-19.2,25.7-37.9,34.4-54.1c13.7-25.3,18.7-42.8,16.9-58.4
		c-2.2-18.7-10.3-38-24.2-57.4c-11.3-15.7-26.3-31.3-43.5-45c-37.6-30.1-80.3-48.4-117.3-50.1c-13.8-0.6-28.5-1-45-1
		c-19.8,0-39.8,0.5-59,0.9c-10.5,0.2-21.3,0.5-31.9,0.7c-2,0-4,0-6,0c-16.9,0-33.4-1.1-49.8-3.4c11.7-8,24.4-19.8,32.5-37.6
		c8.6-18.7,10.5-40.3,6.2-68c-3.2-20.4-10-45.8-22.1-82.4c-8.1-24.5-8-43.4,15.5-73.3c32.5-41.2,56.7-83.7,71.9-126.1
		c15.5-43.2,21.9-86.7,18.9-129.3c-3-42.6-15.3-84.2-36.7-123.6c-20.9-38.6-50.6-75.2-88.3-108.8c-47.5-42.3-91.6-74-134.9-96.9
		c-7.7-4.1-18.6-9.8-24.5-13.9c1.1-3.1,3.4-8.2,7.7-15.6c18.2-31.1,25.9-66.9,21.8-100.8c-4.6-37.7-22.8-71-52.8-96.5
		C2283.8-16.6,2244-31.3,2199.6-31.3L2199.6-31.3z"/>
</g>
<g>
	<path class="st0" d="M2168.6,802.6c-112.1,42.6-180.7,109.3-234,195c-57.8,92.8-60.9,93.7-151.8,30c-16.7-11.7-28.6-2.5-42.9-3.1
		c-108.3-4-170.4-93.1-129.1-192.4c63.7-153.2,134.1-303.5,198.7-456.3c26.4-62.5,46.4-128.4,24.4-197.5
		c-13.2-41.5,10.1-42.4,40-40.6c50.5,3,96.2,20.7,139,45.9c25.5,15,40.8,18.8,63-10.5c60.2-79.2,103.5-74.5,142.3,20.5
		c21.9,53.6,47.5,74.8,106.7,82.6c131.1,17.1,214.2,111.8,287.2,211.7c136.7,186.9,173.6,402.9,174.2,628.3
		c0.5,183.9,0.6,183.9-180.9,183.9c-196,0-391.9,0-587.9,0c-25.3,0-50.6,0-72.2,0C1936.7,1099.1,2127.8,993.1,2168.6,802.6z"/>
	<path class="st1" d="M2150,117.6c25.3,0,47.5,25,68.3,75.9c21.9,53.6,47.5,74.8,106.7,82.6c131.1,17.1,214.2,111.8,287.2,211.7
		c136.7,186.9,173.6,402.9,174.2,628.3c0.5,183.9,0.6,183.9-180.9,183.9c-196,0-391.9,0-587.9,0c-25.3,0-50.6,0-72.2,0
		c-8.6-200.9,182.5-306.9,223.4-497.4c-112.1,42.6-180.7,109.3-234,195c-31.8,51-47,74.2-69.4,74.2c-18.3,0-41.4-15.6-82.4-44.3
		c-6.6-4.6-12.4-6-17.9-6c-8.1,0-15.5,2.9-23.7,2.9c-0.4,0-0.8,0-1.2,0c-108.3-4-170.4-93.1-129.1-192.4
		c63.7-153.2,134.1-303.5,198.7-456.3c26.4-62.5,46.4-128.4,24.4-197.5c-11.1-35,3.6-41.1,26.4-41.1c4.3,0,8.8,0.2,13.6,0.5
		c50.5,3,96.2,20.7,139,45.9c11.8,6.9,21.4,11.5,30.4,11.5c10.6,0,20.6-6.2,32.6-22C2103.8,136.3,2128.1,117.6,2150,117.6
		 M2150,75.1c-20.2,0-40.6,7.6-60.4,22.5c-15.4,11.6-31,27.9-47.6,49.7c-0.8,1-1.5,1.9-2.1,2.7c-1.5-0.8-3.3-1.8-5.5-3.1
		c-53.8-31.7-105.4-48.6-158-51.7c-4.7-0.3-10.4-0.6-16.1-0.6c-10.4,0-42.2,0-61.1,25.9c-7.7,10.5-11.6,23-11.7,37.3
		c0,10,1.8,21,5.8,33.4c18.1,57-0.3,114.5-23,168.1c-29.8,70.4-61.4,141.6-92,210.5c-35.6,80.3-72.5,163.3-106.9,246
		c-12.3,29.6-17.6,59.5-15.8,88.7c1.8,28.6,10.8,56.2,25.9,79.8c32.1,50.1,89.2,80.3,156.7,82.8c0.9,0,1.9,0.1,2.8,0.1
		c8.1,0,14.8-1.3,19.8-2.2c0.3,0,0.5-0.1,0.8-0.1c42.8,30,71.7,49.7,103.5,49.7c13.1,0,25.7-3.5,37.3-10.3
		c9-5.3,17.4-12.6,25.9-22.4c12.5-14.4,24.8-33.8,42.2-61.6c34.1-54.8,72.6-96.7,119.2-129.1c-19.3,35.8-43.1,69.9-67.6,105
		c-29.9,42.8-60.7,87-83.5,135.6c-26.7,57-38.5,112.7-36,170.1l1.7,40.7h40.7h72.2h587.9c47.3,0,81.5,0,109.4-3.1
		c24.7-2.8,56.1-8.9,79.2-32.1c23.3-23.3,29.4-55,32.1-80c3-28.2,3-63,2.8-111.1l0-0.2c-0.3-128.9-12.6-239.7-37.3-338.8
		c-14.2-56.8-33-111.2-55.9-161.6c-24.4-53.9-54.5-105.4-89.2-152.9c-34.6-47.3-77-101.4-129-144.5c-57.7-47.8-118.9-75.3-187-84.2
		c-42.7-5.6-56.3-16.1-72.8-56.5c-12.4-30.4-25.5-53-40.1-69.3C2193,80.8,2167.3,75.1,2150,75.1L2150,75.1z"/>
</g>
<g>
	<path class="st0" d="M2025.6,764.2c-144.9-124.7-142.3-247.3,1.7-360.1c33.9-26.6,14.4-47.7,7-74.2c-17.7-63.8-16.8-126,39.9-171.2
		c59.9-47.8,128.8-54.5,198.4-24.1c81.3,35.6,107,109.9,73.9,202.4c-8.3,23.2-25.1,41.2,6.9,65.7c150.1,114.8,152.1,232.9,5.9,358.2
		c30.4,20.7,60.2,40.2,89.1,60.9c154.6,110.7,177.6,272.2,172.2,445.1c-1.1,36-23.8,33.8-47.8,33.8c-253.6-0.1-507.3-0.8-760.9,0.8
		c-38.8,0.2-47-13.7-48.4-49.7C1755.6,1040.4,1813.5,864.4,2025.6,764.2z"/>
	<path class="st1" d="M2189.9,116.2c27.1,0,54.9,6.2,82.8,18.5c81.3,35.6,107,109.9,73.9,202.4c-8.3,23.2-25.1,41.2,6.9,65.7
		c150.1,114.8,152.1,232.9,5.9,358.2c30.4,20.7,60.2,40.2,89.1,60.9c154.6,110.7,177.6,272.2,172.2,445.1c-1,32-18.9,33.8-39.8,33.8
		c-2.6,0-5.3,0-8.1,0c-125.5,0-251.1-0.2-376.6-0.2c-128.1,0-256.2,0.2-384.3,1c-0.3,0-0.6,0-1,0c-37.9,0-46.1-14-47.4-49.7
		c-8-211.4,50-387.3,262.1-487.5c-144.9-124.7-142.3-247.3,1.7-360.1c33.9-26.6,14.4-47.7,7-74.2c-17.7-63.8-16.8-126,39.9-171.2
		C2110.2,130.1,2149.3,116.2,2189.9,116.2 M2189.9,73.7v42.5V73.7c-25.3,0-50.3,4.4-74.1,13.1c-23.8,8.7-46.6,21.7-68,38.7
		c-34.7,27.6-55.9,62.8-63.2,104.6c-5.7,32.7-2.8,69.1,8.8,111.2c2.1,7.4,4.6,13.9,6.8,19.6c1,2.5,2.2,5.6,3,8
		c-0.6,0.5-1.2,1.1-2.1,1.7c-81.6,63.9-123.8,133.2-125.4,205.9c-0.9,38.3,9.7,76.9,31.4,114.7c12.1,21.1,27.8,42.1,47.1,63
		c-33.5,20.2-63.5,42.9-89.5,68c-37.6,36.2-68.1,78.4-90.8,125.5c-40.1,83.1-57.3,183-52.7,305.5c0.8,21.3,3.9,45.6,20.5,64.6
		c20.4,23.3,49.4,26,69.5,26c0.4,0,0.8,0,1.2,0c111.6-0.7,230-1,384.1-1c69.7,0,140.6,0.1,209.2,0.1c54.9,0,111.6,0.1,167.4,0.1
		c1.3,0,2.5,0,3.8,0c1.4,0,2.9,0,4.3,0c11,0,31.5,0,49.7-11.2c14.2-8.8,31.5-27,32.6-63.8c1.6-50,0.6-93.2-3.1-132.2
		c-4.4-47.4-12.6-89.3-25.1-128.1c-14-43.6-33.9-83.7-59.1-118.9c-27.3-38.3-61.9-72.5-102.8-101.8c-15.2-10.9-30.7-21.5-46.1-31.8
		c21.2-22.2,38.3-44.4,51.2-66.4c22-37.6,32.6-75.9,31.6-113.8c-1-37.3-13.4-74.3-36.7-109.8c-21.5-32.7-53.1-65.1-93.9-96.4
		c0.5-1.1,1-2.3,1.4-3.3c1.8-4.2,3.9-8.9,5.8-14.3c9.6-26.9,15.1-53.1,16.3-77.9c1.2-26.1-2.3-50.7-10.4-73.3
		c-16.6-46.1-52.2-82.2-102.8-104.4C2256.4,81.1,2222.8,73.7,2189.9,73.7L2189.9,73.7z"/>
</g>
<g>
	<path class="st0" d="M2025.6,764.2c-144.9-124.7-142.3-247.3,1.7-360.1c33.9-26.6,14.4-47.7,7-74.2c-17.7-63.8-16.8-126,39.9-171.2
		c59.9-47.8,128.8-54.5,198.4-24.1c81.3,35.6,107,109.9,73.9,202.4c-8.3,23.2-25.1,41.2,6.9,65.7c150.1,114.8,152.1,232.9,5.9,358.2
		c30.4,20.7,60.2,40.2,89.1,60.9c154.6,110.7,177.6,272.2,172.2,445.1c-1.1,36-23.8,33.8-47.8,33.8c-253.6-0.1-507.3-0.8-760.9,0.8
		c-38.8,0.2-47-13.7-48.4-49.7C1755.6,1040.4,1813.5,864.4,2025.6,764.2z"/>
	<path class="st1" d="M2189.9,116.2c27.1,0,54.9,6.2,82.8,18.5c81.3,35.6,107,109.9,73.9,202.4c-8.3,23.2-25.1,41.2,6.9,65.7
		c150.1,114.8,152.1,232.9,5.9,358.2c30.4,20.7,60.2,40.2,89.1,60.9c154.6,110.7,177.6,272.2,172.2,445.1c-1,32-18.9,33.8-39.8,33.8
		c-2.6,0-5.3,0-8.1,0c-125.5,0-251.1-0.2-376.6-0.2c-128.1,0-256.2,0.2-384.3,1c-0.3,0-0.6,0-1,0c-37.9,0-46.1-14-47.4-49.7
		c-8-211.4,50-387.3,262.1-487.5c-144.9-124.7-142.3-247.3,1.7-360.1c33.9-26.6,14.4-47.7,7-74.2c-17.7-63.8-16.8-126,39.9-171.2
		C2110.2,130.1,2149.3,116.2,2189.9,116.2 M2189.9,73.7v42.5V73.7c-25.3,0-50.3,4.4-74.1,13.1c-23.8,8.7-46.6,21.7-68,38.7
		c-34.7,27.6-55.9,62.8-63.2,104.6c-5.7,32.7-2.8,69.1,8.8,111.2c2.1,7.4,4.6,13.9,6.8,19.6c1,2.5,2.2,5.6,3,8
		c-0.6,0.5-1.2,1.1-2.1,1.7c-81.6,63.9-123.8,133.2-125.4,205.9c-0.9,38.3,9.7,76.9,31.4,114.7c12.1,21.1,27.8,42.1,47.1,63
		c-33.5,20.2-63.5,42.9-89.5,68c-37.6,36.2-68.1,78.4-90.8,125.5c-40.1,83.1-57.3,183-52.7,305.5c0.8,21.3,3.9,45.6,20.5,64.6
		c20.4,23.3,49.4,26,69.5,26c0.4,0,0.8,0,1.2,0c111.6-0.7,230-1,384.1-1c69.7,0,140.6,0.1,209.2,0.1c54.9,0,111.6,0.1,167.4,0.1
		c1.3,0,2.5,0,3.8,0c1.4,0,2.9,0,4.3,0c11,0,31.5,0,49.7-11.2c14.2-8.8,31.5-27,32.6-63.8c1.6-50,0.6-93.2-3.1-132.2
		c-4.4-47.4-12.6-89.3-25.1-128.1c-14-43.6-33.9-83.7-59.1-118.9c-27.3-38.3-61.9-72.5-102.8-101.8c-15.2-10.9-30.7-21.5-46.1-31.8
		c21.2-22.2,38.3-44.4,51.2-66.4c22-37.6,32.6-75.9,31.6-113.8c-1-37.3-13.4-74.3-36.7-109.8c-21.5-32.7-53.1-65.1-93.9-96.4
		c0.5-1.1,1-2.3,1.4-3.3c1.8-4.2,3.9-8.9,5.8-14.3c9.6-26.9,15.1-53.1,16.3-77.9c1.2-26.1-2.3-50.7-10.4-73.3
		c-16.6-46.1-52.2-82.2-102.8-104.4C2256.4,81.1,2222.8,73.7,2189.9,73.7L2189.9,73.7z"/>
</g>
<g>
	<path class="st0" d="M2025.6,764.2c-144.9-124.7-142.3-247.3,1.7-360.1c33.9-26.6,14.4-47.7,7-74.2c-17.7-63.8-16.8-126,39.9-171.2
		c59.9-47.8,128.8-54.5,198.4-24.1c81.3,35.6,107,109.9,73.9,202.4c-8.3,23.2-25.1,41.2,6.9,65.7c150.1,114.8,152.1,232.9,5.9,358.2
		c30.4,20.7,60.2,40.2,89.1,60.9c154.6,110.7,177.6,272.2,172.2,445.1c-1.1,36-23.8,33.8-47.8,33.8c-253.6-0.1-507.3-0.8-760.9,0.8
		c-38.8,0.2-47-13.7-48.4-49.7C1755.6,1040.4,1813.5,864.4,2025.6,764.2z"/>
	<path class="st1" d="M2189.9,116.2c27.1,0,54.9,6.2,82.8,18.5c81.3,35.6,107,109.9,73.9,202.4c-8.3,23.2-25.1,41.2,6.9,65.7
		c150.1,114.8,152.1,232.9,5.9,358.2c30.4,20.7,60.2,40.2,89.1,60.9c154.6,110.7,177.6,272.2,172.2,445.1c-1,32-18.9,33.8-39.8,33.8
		c-2.6,0-5.3,0-8.1,0c-125.5,0-251.1-0.2-376.6-0.2c-128.1,0-256.2,0.2-384.3,1c-0.3,0-0.6,0-1,0c-37.9,0-46.1-14-47.4-49.7
		c-8-211.4,50-387.3,262.1-487.5c-144.9-124.7-142.3-247.3,1.7-360.1c33.9-26.6,14.4-47.7,7-74.2c-17.7-63.8-16.8-126,39.9-171.2
		C2110.2,130.1,2149.3,116.2,2189.9,116.2 M2189.9,73.7v42.5V73.7c-25.3,0-50.3,4.4-74.1,13.1c-23.8,8.7-46.6,21.7-68,38.7
		c-34.7,27.6-55.9,62.8-63.2,104.6c-5.7,32.7-2.8,69.1,8.8,111.2c2.1,7.4,4.6,13.9,6.8,19.6c1,2.5,2.2,5.6,3,8
		c-0.6,0.5-1.2,1.1-2.1,1.7c-81.6,63.9-123.8,133.2-125.4,205.9c-0.9,38.3,9.7,76.9,31.4,114.7c12.1,21.1,27.8,42.1,47.1,63
		c-33.5,20.2-63.5,42.9-89.5,68c-37.6,36.2-68.1,78.4-90.8,125.5c-40.1,83.1-57.3,183-52.7,305.5c0.8,21.3,3.9,45.6,20.5,64.6
		c20.4,23.3,49.4,26,69.5,26c0.4,0,0.8,0,1.2,0c111.6-0.7,230-1,384.1-1c69.7,0,140.6,0.1,209.2,0.1c54.9,0,111.6,0.1,167.4,0.1
		c1.3,0,2.5,0,3.8,0c1.4,0,2.9,0,4.3,0c11,0,31.5,0,49.7-11.2c14.2-8.8,31.5-27,32.6-63.8c1.6-50,0.6-93.2-3.1-132.2
		c-4.4-47.4-12.6-89.3-25.1-128.1c-14-43.6-33.9-83.7-59.1-118.9c-27.3-38.3-61.9-72.5-102.8-101.8c-15.2-10.9-30.7-21.5-46.1-31.8
		c21.2-22.2,38.3-44.4,51.2-66.4c22-37.6,32.6-75.9,31.6-113.8c-1-37.3-13.4-74.3-36.7-109.8c-21.5-32.7-53.1-65.1-93.9-96.4
		c0.5-1.1,1-2.3,1.4-3.3c1.8-4.2,3.9-8.9,5.8-14.3c9.6-26.9,15.1-53.1,16.3-77.9c1.2-26.1-2.3-50.7-10.4-73.3
		c-16.6-46.1-52.2-82.2-102.8-104.4C2256.4,81.1,2222.8,73.7,2189.9,73.7L2189.9,73.7z"/>
</g>
<g>
	<path class="st0" d="M2025.6,764.2c-144.9-124.7-142.3-247.3,1.7-360.1c33.9-26.6,14.4-47.7,7-74.2c-17.7-63.8-16.8-126,39.9-171.2
		c59.9-47.8,128.8-54.5,198.4-24.1c81.3,35.6,107,109.9,73.9,202.4c-8.3,23.2-25.1,41.2,6.9,65.7c150.1,114.8,152.1,232.9,5.9,358.2
		c30.4,20.7,60.2,40.2,89.1,60.9c154.6,110.7,177.6,272.2,172.2,445.1c-1.1,36-23.8,33.8-47.8,33.8c-253.6-0.1-507.3-0.8-760.9,0.8
		c-38.8,0.2-47-13.7-48.4-49.7C1755.6,1040.4,1813.5,864.4,2025.6,764.2z"/>
	<path class="st1" d="M2189.9,116.2c27.1,0,54.9,6.2,82.8,18.5c81.3,35.6,107,109.9,73.9,202.4c-8.3,23.2-25.1,41.2,6.9,65.7
		c150.1,114.8,152.1,232.9,5.9,358.2c30.4,20.7,60.2,40.2,89.1,60.9c154.6,110.7,177.6,272.2,172.2,445.1c-1,32-18.9,33.8-39.8,33.8
		c-2.6,0-5.3,0-8.1,0c-125.5,0-251.1-0.2-376.6-0.2c-128.1,0-256.2,0.2-384.3,1c-0.3,0-0.6,0-1,0c-37.9,0-46.1-14-47.4-49.7
		c-8-211.4,50-387.3,262.1-487.5c-144.9-124.7-142.3-247.3,1.7-360.1c33.9-26.6,14.4-47.7,7-74.2c-17.7-63.8-16.8-126,39.9-171.2
		C2110.2,130.1,2149.3,116.2,2189.9,116.2 M2189.9,73.7v42.5V73.7c-25.3,0-50.3,4.4-74.1,13.1c-23.8,8.7-46.6,21.7-68,38.7
		c-34.7,27.6-55.9,62.8-63.2,104.6c-5.7,32.7-2.8,69.1,8.8,111.2c2.1,7.4,4.6,13.9,6.8,19.6c1,2.5,2.2,5.6,3,8
		c-0.6,0.5-1.2,1.1-2.1,1.7c-81.6,63.9-123.8,133.2-125.4,205.9c-0.9,38.3,9.7,76.9,31.4,114.7c12.1,21.1,27.8,42.1,47.1,63
		c-33.5,20.2-63.5,42.9-89.5,68c-37.6,36.2-68.1,78.4-90.8,125.5c-40.1,83.1-57.3,183-52.7,305.5c0.8,21.3,3.9,45.6,20.5,64.6
		c20.4,23.3,49.4,26,69.5,26c0.4,0,0.8,0,1.2,0c111.6-0.7,230-1,384.1-1c69.7,0,140.6,0.1,209.2,0.1c54.9,0,111.6,0.1,167.4,0.1
		c1.3,0,2.5,0,3.8,0c1.4,0,2.9,0,4.3,0c11,0,31.5,0,49.7-11.2c14.2-8.8,31.5-27,32.6-63.8c1.6-50,0.6-93.2-3.1-132.2
		c-4.4-47.4-12.6-89.3-25.1-128.1c-14-43.6-33.9-83.7-59.1-118.9c-27.3-38.3-61.9-72.5-102.8-101.8c-15.2-10.9-30.7-21.5-46.1-31.8
		c21.2-22.2,38.3-44.4,51.2-66.4c22-37.6,32.6-75.9,31.6-113.8c-1-37.3-13.4-74.3-36.7-109.8c-21.5-32.7-53.1-65.1-93.9-96.4
		c0.5-1.1,1-2.3,1.4-3.3c1.8-4.2,3.9-8.9,5.8-14.3c9.6-26.9,15.1-53.1,16.3-77.9c1.2-26.1-2.3-50.7-10.4-73.3
		c-16.6-46.1-52.2-82.2-102.8-104.4C2256.4,81.1,2222.8,73.7,2189.9,73.7L2189.9,73.7z"/>
</g>
<g>
	<path class="st0" d="M2025.6,764.2c-144.9-124.7-142.3-247.3,1.7-360.1c33.9-26.6,14.4-47.7,7-74.2c-17.7-63.8-16.8-126,39.9-171.2
		c59.9-47.8,128.8-54.5,198.4-24.1c81.3,35.6,107,109.9,73.9,202.4c-8.3,23.2-25.1,41.2,6.9,65.7c150.1,114.8,152.1,232.9,5.9,358.2
		c30.4,20.7,60.2,40.2,89.1,60.9c154.6,110.7,177.6,272.2,172.2,445.1c-1.1,36-23.8,33.8-47.8,33.8c-253.6-0.1-507.3-0.8-760.9,0.8
		c-38.8,0.2-47-13.7-48.4-49.7C1755.6,1040.4,1813.5,864.4,2025.6,764.2z"/>
	<path class="st1" d="M2189.9,116.2c27.1,0,54.9,6.2,82.8,18.5c81.3,35.6,107,109.9,73.9,202.4c-8.3,23.2-25.1,41.2,6.9,65.7
		c150.1,114.8,152.1,232.9,5.9,358.2c30.4,20.7,60.2,40.2,89.1,60.9c154.6,110.7,177.6,272.2,172.2,445.1c-1,32-18.9,33.8-39.8,33.8
		c-2.6,0-5.3,0-8.1,0c-125.5,0-251.1-0.2-376.6-0.2c-128.1,0-256.2,0.2-384.3,1c-0.3,0-0.6,0-1,0c-37.9,0-46.1-14-47.4-49.7
		c-8-211.4,50-387.3,262.1-487.5c-144.9-124.7-142.3-247.3,1.7-360.1c33.9-26.6,14.4-47.7,7-74.2c-17.7-63.8-16.8-126,39.9-171.2
		C2110.2,130.1,2149.3,116.2,2189.9,116.2 M2189.9,73.7v42.5V73.7c-25.3,0-50.3,4.4-74.1,13.1c-23.8,8.7-46.6,21.7-68,38.7
		c-34.7,27.6-55.9,62.8-63.2,104.6c-5.7,32.7-2.8,69.1,8.8,111.2c2.1,7.4,4.6,13.9,6.8,19.6c1,2.5,2.2,5.6,3,8
		c-0.6,0.5-1.2,1.1-2.1,1.7c-81.6,63.9-123.8,133.2-125.4,205.9c-0.9,38.3,9.7,76.9,31.4,114.7c12.1,21.1,27.8,42.1,47.1,63
		c-33.5,20.2-63.5,42.9-89.5,68c-37.6,36.2-68.1,78.4-90.8,125.5c-40.1,83.1-57.3,183-52.7,305.5c0.8,21.3,3.9,45.6,20.5,64.6
		c20.4,23.3,49.4,26,69.5,26c0.4,0,0.8,0,1.2,0c111.6-0.7,230-1,384.1-1c69.7,0,140.6,0.1,209.2,0.1c54.9,0,111.6,0.1,167.4,0.1
		c1.3,0,2.5,0,3.8,0c1.4,0,2.9,0,4.3,0c11,0,31.5,0,49.7-11.2c14.2-8.8,31.5-27,32.6-63.8c1.6-50,0.6-93.2-3.1-132.2
		c-4.4-47.4-12.6-89.3-25.1-128.1c-14-43.6-33.9-83.7-59.1-118.9c-27.3-38.3-61.9-72.5-102.8-101.8c-15.2-10.9-30.7-21.5-46.1-31.8
		c21.2-22.2,38.3-44.4,51.2-66.4c22-37.6,32.6-75.9,31.6-113.8c-1-37.3-13.4-74.3-36.7-109.8c-21.5-32.7-53.1-65.1-93.9-96.4
		c0.5-1.1,1-2.3,1.4-3.3c1.8-4.2,3.9-8.9,5.8-14.3c9.6-26.9,15.1-53.1,16.3-77.9c1.2-26.1-2.3-50.7-10.4-73.3
		c-16.6-46.1-52.2-82.2-102.8-104.4C2256.4,81.1,2222.8,73.7,2189.9,73.7L2189.9,73.7z"/>
</g>
<g>
	<path class="st0" d="M2025.6,764.2c-144.9-124.7-142.3-247.3,1.7-360.1c33.9-26.6,14.4-47.7,7-74.2c-17.7-63.8-16.8-126,39.9-171.2
		c59.9-47.8,128.8-54.5,198.4-24.1c81.3,35.6,107,109.9,73.9,202.4c-8.3,23.2-25.1,41.2,6.9,65.7c150.1,114.8,152.1,232.9,5.9,358.2
		c30.4,20.7,60.2,40.2,89.1,60.9c154.6,110.7,177.6,272.2,172.2,445.1c-1.1,36-23.8,33.8-47.8,33.8c-253.6-0.1-507.3-0.8-760.9,0.8
		c-38.8,0.2-47-13.7-48.4-49.7C1755.6,1040.4,1813.5,864.4,2025.6,764.2z"/>
	<path class="st1" d="M2189.9,116.2c27.1,0,54.9,6.2,82.8,18.5c81.3,35.6,107,109.9,73.9,202.4c-8.3,23.2-25.1,41.2,6.9,65.7
		c150.1,114.8,152.1,232.9,5.9,358.2c30.4,20.7,60.2,40.2,89.1,60.9c154.6,110.7,177.6,272.2,172.2,445.1c-1,32-18.9,33.8-39.8,33.8
		c-2.6,0-5.3,0-8.1,0c-125.5,0-251.1-0.2-376.6-0.2c-128.1,0-256.2,0.2-384.3,1c-0.3,0-0.6,0-1,0c-37.9,0-46.1-14-47.4-49.7
		c-8-211.4,50-387.3,262.1-487.5c-144.9-124.7-142.3-247.3,1.7-360.1c33.9-26.6,14.4-47.7,7-74.2c-17.7-63.8-16.8-126,39.9-171.2
		C2110.2,130.1,2149.3,116.2,2189.9,116.2 M2189.9,73.7v42.5V73.7c-25.3,0-50.3,4.4-74.1,13.1c-23.8,8.7-46.6,21.7-68,38.7
		c-34.7,27.6-55.9,62.8-63.2,104.6c-5.7,32.7-2.8,69.1,8.8,111.2c2.1,7.4,4.6,13.9,6.8,19.6c1,2.5,2.2,5.6,3,8
		c-0.6,0.5-1.2,1.1-2.1,1.7c-81.6,63.9-123.8,133.2-125.4,205.9c-0.9,38.3,9.7,76.9,31.4,114.7c12.1,21.1,27.8,42.1,47.1,63
		c-33.5,20.2-63.5,42.9-89.5,68c-37.6,36.2-68.1,78.4-90.8,125.5c-40.1,83.1-57.3,183-52.7,305.5c0.8,21.3,3.9,45.6,20.5,64.6
		c20.4,23.3,49.4,26,69.5,26c0.4,0,0.8,0,1.2,0c111.6-0.7,230-1,384.1-1c69.7,0,140.6,0.1,209.2,0.1c54.9,0,111.6,0.1,167.4,0.1
		c1.3,0,2.5,0,3.8,0c1.4,0,2.9,0,4.3,0c11,0,31.5,0,49.7-11.2c14.2-8.8,31.5-27,32.6-63.8c1.6-50,0.6-93.2-3.1-132.2
		c-4.4-47.4-12.6-89.3-25.1-128.1c-14-43.6-33.9-83.7-59.1-118.9c-27.3-38.3-61.9-72.5-102.8-101.8c-15.2-10.9-30.7-21.5-46.1-31.8
		c21.2-22.2,38.3-44.4,51.2-66.4c22-37.6,32.6-75.9,31.6-113.8c-1-37.3-13.4-74.3-36.7-109.8c-21.5-32.7-53.1-65.1-93.9-96.4
		c0.5-1.1,1-2.3,1.4-3.3c1.8-4.2,3.9-8.9,5.8-14.3c9.6-26.9,15.1-53.1,16.3-77.9c1.2-26.1-2.3-50.7-10.4-73.3
		c-16.6-46.1-52.2-82.2-102.8-104.4C2256.4,81.1,2222.8,73.7,2189.9,73.7L2189.9,73.7z"/>
</g>
<g>
	<path class="st0" d="M2025.6,764.2c-144.9-124.7-142.3-247.3,1.7-360.1c33.9-26.6,14.4-47.7,7-74.2c-17.7-63.8-16.8-126,39.9-171.2
		c59.9-47.8,128.8-54.5,198.4-24.1c81.3,35.6,107,109.9,73.9,202.4c-8.3,23.2-25.1,41.2,6.9,65.7c150.1,114.8,152.1,232.9,5.9,358.2
		c30.4,20.7,60.2,40.2,89.1,60.9c154.6,110.7,177.6,272.2,172.2,445.1c-1.1,36-23.8,33.8-47.8,33.8c-253.6-0.1-507.3-0.8-760.9,0.8
		c-38.8,0.2-47-13.7-48.4-49.7C1755.6,1040.4,1813.5,864.4,2025.6,764.2z"/>
	<path class="st1" d="M2189.9,116.2c27.1,0,54.9,6.2,82.8,18.5c81.3,35.6,107,109.9,73.9,202.4c-8.3,23.2-25.1,41.2,6.9,65.7
		c150.1,114.8,152.1,232.9,5.9,358.2c30.4,20.7,60.2,40.2,89.1,60.9c154.6,110.7,177.6,272.2,172.2,445.1c-1,32-18.9,33.8-39.8,33.8
		c-2.6,0-5.3,0-8.1,0c-125.5,0-251.1-0.2-376.6-0.2c-128.1,0-256.2,0.2-384.3,1c-0.3,0-0.6,0-1,0c-37.9,0-46.1-14-47.4-49.7
		c-8-211.4,50-387.3,262.1-487.5c-144.9-124.7-142.3-247.3,1.7-360.1c33.9-26.6,14.4-47.7,7-74.2c-17.7-63.8-16.8-126,39.9-171.2
		C2110.2,130.1,2149.3,116.2,2189.9,116.2 M2189.9,73.7v42.5V73.7c-25.3,0-50.3,4.4-74.1,13.1c-23.8,8.7-46.6,21.7-68,38.7
		c-34.7,27.6-55.9,62.8-63.2,104.6c-5.7,32.7-2.8,69.1,8.8,111.2c2.1,7.4,4.6,13.9,6.8,19.6c1,2.5,2.2,5.6,3,8
		c-0.6,0.5-1.2,1.1-2.1,1.7c-81.6,63.9-123.8,133.2-125.4,205.9c-0.9,38.3,9.7,76.9,31.4,114.7c12.1,21.1,27.8,42.1,47.1,63
		c-33.5,20.2-63.5,42.9-89.5,68c-37.6,36.2-68.1,78.4-90.8,125.5c-40.1,83.1-57.3,183-52.7,305.5c0.8,21.3,3.9,45.6,20.5,64.6
		c20.4,23.3,49.4,26,69.5,26c0.4,0,0.8,0,1.2,0c111.6-0.7,230-1,384.1-1c69.7,0,140.6,0.1,209.2,0.1c54.9,0,111.6,0.1,167.4,0.1
		c1.3,0,2.5,0,3.8,0c1.4,0,2.9,0,4.3,0c11,0,31.5,0,49.7-11.2c14.2-8.8,31.5-27,32.6-63.8c1.6-50,0.6-93.2-3.1-132.2
		c-4.4-47.4-12.6-89.3-25.1-128.1c-14-43.6-33.9-83.7-59.1-118.9c-27.3-38.3-61.9-72.5-102.8-101.8c-15.2-10.9-30.7-21.5-46.1-31.8
		c21.2-22.2,38.3-44.4,51.2-66.4c22-37.6,32.6-75.9,31.6-113.8c-1-37.3-13.4-74.3-36.7-109.8c-21.5-32.7-53.1-65.1-93.9-96.4
		c0.5-1.1,1-2.3,1.4-3.3c1.8-4.2,3.9-8.9,5.8-14.3c9.6-26.9,15.1-53.1,16.3-77.9c1.2-26.1-2.3-50.7-10.4-73.3
		c-16.6-46.1-52.2-82.2-102.8-104.4C2256.4,81.1,2222.8,73.7,2189.9,73.7L2189.9,73.7z"/>
</g>
<g>
	<path class="st0" d="M2025.6,764.2c-144.9-124.7-142.3-247.3,1.7-360.1c33.9-26.6,14.4-47.7,7-74.2c-17.7-63.8-16.8-126,39.9-171.2
		c59.9-47.8,128.8-54.5,198.4-24.1c81.3,35.6,107,109.9,73.9,202.4c-8.3,23.2-25.1,41.2,6.9,65.7c150.1,114.8,152.1,232.9,5.9,358.2
		c30.4,20.7,60.2,40.2,89.1,60.9c154.6,110.7,177.6,272.2,172.2,445.1c-1.1,36-23.8,33.8-47.8,33.8c-253.6-0.1-507.3-0.8-760.9,0.8
		c-38.8,0.2-47-13.7-48.4-49.7C1755.6,1040.4,1813.5,864.4,2025.6,764.2z"/>
	<path class="st1" d="M2189.9,116.2c27.1,0,54.9,6.2,82.8,18.5c81.3,35.6,107,109.9,73.9,202.4c-8.3,23.2-25.1,41.2,6.9,65.7
		c150.1,114.8,152.1,232.9,5.9,358.2c30.4,20.7,60.2,40.2,89.1,60.9c154.6,110.7,177.6,272.2,172.2,445.1c-1,32-18.9,33.8-39.8,33.8
		c-2.6,0-5.3,0-8.1,0c-125.5,0-251.1-0.2-376.6-0.2c-128.1,0-256.2,0.2-384.3,1c-0.3,0-0.6,0-1,0c-37.9,0-46.1-14-47.4-49.7
		c-8-211.4,50-387.3,262.1-487.5c-144.9-124.7-142.3-247.3,1.7-360.1c33.9-26.6,14.4-47.7,7-74.2c-17.7-63.8-16.8-126,39.9-171.2
		C2110.2,130.1,2149.3,116.2,2189.9,116.2 M2189.9,73.7v42.5V73.7c-25.3,0-50.3,4.4-74.1,13.1c-23.8,8.7-46.6,21.7-68,38.7
		c-34.7,27.6-55.9,62.8-63.2,104.6c-5.7,32.7-2.8,69.1,8.8,111.2c2.1,7.4,4.6,13.9,6.8,19.6c1,2.5,2.2,5.6,3,8
		c-0.6,0.5-1.2,1.1-2.1,1.7c-81.6,63.9-123.8,133.2-125.4,205.9c-0.9,38.3,9.7,76.9,31.4,114.7c12.1,21.1,27.8,42.1,47.1,63
		c-33.5,20.2-63.5,42.9-89.5,68c-37.6,36.2-68.1,78.4-90.8,125.5c-40.1,83.1-57.3,183-52.7,305.5c0.8,21.3,3.9,45.6,20.5,64.6
		c20.4,23.3,49.4,26,69.5,26c0.4,0,0.8,0,1.2,0c111.6-0.7,230-1,384.1-1c69.7,0,140.6,0.1,209.2,0.1c54.9,0,111.6,0.1,167.4,0.1
		c1.3,0,2.5,0,3.8,0c1.4,0,2.9,0,4.3,0c11,0,31.5,0,49.7-11.2c14.2-8.8,31.5-27,32.6-63.8c1.6-50,0.6-93.2-3.1-132.2
		c-4.4-47.4-12.6-89.3-25.1-128.1c-14-43.6-33.9-83.7-59.1-118.9c-27.3-38.3-61.9-72.5-102.8-101.8c-15.2-10.9-30.7-21.5-46.1-31.8
		c21.2-22.2,38.3-44.4,51.2-66.4c22-37.6,32.6-75.9,31.6-113.8c-1-37.3-13.4-74.3-36.7-109.8c-21.5-32.7-53.1-65.1-93.9-96.4
		c0.5-1.1,1-2.3,1.4-3.3c1.8-4.2,3.9-8.9,5.8-14.3c9.6-26.9,15.1-53.1,16.3-77.9c1.2-26.1-2.3-50.7-10.4-73.3
		c-16.6-46.1-52.2-82.2-102.8-104.4C2256.4,81.1,2222.8,73.7,2189.9,73.7L2189.9,73.7z"/>
</g>
<g>
	<path class="st1" d="M1845.5,660.1c-5.4-138.7,49.7-267-62.7-375.6c-36.5-35.3-33.6-88.5-0.2-129.6c32.7-40.2,81.3-51.9,128-34.6
		c55.9,20.7,77,69.6,66.1,127.1c-28.4,149.2,44.3,270.6,104.6,415.8c37.7-165.8,70.1-312.1,16-461c-17.3-47.6-11.4-87.5,30-118.3
		c41.4-30.8,87.3-36.9,129.7-5.9c40,29.2,50.9,74.9,33.6,119.3c-57.3,147.4-21.8,291,17.1,437.6c60.8-117.7,126.1-235,104.2-374.7
		c-9.9-63.1,1.3-110,60.2-135.7c49.9-21.8,100-16.5,131.7,33.1c33,51.6,31.1,103.1-17.5,147.6c-52,47.7-49,113.8-51.9,175.2
		c-2.4,51.3,7.4,103.2,11.9,155.6c92.2-48.6,146.8-152.5,128.7-250.4c-12.5-67.8,13-111.4,75.2-135.1c56-21.3,97.7,2,124.7,49.9
		c33.6,59.5,16.6,114.7-36.8,150.1c-33.1,22-40.5,45.6-46.6,81.2c-17,99.8-39.1,198.9-62.2,297.5c-13.6,58.2-61.7,96-97.4,139.8
		c-49.1,60.3-66.6,113.3-29.2,190.7c55.5,114.8,32.9,158.1-92.7,174.9c-220.4,29.6-442.2,41.7-661.9-11.1
		c-95.7-23-113.3-43.5-71.3-134.7c47-102.2,24.4-177.7-48-252.5c-95-98.2-100.6-230.7-126.7-354.2c-11.7-55.6-12.1-108.6-69.4-146.5
		c-44.1-29.2-53.1-83.3-25.2-133.5c25.5-45.8,69.7-66.7,118.7-55.7c56.3,12.6,94,53.7,84.9,114
		C1692.7,482.9,1748.4,569.4,1845.5,660.1z"/>
	<path class="st0" d="M2198.3,57.7c19.8,0,39.7,6.4,58.9,20.4c40,29.2,50.9,74.9,33.6,119.3c-57.3,147.4-21.8,291,17.1,437.6
		c60.8-117.7,126.1-235,104.2-374.7c-9.9-63.1,1.3-110,60.2-135.7c18-7.9,36-12.2,53.2-12.2c30.4,0,58.2,13.6,78.5,45.3
		c33,51.6,31.1,103.1-17.5,147.6c-52,47.7-49,113.8-51.9,175.2c-2.4,51.3,7.4,103.2,11.9,155.6c92.2-48.6,146.8-152.5,128.7-250.4
		c-12.5-67.8,13-111.4,75.2-135.1c14.2-5.4,27.4-7.9,39.8-7.9c36.4,0,64.7,22,84.9,57.8c33.6,59.5,16.6,114.7-36.8,150.1
		c-33.1,22-40.5,45.6-46.6,81.2c-17,99.8-39.1,198.9-62.2,297.5c-13.6,58.2-61.7,96-97.4,139.8c-49.1,60.3-66.6,113.3-29.2,190.7
		c55.5,114.8,32.9,158.1-92.7,174.9c-110.9,14.9-222.2,25.4-333.4,25.4c-109.8,0-219.4-10.2-328.5-36.5
		c-95.7-23-113.3-43.5-71.3-134.7c47-102.2,24.4-177.7-48-252.5c-95-98.2-100.6-230.7-126.7-354.2c-11.7-55.6-12.1-108.6-69.4-146.5
		c-44.1-29.2-53.1-83.3-25.2-133.5c21-37.7,54.7-58.6,93.4-58.6c8.2,0,16.7,0.9,25.3,2.9c56.3,12.6,94,53.7,84.9,114
		c-18.6,122.5,37,209,134.1,299.8c-5.4-138.7,49.7-267-62.7-375.6c-36.5-35.3-33.6-88.5-0.2-129.6c22.9-28.2,53.7-42.4,86.1-42.4
		c13.8,0,28,2.6,41.9,7.8c55.9,20.7,77,69.6,66.1,127.1c-28.4,149.2,44.3,270.6,104.6,415.8c37.7-165.8,70.1-312.1,16-461
		c-17.3-47.6-11.4-87.5,30-118.3C2150.2,67.1,2174.2,57.7,2198.3,57.7 M2198.3,15.2c-17,0-34.1,3.2-50.9,9.6
		c-15.4,5.8-30.6,14.3-45.3,25.2c-28.3,21.1-46.2,47.2-53.1,77.5c-6.1,26.9-3.3,57,8.5,89.4c36.4,100,30.1,199.9,10.1,307.9
		c-39-91.4-67-175.1-49-269.3c15.4-80.9-20.3-147.9-93.1-174.9c-18.6-6.9-37.7-10.4-56.7-10.4c-46.3,0-88.6,20.6-119.1,58.1
		c-11.1,13.6-19.8,28.5-25.9,44c-6.3,16.1-9.6,32.6-9.8,49.1c-0.1,8.8,0.6,17.5,2.2,25.9c-20.6-20.6-48.1-35.1-80.5-42.4
		c-11.5-2.6-23.2-3.9-34.6-3.9c-27,0-53.2,7.5-75.9,21.6c-22.4,14-40.8,33.8-54.7,58.8c-39.2,70.6-23.3,148.6,38.9,189.7
		c31.8,21.1,37.7,46.4,46.2,93.1c1.6,8.6,3.2,17.5,5.1,26.7c4.7,22.5,8.9,46,13,68.8c9.2,51.7,18.7,105.2,36.2,156.6
		c20.5,60.3,49.5,109.2,88.6,149.6c65.6,67.7,76.8,125.3,40,205.2c-12,26.1-19.2,46.4-22.7,63.9c-4.9,24.2-2.9,44.8,5.9,63
		c9.3,19.1,25.5,33.9,49.5,45.3c16.1,7.6,36.9,14.3,67.4,21.6c105.3,25.3,216,37.6,338.5,37.6c100.5,0,208.2-8.2,339-25.7
		c36.1-4.8,64.3-11.8,86.3-21.3c27.8-12,47.9-29.2,59.6-51.1c11.8-22,15.1-48.4,9.7-78.6c-4.3-23.7-14.2-51.4-30.2-84.6
		c-26.6-55.1-20.9-90.4,23.9-145.3c8.2-10,17.3-19.9,26.9-30.4c31-33.8,66.2-72.1,78.9-126.5c22.1-94.2,44.9-195.7,62.8-300.1
		c5.2-30.3,9.3-40.3,28.2-52.9c35.5-23.6,59.2-54.9,68.6-90.7c9.7-37.2,3.4-77.2-18.3-115.7c-13.5-23.9-29.9-42.8-48.9-56.2
		c-21.9-15.4-46.5-23.3-73-23.3c-17.8,0-36.2,3.6-54.9,10.7c-29.4,11.2-52.9,26.6-70.3,45.9c9.4-38.8,1.1-80.7-25.3-121.9
		c-13.6-21.3-30.7-37.8-50.6-48.8c-19.3-10.7-40.7-16.1-63.7-16.1c-22.7,0-46.3,5.3-70.2,15.8c-38.6,16.9-65,42.9-78.4,77.4
		c-11.2,28.6-13.3,61.7-6.7,103.9c13.8,88-11.6,167.2-48.6,246.6c-21.4-99.2-30.3-200,8.9-300.7c11.9-30.7,14.1-62.5,6.1-91.9
		c-8.3-30.6-27-57.4-54.3-77.2C2256.3,24.8,2228,15.2,2198.3,15.2L2198.3,15.2z M1806.8,556.1c-48.5-63-63.8-120.8-53.3-189.4
		c2.8-18.2,2.4-35.8-1-52.5c0.3,0.3,0.6,0.6,0.9,0.8c67.6,65.3,61.7,138.8,54.2,231.7C1807.2,549.9,1807,553,1806.8,556.1
		L1806.8,556.1z M2580.7,557.3c-2.8-25.8-4.7-50.7-3.6-74.8c0.3-6.2,0.5-12.5,0.7-18.5c1.9-51.7,3.5-96.3,37.4-127.4
		c6.8-6.2,13-12.7,18.5-19.3c-5.3,22.9-5.4,48.3-0.2,76.1C2644.1,451,2622.9,512.6,2580.7,557.3L2580.7,557.3z"/>
</g>
<g>
	<path class="st1" d="M2186.6,1298.6c-130.8,0-261.6,0.7-392.3-0.4c-37.3-0.3-89.5,15.2-100.3-35.5c-10.9-51-22.8-107.8,10.8-158.2
		c4.2-6.4,10.1-12.5,16.6-16.4c220.3-132.9,172.5-349.8,169-550.5c-1-56-57.7-86.4-96.9-116.2c-87.1-66.3-61.9-155.4-53.6-236.5
		c4.4-43.3,50.7-68.4,102.7-62.1c46.1,5.6,106.4-17.8,115.6,57.4c3.5,28.9,18.5,33.1,41.9,33.1c24.9,0,46.9,0.2,48.6-34.5
		c2.5-48.6,35.8-57.3,77-55.9c41.8,1.5,83.7,1.4,125.5,0c44.1-1.4,79.2,9,81.1,60.6c1.2,32.7,22,28.6,42.9,29.8
		c24.1,1.4,34.1-4.5,40.2-32.5c20.9-94.6,100.1-55.1,154.5-54.4c44.3,0.6,74.3,36.7,78.7,89.3c7.7,90.4-3.8,170-87.4,224.5
		c-60.1,39.2-84.1,95.8-72,167.6c3,17.8,2.8,36.9,0.1,54.8c-27.2,178.5,18.7,325.4,173.5,432.4c60.7,42,34,112,24,166.3
		c-8.2,44-60.6,37.8-100.2,37.6C2453.4,1298.1,2320,1298.6,2186.6,1298.6z"/>
	<path class="st0" d="M2487.8,117.5c27.3,0,57.4,8.4,82.3,8.8c44.3,0.6,74.3,36.7,78.7,89.3c7.7,90.4-3.8,170-87.4,224.5
		c-60.1,39.2-84.1,95.8-72,167.6c3,17.8,2.8,36.9,0.1,54.8c-27.2,178.5,18.7,325.4,173.5,432.4c60.7,42,34,112,24,166.3
		c-6.3,33.9-38.9,38-71.6,38c-9.7,0-19.5-0.4-28.5-0.4c-59.6-0.3-119.2-0.4-178.8-0.4c-73.8,0-147.6,0.1-221.4,0.1
		c-72,0-144,0.2-215.9,0.2c-58.8,0-117.6-0.1-176.4-0.6c-0.4,0-0.7,0-1.1,0c-13.7,0-29.4,2-44.2,2c-25.3,0-48.2-5.8-55-37.5
		c-10.9-51-22.8-107.8,10.8-158.2c4.2-6.4,10.1-12.5,16.6-16.4c220.3-132.9,172.5-349.8,169-550.5c-1-56-57.7-86.4-96.9-116.2
		c-87.1-66.3-61.9-155.4-53.6-236.5c4-38.8,41.7-63.1,87-63.1c5.2,0,10.4,0.3,15.7,1c6.4,0.8,13,1,19.7,1c8.7,0,17.5-0.4,26.2-0.4
		c33.2,0,63.5,5.3,69.7,56.8c3.5,28.8,18.3,33.1,41.6,33.1c0.1,0,0.2,0,0.3,0c24.9,0,46.9,0.2,48.6-34.5c2.3-45.4,31.5-56,69-56
		c2.6,0,5.3,0.1,8,0.1c20.7,0.7,41.5,1.1,62.2,1.1c21.1,0,42.2-0.4,63.3-1c2.5-0.1,5-0.1,7.4-0.1c40.6,0,71.9,12,73.7,60.7
		c1.2,32.7,22,28.6,42.9,29.8c2.1,0.1,4.1,0.2,6,0.2c19.8,0,28.6-7.1,34.2-32.6C2426.9,129.3,2455.4,117.5,2487.8,117.5 M2487.8,75
		c-27.9,0-50.6,6.8-69.4,20.8c-21.7,16.2-36.5,41.3-44.1,74.7c-0.1,0-0.1,0-0.2,0c-4.4-38.5-23.6-59.6-39.7-70.7
		c-19.1-13.2-43.8-19.7-75.6-19.7c-2.8,0-5.8,0-8.8,0.1c-20.9,0.7-41.8,1-61.9,1c-20.5,0-40.9-0.4-60.7-1.1
		c-3.3-0.1-6.5-0.2-9.5-0.2c-30.4,0-53.1,5.8-71.6,18.3c-16.2,11-35.8,32.3-39.5,72.2c-2.2,0-4.3,0-6.2,0l-0.5,0l-0.2,0
		c-5.1-34.4-19.9-59.4-44-74.4c-22-13.6-46.4-15.5-67.4-15.5c-4.8,0-9.4,0.1-13.9,0.2c-4.3,0.1-8.3,0.2-12.2,0.2
		c-6.1,0-10.8-0.2-14.6-0.7c-6.9-0.8-14-1.3-20.8-1.3c-31.1,0-60.7,8.8-83.4,24.7c-26.4,18.5-42.7,45.7-45.9,76.6
		c-1,9.8-2.3,19.7-3.6,30.2c-5,39-10.1,79.2-3.1,120.6c4.1,24.1,11.8,45.6,23.6,65.5c12.9,21.8,30.8,41.5,53.2,58.5
		c6.6,5,13.5,9.9,20.2,14.7c36,25.7,59.5,44.3,60,68.4c0.5,29.1,1.9,58.8,3.3,87.4c8.4,174.4,15.6,325-151.8,426
		c-14.6,8.8-24.4,20.8-30,29.3c-19.8,29.8-29.4,63.4-29.2,102.6c0.2,31.7,6.9,63,12.2,88.1c7.2,33.6,26.5,50.6,41.5,58.9
		c19.7,11,40.9,12.2,55.1,12.2c9,0,17.5-0.6,25.8-1.1c6.7-0.5,13.1-0.9,18.4-0.9c0.3,0,0.5,0,0.8,0c51.3,0.4,107.5,0.6,176.8,0.6
		c36,0,72.6-0.1,108-0.1c35.4,0,72-0.1,107.9-0.1c36.9,0,74.4,0,110.7-0.1c36.3,0,73.8-0.1,110.6-0.1c70,0,126.8,0.1,178.6,0.4
		c3.8,0,7.8,0.1,12,0.2c5.4,0.1,11,0.2,16.7,0.2c19,0,41.2-1.1,61.7-9.4c27.9-11.3,46.3-33.8,51.8-63.4c1.3-6.9,2.9-14.3,4.6-22.2
		c5.9-27.1,12.7-57.8,10.1-89.1c-3.4-41.4-22.3-74.3-56.3-97.8c-132.9-91.9-182.4-216.1-155.7-391c3.5-23,3.5-46.6-0.2-68.3
		c-9.3-55.4,7.6-95.1,53.3-125c24.2-15.8,44.5-34.3,60.5-55.1c15.1-19.6,26.7-41.9,34.6-66.2c12.7-39.1,16.3-84.4,11.4-142.4
		c-3-35.1-15-65.7-34.7-88.4c-21.9-25.3-52.4-39.4-85.9-39.8c-8.9-0.1-20.4-1.9-32.5-3.7C2522.8,77.6,2505.3,75,2487.8,75L2487.8,75
		z M2375.1,184C2375.1,184,2375.1,184,2375.1,184C2375.1,184,2375.1,184,2375.1,184L2375.1,184z"/>
</g>
<g>
	<path class="st1" d="M2378.9,1092.1c61.6,28,119.5,40.1,180.3,39.2c44.4-0.7,88.9-2.7,133.3-0.6c59.7,2.8,139.3,67.7,144.8,115
		c2.9,25.1-82.4,144.1-111,154.4c-7.2,2.6-18.3,8.5-21.7,5.7c-81.8-68.5-184.9-40.2-276.9-61.6c-73.5-17.1-142.4-43.9-212.3-73.1
		c-72.8-30.4-126.4,55.9-200.9,66.8c-113.8,16.6-235.3,1.5-340.4,66.5c-5.3,3.3-22.7-7.9-31-16c-16.8-16.3-35.3-32.9-45.5-53.3
		c-16.7-33.6-69.4-55.5-43.7-103.5c32-59.8,76.9-104.4,152.8-102.2c98.9,2.8,198.8,11.3,297.7-37.1c-20.9-8-37.7-16.5-55.5-20.9
		c-60.9-14.8-85.2-50.5-57.7-108.9c32.5-69,17.5-123.1-25.3-185.8c-109.1-160-87-294.1,57.6-420.8c19.6-17.1,40.4-33.3,62.3-47.3
		c60.2-38.5,127.4-66.7,72.7-163.6c-22.7-40.4,4-92.5,55.4-114.1c60.9-25.6,123.4-31.1,176.6,14.1c45.9,38.9,48.5,97.7,21.8,143.5
		c-31.5,53.9-8.7,66.3,33.7,88.6c45.5,24,87.8,56.5,126.4,91c137.1,122.3,148.9,277.6,29,429.8c-29.9,38-36.3,71.1-22.5,112.9
		C2526.9,1055.7,2498.6,1044.8,2378.9,1092.1z"/>
	<path class="st0" d="M2199.6,11.2c31.8,0,62.7,9.7,90.9,33.7c45.9,38.9,48.5,97.7,21.8,143.5c-31.5,53.9-8.7,66.3,33.7,88.6
		c45.5,24,87.8,56.5,126.4,91c137.1,122.3,148.9,277.6,29,429.8c-29.9,38-36.3,71.1-22.5,112.9c47.9,145.1,19.6,134.2-100.1,181.5
		c59.4,27,115.2,39.2,173.6,39.2c2.2,0,4.5,0,6.7-0.1c30.1-0.5,60.2-1.6,90.3-1.6c14.3,0,28.7,0.2,43,0.9
		c59.7,2.8,139.3,67.7,144.8,115c2.9,25.1-82.4,144.1-111,154.4c-5.9,2.1-14.4,6.4-19.1,6.4c-1.1,0-2-0.2-2.6-0.7
		c-81.8-68.5-184.9-40.2-276.9-61.6c-73.5-17.1-142.4-43.9-212.3-73.1c-10.8-4.5-21.2-6.5-31.3-6.5c-57.9,0-106.2,64-169.7,73.3
		c-113.8,16.6-235.3,1.5-340.4,66.5c-0.6,0.4-1.5,0.6-2.4,0.6c-7,0-21.3-9.5-28.6-16.6c-16.8-16.3-35.3-32.9-45.5-53.3
		c-16.7-33.6-69.4-55.5-43.7-103.5c31.2-58.4,74.8-102.3,147.5-102.3c1.7,0,3.5,0,5.3,0.1c31.8,0.9,63.7,2.4,95.6,2.4
		c67.4,0,135-6.7,202.1-39.5c-20.9-8-37.7-16.5-55.5-20.9c-60.9-14.8-85.2-50.5-57.7-108.9c32.5-69,17.5-123.1-25.3-185.8
		c-109.1-160-87-294.1,57.6-420.8c19.6-17.1,40.4-33.3,62.3-47.3c60.2-38.5,127.4-66.7,72.7-163.6c-22.7-40.4,4-92.5,55.4-114.1
		C2142.5,18.8,2171.4,11.2,2199.6,11.2 M2199.6-31.3v42.5V-31.3L2199.6-31.3L2199.6-31.3c-32,0-65.5,7.5-102.2,22.9
		c-19.8,8.3-37.1,20-51.6,34.7c-14.5,14.8-25.5,32.2-31.7,50.5c-10.4,30.4-7.8,62,7.4,88.9c21.3,37.7,13.8,50.5,11.4,54.7
		c-8,13.8-30.7,27.8-52.7,41.4c-5.6,3.5-11.4,7-17.2,10.8c-22.2,14.2-44.8,31.4-67.4,51.1c-39.3,34.4-70.7,70.1-93.3,106
		c-23.9,37.9-38.9,77.6-44.7,117.8c-5.8,40.7-2.4,82.9,10.3,125.6c12.2,41,33.4,83.9,63,127.3c39.2,57.5,44.9,95.1,22,143.7
		c-8.5,18.1-13.6,35.6-14.9,52.1c-1.6,18.7,1.5,36.2,9,51.9c6.8,14.2,17,26.6,30.5,36.9c-26.2,3.3-51.5,4-75,4
		c-22.2,0-45.2-0.8-67.3-1.5c-8.9-0.3-18-0.6-27.1-0.9c-2.2-0.1-4.3-0.1-6.5-0.1c-43.5,0-82.2,12.8-115.2,38
		c-26.7,20.5-49.6,48.8-69.9,86.8c-13.9,26.1-15.7,53.2-5,78.4c8,18.8,20.9,32.7,32.4,44.9c6.5,7,13.3,14.2,15.8,19.2
		c12.3,24.7,31.6,43.3,48.6,59.7c1.8,1.7,3.5,3.4,5.3,5.1c6,5.8,14,12,22,16.8c13.1,7.9,24.9,11.8,36.2,11.8
		c8.9,0,17.5-2.4,24.8-6.9c66.2-41,142.1-46,222.5-51.2c33.3-2.2,67.6-4.4,101.6-9.4c39.3-5.7,71.5-26.1,100-44
		c23.5-14.8,45.7-28.8,63.6-28.8c4.9,0,9.8,1,14.9,3.2c78.8,32.9,146.2,58.3,219,75.3c35,8.1,70,9.8,103.8,11.4
		c60.3,2.9,112.3,5.3,155.4,41.4c8.3,7,18.7,10.7,29.9,10.7c11.8,0,21.8-4.1,29.9-7.5c1.4-0.6,2.9-1.2,3.7-1.5
		c13.9-5,28.2-16.2,46.7-36.1c12.9-14,27-31.5,40.8-50.7c13.8-19.2,25.7-37.9,34.4-54.1c13.7-25.3,18.7-42.8,16.9-58.4
		c-2.2-18.7-10.3-38-24.2-57.4c-11.3-15.7-26.3-31.3-43.5-45c-37.6-30.1-80.3-48.4-117.3-50.1c-13.8-0.6-28.5-1-45-1
		c-19.8,0-39.8,0.5-59,0.9c-10.5,0.2-21.3,0.5-31.9,0.7c-2,0-4,0-6,0c-16.9,0-33.4-1.1-49.8-3.4c11.7-8,24.4-19.8,32.5-37.6
		c8.6-18.7,10.5-40.3,6.2-68c-3.2-20.4-10-45.8-22.1-82.4c-8.1-24.5-8-43.4,15.5-73.3c32.5-41.2,56.7-83.7,71.9-126.1
		c15.5-43.2,21.9-86.7,18.9-129.3c-3-42.6-15.3-84.2-36.7-123.6c-20.9-38.6-50.6-75.2-88.3-108.8c-47.5-42.3-91.6-74-134.9-96.9
		c-7.7-4.1-18.6-9.8-24.5-13.9c1.1-3.1,3.4-8.2,7.7-15.6c18.2-31.1,25.9-66.9,21.8-100.8c-4.6-37.7-22.8-71-52.8-96.5
		C2283.8-16.6,2244-31.3,2199.6-31.3L2199.6-31.3z"/>
</g>
<g>
	<path class="st1" d="M2029.5,514.3c6.5-87.9,21.1-155.7,90.1-202.6c41.3-28,35.4-65.7-9.2-92.5c-24.6-14.7-49.2-26.4-48.4-63.5
		c1.1-47.6,35.9-26.2,56.5-30.9c27.9-6.4,22.8-32,33.2-48.4c27-42.8,56.8-41.1,81.2-0.7c11.6,19.2,10.2,45.8,40.7,49.6
		c18.3,2.3,44.8-9.5,46.5,25.1c1.2,25-2.3,45.3-28.6,58.1c-72.8,35.2-67,75.1-7,120.3c39.1,29.5,63.4,69.8,63.2,120.5
		c-0.2,50.5,9.9,68.4,60.3,32.5c57.5-40.9,125.6-48.1,195.1-39c142.2,18.7,232,165.4,186.3,302c-13.4,40.2-32.1,77.7-58.3,109.7
		c-86.3,105.5-126.1,227.4-129.8,361.3c-1.8,63.3-36.3,98.3-89.4,112.7c-213.2,57.9-427.5,59.7-640.7-1.4
		c-59.1-16.9-89.3-59-89.7-122.2c-0.7-126.8-42.1-239.1-118.8-340.2c-45.9-60.6-86.1-126.6-78.9-206.8
		c14.1-157,172.5-256.1,326.5-207.2C1949.9,463.4,1985.8,483.7,2029.5,514.3z"/>
	<path class="st0" d="M2193.1,45c14,0,27.6,10.5,39.9,30.9c11.6,19.2,10.2,45.8,40.7,49.6c1.9,0.2,3.9,0.3,6,0.3
		c5,0,10.4-0.5,15.5-0.5c12.7,0,23.9,3.2,25,25.3c1.2,25-2.3,45.3-28.6,58.1c-72.8,35.2-67,75.1-7,120.3
		c39.1,29.5,63.4,69.8,63.2,120.5c-0.1,32.4,4,51.3,20.2,51.3c9.1,0,22-5.9,40.1-18.8c43.3-30.8,92.6-42.5,144-42.5
		c16.9,0,33.9,1.3,51.1,3.5c142.2,18.7,232,165.4,186.3,302c-13.4,40.2-32.1,77.7-58.3,109.7c-86.3,105.5-126.1,227.4-129.8,361.3
		c-1.8,63.3-36.3,98.3-89.4,112.7c-106.8,29-213.8,43.9-320.9,43.9c-106.7,0-213.4-14.8-319.8-45.3c-59.1-16.9-89.3-59-89.7-122.2
		c-0.7-126.8-42.1-239.1-118.8-340.2c-45.9-60.6-86.1-126.6-78.9-206.8c11.6-129.6,121.7-219.8,246.3-219.8c26.3,0,53.3,4,80.2,12.6
		c39.6,12.6,75.5,32.9,119.2,63.5c6.5-87.9,21.1-155.7,90.1-202.6c41.3-28,35.4-65.7-9.2-92.5c-24.6-14.7-49.2-26.4-48.4-63.5
		c0.6-26.9,11.9-31.7,25.4-31.7c7.7,0,16.1,1.6,23.6,1.6c2.6,0,5.2-0.2,7.5-0.7c27.9-6.4,22.8-32,33.2-48.4
		C2165.2,55.3,2179.3,45,2193.1,45 M2193.1,2.5c-20.5,0-50.5,8.9-77.3,51.4c-6.6,10.4-9.6,21-11.7,28.7c-0.1,0-0.3,0-0.4,0
		c-4.8-0.5-10.2-1-16.2-1c-19.4,0-35.4,6.1-47.6,18.2c-13.2,13.1-19.8,31.2-20.3,55.1c-0.6,26.3,7.3,48.9,23.4,67.1
		c12.5,14.2,27.4,23,40.6,30.8c1.7,1,3.4,2,5.1,3c9.5,5.7,14.1,10.7,15.7,13.3c-1.2,1.6-3.8,4.3-8.6,7.5
		c-39.6,26.9-67.1,61.4-84.3,105.7c-7.5,19.2-12.6,39.6-16.2,59.8c-25.1-14.1-48.2-24.2-72-31.8c-30.4-9.7-61.7-14.6-93.1-14.6
		c-71.6,0-140.3,25.5-193.4,71.7c-26.7,23.3-48.5,50.8-64.7,81.9c-16.9,32.5-27.2,67.7-30.5,104.8c-4,44.2,3.5,87.2,22.9,131.6
		c18,41.2,43.9,77.6,64.5,104.7c73.5,96.8,109.5,199.8,110.2,314.8c0.2,40.7,10.7,75.4,31,103.2c20.8,28.5,50.9,48.5,89.5,59.6
		c54.6,15.6,110.3,27.5,165.6,35.3c54.8,7.7,110.6,11.6,166,11.6c109.3,0,221-15.3,332-45.4c36.1-9.8,64.8-27.2,85.4-51.7
		c22.4-26.6,34.3-60.6,35.4-100.8c3.7-131.5,43-241.2,120.2-335.5c27.5-33.6,49.6-75,65.7-123.2c26-77.9,15.9-162.7-27.8-232.7
		c-43.1-68.9-113.5-114.5-193.2-125c-19.6-2.6-38.6-3.9-56.6-3.9c-30.7,0-59.8,3.8-86.5,11.3c-27.1,7.6-52.4,19.2-75.4,34.4
		c-0.9-29.2-8.3-56.7-21.9-81.8c-13.5-24.9-33.1-47.1-58.1-65.9c-20.7-15.6-26.9-25.2-28.7-28.8c2.3-2.9,9.4-9.9,28.7-19.2
		c21.8-10.6,37.1-26.2,45.5-46.6c7.6-18.6,7.8-37.5,7.1-51.8c-0.5-10.3-2.4-19.2-5.7-27.4c-4.1-10.1-10.4-18.5-18.6-24.9
		c-17.1-13.4-36.7-13.4-43.1-13.4c-3.6,0-6.9,0.2-9.9,0.3c-1,0-1.9,0.1-2.8,0.1c-0.7-1.6-1.3-3.5-1.9-5c-2.6-6.9-5.8-15.6-11.1-24.3
		C2243.8,11.4,2213.8,2.5,2193.1,2.5L2193.1,2.5z"/>
</g>
<g>
	<path class="st1" d="M2168.6,802.6c-112.1,42.6-180.7,109.3-234,195c-57.8,92.8-60.9,93.7-151.8,30c-16.7-11.7-28.6-2.5-42.9-3.1
		c-108.3-4-170.4-93.1-129.1-192.4c63.7-153.2,134.1-303.5,198.7-456.3c26.4-62.5,46.4-128.4,24.4-197.5
		c-13.2-41.5,10.1-42.4,40-40.6c50.5,3,96.2,20.7,139,45.9c25.5,15,40.8,18.8,63-10.5c60.2-79.2,103.5-74.5,142.3,20.5
		c21.9,53.6,47.5,74.8,106.7,82.6c131.1,17.1,214.2,111.8,287.2,211.7c136.7,186.9,173.6,402.9,174.2,628.3
		c0.5,183.9,0.6,183.9-180.9,183.9c-196,0-391.9,0-587.9,0c-25.3,0-50.6,0-72.2,0C1936.7,1099.1,2127.8,993.1,2168.6,802.6z"/>
	<path class="st0" d="M2150,117.6c25.3,0,47.5,25,68.3,75.9c21.9,53.6,47.5,74.8,106.7,82.6c131.1,17.1,214.2,111.8,287.2,211.7
		c136.7,186.9,173.6,402.9,174.2,628.3c0.5,183.9,0.6,183.9-180.9,183.9c-196,0-391.9,0-587.9,0c-25.3,0-50.6,0-72.2,0
		c-8.6-200.9,182.5-306.9,223.4-497.4c-112.1,42.6-180.7,109.3-234,195c-31.8,51-47,74.2-69.4,74.2c-18.3,0-41.4-15.6-82.4-44.3
		c-6.6-4.6-12.4-6-17.9-6c-8.1,0-15.5,2.9-23.7,2.9c-0.4,0-0.8,0-1.2,0c-108.3-4-170.4-93.1-129.1-192.4
		c63.7-153.2,134.1-303.5,198.7-456.3c26.4-62.5,46.4-128.4,24.4-197.5c-11.1-35,3.6-41.1,26.4-41.1c4.3,0,8.8,0.2,13.6,0.5
		c50.5,3,96.2,20.7,139,45.9c11.8,6.9,21.4,11.5,30.4,11.5c10.6,0,20.6-6.2,32.6-22C2103.8,136.3,2128.1,117.6,2150,117.6
		 M2150,75.1c-20.2,0-40.6,7.6-60.4,22.5c-15.4,11.6-31,27.9-47.6,49.7c-0.8,1-1.5,1.9-2.1,2.7c-1.5-0.8-3.3-1.8-5.5-3.1
		c-53.8-31.7-105.4-48.6-158-51.7c-4.7-0.3-10.4-0.6-16.1-0.6c-10.4,0-42.2,0-61.1,25.9c-7.7,10.5-11.6,23-11.7,37.3
		c0,10,1.8,21,5.8,33.4c18.1,57-0.3,114.5-23,168.1c-29.8,70.4-61.4,141.6-92,210.5c-35.6,80.3-72.5,163.3-106.9,246
		c-12.3,29.6-17.6,59.5-15.8,88.7c1.8,28.6,10.8,56.2,25.9,79.8c32.1,50.1,89.2,80.3,156.7,82.8c0.9,0,1.9,0.1,2.8,0.1
		c8.1,0,14.8-1.3,19.8-2.2c0.3,0,0.5-0.1,0.8-0.1c42.8,30,71.7,49.7,103.5,49.7c13.1,0,25.7-3.5,37.3-10.3
		c9-5.3,17.4-12.6,25.9-22.4c12.5-14.4,24.8-33.8,42.2-61.6c34.1-54.8,72.6-96.7,119.2-129.1c-19.3,35.8-43.1,69.9-67.6,105
		c-29.9,42.8-60.7,87-83.5,135.6c-26.7,57-38.5,112.7-36,170.1l1.7,40.7h40.7h72.2h587.9c47.3,0,81.5,0,109.4-3.1
		c24.7-2.8,56.1-8.9,79.2-32.1c23.3-23.3,29.4-55,32.1-80c3-28.2,3-63,2.8-111.1l0-0.2c-0.3-128.9-12.6-239.7-37.3-338.8
		c-14.2-56.8-33-111.2-55.9-161.6c-24.4-53.9-54.5-105.4-89.2-152.9c-34.6-47.3-77-101.4-129-144.5c-57.7-47.8-118.9-75.3-187-84.2
		c-42.7-5.6-56.3-16.1-72.8-56.5c-12.4-30.4-25.5-53-40.1-69.3C2193,80.8,2167.3,75.1,2150,75.1L2150,75.1z"/>
</g>
<g>
	<path class="st1" d="M2186.6,1298.6c-130.8,0-261.6,0.7-392.3-0.4c-37.3-0.3-89.5,15.2-100.3-35.5c-10.9-51-22.8-107.8,10.8-158.2
		c4.2-6.4,10.1-12.5,16.6-16.4c220.3-132.9,172.5-349.8,169-550.5c-1-56-57.7-86.4-96.9-116.2c-87.1-66.3-61.9-155.4-53.6-236.5
		c4.4-43.3,50.7-68.4,102.7-62.1c46.1,5.6,106.4-17.8,115.6,57.4c3.5,28.9,18.5,33.1,41.9,33.1c24.9,0,46.9,0.2,48.6-34.5
		c2.5-48.6,35.8-57.3,77-55.9c41.8,1.5,83.7,1.4,125.5,0c44.1-1.4,79.2,9,81.1,60.6c1.2,32.7,22,28.6,42.9,29.8
		c24.1,1.4,34.1-4.5,40.2-32.5c20.9-94.6,100.1-55.1,154.5-54.4c44.3,0.6,74.3,36.7,78.7,89.3c7.7,90.4-3.8,170-87.4,224.5
		c-60.1,39.2-84.1,95.8-72,167.6c3,17.8,2.8,36.9,0.1,54.8c-27.2,178.5,18.7,325.4,173.5,432.4c60.7,42,34,112,24,166.3
		c-8.2,44-60.6,37.8-100.2,37.6C2453.4,1298.1,2320,1298.6,2186.6,1298.6z"/>
	<path class="st0" d="M2487.8,117.5c27.3,0,57.4,8.4,82.3,8.8c44.3,0.6,74.3,36.7,78.7,89.3c7.7,90.4-3.8,170-87.4,224.5
		c-60.1,39.2-84.1,95.8-72,167.6c3,17.8,2.8,36.9,0.1,54.8c-27.2,178.5,18.7,325.4,173.5,432.4c60.7,42,34,112,24,166.3
		c-6.3,33.9-38.9,38-71.6,38c-9.7,0-19.5-0.4-28.5-0.4c-59.6-0.3-119.2-0.4-178.8-0.4c-73.8,0-147.6,0.1-221.4,0.1
		c-72,0-144,0.2-215.9,0.2c-58.8,0-117.6-0.1-176.4-0.6c-0.4,0-0.7,0-1.1,0c-13.7,0-29.4,2-44.2,2c-25.3,0-48.2-5.8-55-37.5
		c-10.9-51-22.8-107.8,10.8-158.2c4.2-6.4,10.1-12.5,16.6-16.4c220.3-132.9,172.5-349.8,169-550.5c-1-56-57.7-86.4-96.9-116.2
		c-87.1-66.3-61.9-155.4-53.6-236.5c4-38.8,41.7-63.1,87-63.1c5.2,0,10.4,0.3,15.7,1c6.4,0.8,13,1,19.7,1c8.7,0,17.5-0.4,26.2-0.4
		c33.2,0,63.5,5.3,69.7,56.8c3.5,28.8,18.3,33.1,41.6,33.1c0.1,0,0.2,0,0.3,0c24.9,0,46.9,0.2,48.6-34.5c2.3-45.4,31.5-56,69-56
		c2.6,0,5.3,0.1,8,0.1c20.7,0.7,41.5,1.1,62.2,1.1c21.1,0,42.2-0.4,63.3-1c2.5-0.1,5-0.1,7.4-0.1c40.6,0,71.9,12,73.7,60.7
		c1.2,32.7,22,28.6,42.9,29.8c2.1,0.1,4.1,0.2,6,0.2c19.8,0,28.6-7.1,34.2-32.6C2426.9,129.3,2455.4,117.5,2487.8,117.5 M2487.8,75
		c-27.9,0-50.6,6.8-69.4,20.8c-21.7,16.2-36.5,41.3-44.1,74.7c-0.1,0-0.1,0-0.2,0c-4.4-38.5-23.6-59.6-39.7-70.7
		c-19.1-13.2-43.8-19.7-75.6-19.7c-2.8,0-5.8,0-8.8,0.1c-20.9,0.7-41.8,1-61.9,1c-20.5,0-40.9-0.4-60.7-1.1
		c-3.3-0.1-6.5-0.2-9.5-0.2c-30.4,0-53.1,5.8-71.6,18.3c-16.2,11-35.8,32.3-39.5,72.2c-2.2,0-4.3,0-6.2,0l-0.5,0l-0.2,0
		c-5.1-34.4-19.9-59.4-44-74.4c-22-13.6-46.4-15.5-67.4-15.5c-4.8,0-9.4,0.1-13.9,0.2c-4.3,0.1-8.3,0.2-12.2,0.2
		c-6.1,0-10.8-0.2-14.6-0.7c-6.9-0.8-14-1.3-20.8-1.3c-31.1,0-60.7,8.8-83.4,24.7c-26.4,18.5-42.7,45.7-45.9,76.6
		c-1,9.8-2.3,19.7-3.6,30.2c-5,39-10.1,79.2-3.1,120.6c4.1,24.1,11.8,45.6,23.6,65.5c12.9,21.8,30.8,41.5,53.2,58.5
		c6.6,5,13.5,9.9,20.2,14.7c36,25.7,59.5,44.3,60,68.4c0.5,29.1,1.9,58.8,3.3,87.4c8.4,174.4,15.6,325-151.8,426
		c-14.6,8.8-24.4,20.8-30,29.3c-19.8,29.8-29.4,63.4-29.2,102.6c0.2,31.7,6.9,63,12.2,88.1c7.2,33.6,26.5,50.6,41.5,58.9
		c19.7,11,40.9,12.2,55.1,12.2c9,0,17.5-0.6,25.8-1.1c6.7-0.5,13.1-0.9,18.4-0.9c0.3,0,0.5,0,0.8,0c51.3,0.4,107.5,0.6,176.8,0.6
		c36,0,72.6-0.1,108-0.1c35.4,0,72-0.1,107.9-0.1c36.9,0,74.4,0,110.7-0.1c36.3,0,73.8-0.1,110.6-0.1c70,0,126.8,0.1,178.6,0.4
		c3.8,0,7.8,0.1,12,0.2c5.4,0.1,11,0.2,16.7,0.2c19,0,41.2-1.1,61.7-9.4c27.9-11.3,46.3-33.8,51.8-63.4c1.3-6.9,2.9-14.3,4.6-22.2
		c5.9-27.1,12.7-57.8,10.1-89.1c-3.4-41.4-22.3-74.3-56.3-97.8c-132.9-91.9-182.4-216.1-155.7-391c3.5-23,3.5-46.6-0.2-68.3
		c-9.3-55.4,7.6-95.1,53.3-125c24.2-15.8,44.5-34.3,60.5-55.1c15.1-19.6,26.7-41.9,34.6-66.2c12.7-39.1,16.3-84.4,11.4-142.4
		c-3-35.1-15-65.7-34.7-88.4c-21.9-25.3-52.4-39.4-85.9-39.8c-8.9-0.1-20.4-1.9-32.5-3.7C2522.8,77.6,2505.3,75,2487.8,75L2487.8,75
		z M2375.1,184C2375.1,184,2375.1,184,2375.1,184C2375.1,184,2375.1,184,2375.1,184L2375.1,184z"/>
</g>
<g>
	<path class="st1" d="M2378.9,1092.1c61.6,28,119.5,40.1,180.3,39.2c44.4-0.7,88.9-2.7,133.3-0.6c59.7,2.8,139.3,67.7,144.8,115
		c2.9,25.1-82.4,144.1-111,154.4c-7.2,2.6-18.3,8.5-21.7,5.7c-81.8-68.5-184.9-40.2-276.9-61.6c-73.5-17.1-142.4-43.9-212.3-73.1
		c-72.8-30.4-126.4,55.9-200.9,66.8c-113.8,16.6-235.3,1.5-340.4,66.5c-5.3,3.3-22.7-7.9-31-16c-16.8-16.3-35.3-32.9-45.5-53.3
		c-16.7-33.6-69.4-55.5-43.7-103.5c32-59.8,76.9-104.4,152.8-102.2c98.9,2.8,198.8,11.3,297.7-37.1c-20.9-8-37.7-16.5-55.5-20.9
		c-60.9-14.8-85.2-50.5-57.7-108.9c32.5-69,17.5-123.1-25.3-185.8c-109.1-160-87-294.1,57.6-420.8c19.6-17.1,40.4-33.3,62.3-47.3
		c60.2-38.5,127.4-66.7,72.7-163.6c-22.7-40.4,4-92.5,55.4-114.1c60.9-25.6,123.4-31.1,176.6,14.1c45.9,38.9,48.5,97.7,21.8,143.5
		c-31.5,53.9-8.7,66.3,33.7,88.6c45.5,24,87.8,56.5,126.4,91c137.1,122.3,148.9,277.6,29,429.8c-29.9,38-36.3,71.1-22.5,112.9
		C2526.9,1055.7,2498.6,1044.8,2378.9,1092.1z"/>
	<path class="st0" d="M2199.6,11.2c31.8,0,62.7,9.7,90.9,33.7c45.9,38.9,48.5,97.7,21.8,143.5c-31.5,53.9-8.7,66.3,33.7,88.6
		c45.5,24,87.8,56.5,126.4,91c137.1,122.3,148.9,277.6,29,429.8c-29.9,38-36.3,71.1-22.5,112.9c47.9,145.1,19.6,134.2-100.1,181.5
		c59.4,27,115.2,39.2,173.6,39.2c2.2,0,4.5,0,6.7-0.1c30.1-0.5,60.2-1.6,90.3-1.6c14.3,0,28.7,0.2,43,0.9
		c59.7,2.8,139.3,67.7,144.8,115c2.9,25.1-82.4,144.1-111,154.4c-5.9,2.1-14.4,6.4-19.1,6.4c-1.1,0-2-0.2-2.6-0.7
		c-81.8-68.5-184.9-40.2-276.9-61.6c-73.5-17.1-142.4-43.9-212.3-73.1c-10.8-4.5-21.2-6.5-31.3-6.5c-57.9,0-106.2,64-169.7,73.3
		c-113.8,16.6-235.3,1.5-340.4,66.5c-0.6,0.4-1.5,0.6-2.4,0.6c-7,0-21.3-9.5-28.6-16.6c-16.8-16.3-35.3-32.9-45.5-53.3
		c-16.7-33.6-69.4-55.5-43.7-103.5c31.2-58.4,74.8-102.3,147.5-102.3c1.7,0,3.5,0,5.3,0.1c31.8,0.9,63.7,2.4,95.6,2.4
		c67.4,0,135-6.7,202.1-39.5c-20.9-8-37.7-16.5-55.5-20.9c-60.9-14.8-85.2-50.5-57.7-108.9c32.5-69,17.5-123.1-25.3-185.8
		c-109.1-160-87-294.1,57.6-420.8c19.6-17.1,40.4-33.3,62.3-47.3c60.2-38.5,127.4-66.7,72.7-163.6c-22.7-40.4,4-92.5,55.4-114.1
		C2142.5,18.8,2171.4,11.2,2199.6,11.2 M2199.6-31.3v42.5V-31.3L2199.6-31.3L2199.6-31.3c-32,0-65.5,7.5-102.2,22.9
		c-19.8,8.3-37.1,20-51.6,34.7c-14.5,14.8-25.5,32.2-31.7,50.5c-10.4,30.4-7.8,62,7.4,88.9c21.3,37.7,13.8,50.5,11.4,54.7
		c-8,13.8-30.7,27.8-52.7,41.4c-5.6,3.5-11.4,7-17.2,10.8c-22.2,14.2-44.8,31.4-67.4,51.1c-39.3,34.4-70.7,70.1-93.3,106
		c-23.9,37.9-38.9,77.6-44.7,117.8c-5.8,40.7-2.4,82.9,10.3,125.6c12.2,41,33.4,83.9,63,127.3c39.2,57.5,44.9,95.1,22,143.7
		c-8.5,18.1-13.6,35.6-14.9,52.1c-1.6,18.7,1.5,36.2,9,51.9c6.8,14.2,17,26.6,30.5,36.9c-26.2,3.3-51.5,4-75,4
		c-22.2,0-45.2-0.8-67.3-1.5c-8.9-0.3-18-0.6-27.1-0.9c-2.2-0.1-4.3-0.1-6.5-0.1c-43.5,0-82.2,12.8-115.2,38
		c-26.7,20.5-49.6,48.8-69.9,86.8c-13.9,26.1-15.7,53.2-5,78.4c8,18.8,20.9,32.7,32.4,44.9c6.5,7,13.3,14.2,15.8,19.2
		c12.3,24.7,31.6,43.3,48.6,59.7c1.8,1.7,3.5,3.4,5.3,5.1c6,5.8,14,12,22,16.8c13.1,7.9,24.9,11.8,36.2,11.8
		c8.9,0,17.5-2.4,24.8-6.9c66.2-41,142.1-46,222.5-51.2c33.3-2.2,67.6-4.4,101.6-9.4c39.3-5.7,71.5-26.1,100-44
		c23.5-14.8,45.7-28.8,63.6-28.8c4.9,0,9.8,1,14.9,3.2c78.8,32.9,146.2,58.3,219,75.3c35,8.1,70,9.8,103.8,11.4
		c60.3,2.9,112.3,5.3,155.4,41.4c8.3,7,18.7,10.7,29.9,10.7c11.8,0,21.8-4.1,29.9-7.5c1.4-0.6,2.9-1.2,3.7-1.5
		c13.9-5,28.2-16.2,46.7-36.1c12.9-14,27-31.5,40.8-50.7c13.8-19.2,25.7-37.9,34.4-54.1c13.7-25.3,18.7-42.8,16.9-58.4
		c-2.2-18.7-10.3-38-24.2-57.4c-11.3-15.7-26.3-31.3-43.5-45c-37.6-30.1-80.3-48.4-117.3-50.1c-13.8-0.6-28.5-1-45-1
		c-19.8,0-39.8,0.5-59,0.9c-10.5,0.2-21.3,0.5-31.9,0.7c-2,0-4,0-6,0c-16.9,0-33.4-1.1-49.8-3.4c11.7-8,24.4-19.8,32.5-37.6
		c8.6-18.7,10.5-40.3,6.2-68c-3.2-20.4-10-45.8-22.1-82.4c-8.1-24.5-8-43.4,15.5-73.3c32.5-41.2,56.7-83.7,71.9-126.1
		c15.5-43.2,21.9-86.7,18.9-129.3c-3-42.6-15.3-84.2-36.7-123.6c-20.9-38.6-50.6-75.2-88.3-108.8c-47.5-42.3-91.6-74-134.9-96.9
		c-7.7-4.1-18.6-9.8-24.5-13.9c1.1-3.1,3.4-8.2,7.7-15.6c18.2-31.1,25.9-66.9,21.8-100.8c-4.6-37.7-22.8-71-52.8-96.5
		C2283.8-16.6,2244-31.3,2199.6-31.3L2199.6-31.3z"/>
</g>
<g>
	<path class="st1" d="M2168.6,802.6c-112.1,42.6-180.7,109.3-234,195c-57.8,92.8-60.9,93.7-151.8,30c-16.7-11.7-28.6-2.5-42.9-3.1
		c-108.3-4-170.4-93.1-129.1-192.4c63.7-153.2,134.1-303.5,198.7-456.3c26.4-62.5,46.4-128.4,24.4-197.5
		c-13.2-41.5,10.1-42.4,40-40.6c50.5,3,96.2,20.7,139,45.9c25.5,15,40.8,18.8,63-10.5c60.2-79.2,103.5-74.5,142.3,20.5
		c21.9,53.6,47.5,74.8,106.7,82.6c131.1,17.1,214.2,111.8,287.2,211.7c136.7,186.9,173.6,402.9,174.2,628.3
		c0.5,183.9,0.6,183.9-180.9,183.9c-196,0-391.9,0-587.9,0c-25.3,0-50.6,0-72.2,0C1936.7,1099.1,2127.8,993.1,2168.6,802.6z"/>
	<path class="st0" d="M2150,117.6c25.3,0,47.5,25,68.3,75.9c21.9,53.6,47.5,74.8,106.7,82.6c131.1,17.1,214.2,111.8,287.2,211.7
		c136.7,186.9,173.6,402.9,174.2,628.3c0.5,183.9,0.6,183.9-180.9,183.9c-196,0-391.9,0-587.9,0c-25.3,0-50.6,0-72.2,0
		c-8.6-200.9,182.5-306.9,223.4-497.4c-112.1,42.6-180.7,109.3-234,195c-31.8,51-47,74.2-69.4,74.2c-18.3,0-41.4-15.6-82.4-44.3
		c-6.6-4.6-12.4-6-17.9-6c-8.1,0-15.5,2.9-23.7,2.9c-0.4,0-0.8,0-1.2,0c-108.3-4-170.4-93.1-129.1-192.4
		c63.7-153.2,134.1-303.5,198.7-456.3c26.4-62.5,46.4-128.4,24.4-197.5c-11.1-35,3.6-41.1,26.4-41.1c4.3,0,8.8,0.2,13.6,0.5
		c50.5,3,96.2,20.7,139,45.9c11.8,6.9,21.4,11.5,30.4,11.5c10.6,0,20.6-6.2,32.6-22C2103.8,136.3,2128.1,117.6,2150,117.6
		 M2150,75.1c-20.2,0-40.6,7.6-60.4,22.5c-15.4,11.6-31,27.9-47.6,49.7c-0.8,1-1.5,1.9-2.1,2.7c-1.5-0.8-3.3-1.8-5.5-3.1
		c-53.8-31.7-105.4-48.6-158-51.7c-4.7-0.3-10.4-0.6-16.1-0.6c-10.4,0-42.2,0-61.1,25.9c-7.7,10.5-11.6,23-11.7,37.3
		c0,10,1.8,21,5.8,33.4c18.1,57-0.3,114.5-23,168.1c-29.8,70.4-61.4,141.6-92,210.5c-35.6,80.3-72.5,163.3-106.9,246
		c-12.3,29.6-17.6,59.5-15.8,88.7c1.8,28.6,10.8,56.2,25.9,79.8c32.1,50.1,89.2,80.3,156.7,82.8c0.9,0,1.9,0.1,2.8,0.1
		c8.1,0,14.8-1.3,19.8-2.2c0.3,0,0.5-0.1,0.8-0.1c42.8,30,71.7,49.7,103.5,49.7c13.1,0,25.7-3.5,37.3-10.3
		c9-5.3,17.4-12.6,25.9-22.4c12.5-14.4,24.8-33.8,42.2-61.6c34.1-54.8,72.6-96.7,119.2-129.1c-19.3,35.8-43.1,69.9-67.6,105
		c-29.9,42.8-60.7,87-83.5,135.6c-26.7,57-38.5,112.7-36,170.1l1.7,40.7h40.7h72.2h587.9c47.3,0,81.5,0,109.4-3.1
		c24.7-2.8,56.1-8.9,79.2-32.1c23.3-23.3,29.4-55,32.1-80c3-28.2,3-63,2.8-111.1l0-0.2c-0.3-128.9-12.6-239.7-37.3-338.8
		c-14.2-56.8-33-111.2-55.9-161.6c-24.4-53.9-54.5-105.4-89.2-152.9c-34.6-47.3-77-101.4-129-144.5c-57.7-47.8-118.9-75.3-187-84.2
		c-42.7-5.6-56.3-16.1-72.8-56.5c-12.4-30.4-25.5-53-40.1-69.3C2193,80.8,2167.3,75.1,2150,75.1L2150,75.1z"/>
</g>
<g>
	<path class="st1" d="M2025.6,764.2c-144.9-124.7-142.3-247.3,1.7-360.1c33.9-26.6,14.4-47.7,7-74.2c-17.7-63.8-16.8-126,39.9-171.2
		c59.9-47.8,128.8-54.5,198.4-24.1c81.3,35.6,107,109.9,73.9,202.4c-8.3,23.2-25.1,41.2,6.9,65.7c150.1,114.8,152.1,232.9,5.9,358.2
		c30.4,20.7,60.2,40.2,89.1,60.9c154.6,110.7,177.6,272.2,172.2,445.1c-1.1,36-23.8,33.8-47.8,33.8c-253.6-0.1-507.3-0.8-760.9,0.8
		c-38.8,0.2-47-13.7-48.4-49.7C1755.6,1040.4,1813.5,864.4,2025.6,764.2z"/>
	<path class="st0" d="M2189.9,116.2c27.1,0,54.9,6.2,82.8,18.5c81.3,35.6,107,109.9,73.9,202.4c-8.3,23.2-25.1,41.2,6.9,65.7
		c150.1,114.8,152.1,232.9,5.9,358.2c30.4,20.7,60.2,40.2,89.1,60.9c154.6,110.7,177.6,272.2,172.2,445.1c-1,32-18.9,33.8-39.8,33.8
		c-2.6,0-5.3,0-8.1,0c-125.5,0-251.1-0.2-376.6-0.2c-128.1,0-256.2,0.2-384.3,1c-0.3,0-0.6,0-1,0c-37.9,0-46.1-14-47.4-49.7
		c-8-211.4,50-387.3,262.1-487.5c-144.9-124.7-142.3-247.3,1.7-360.1c33.9-26.6,14.4-47.7,7-74.2c-17.7-63.8-16.8-126,39.9-171.2
		C2110.2,130.1,2149.3,116.2,2189.9,116.2 M2189.9,73.7v42.5V73.7c-25.3,0-50.3,4.4-74.1,13.1c-23.8,8.7-46.6,21.7-68,38.7
		c-34.7,27.6-55.9,62.8-63.2,104.6c-5.7,32.7-2.8,69.1,8.8,111.2c2.1,7.4,4.6,13.9,6.8,19.6c1,2.5,2.2,5.6,3,8
		c-0.6,0.5-1.2,1.1-2.1,1.7c-81.6,63.9-123.8,133.2-125.4,205.9c-0.9,38.3,9.7,76.9,31.4,114.7c12.1,21.1,27.8,42.1,47.1,63
		c-33.5,20.2-63.5,42.9-89.5,68c-37.6,36.2-68.1,78.4-90.8,125.5c-40.1,83.1-57.3,183-52.7,305.5c0.8,21.3,3.9,45.6,20.5,64.6
		c20.4,23.3,49.4,26,69.5,26c0.4,0,0.8,0,1.2,0c111.6-0.7,230-1,384.1-1c69.7,0,140.6,0.1,209.2,0.1c54.9,0,111.6,0.1,167.4,0.1
		c1.3,0,2.5,0,3.8,0c1.4,0,2.9,0,4.3,0c11,0,31.5,0,49.7-11.2c14.2-8.8,31.5-27,32.6-63.8c1.6-50,0.6-93.2-3.1-132.2
		c-4.4-47.4-12.6-89.3-25.1-128.1c-14-43.6-33.9-83.7-59.1-118.9c-27.3-38.3-61.9-72.5-102.8-101.8c-15.2-10.9-30.7-21.5-46.1-31.8
		c21.2-22.2,38.3-44.4,51.2-66.4c22-37.6,32.6-75.9,31.6-113.8c-1-37.3-13.4-74.3-36.7-109.8c-21.5-32.7-53.1-65.1-93.9-96.4
		c0.5-1.1,1-2.3,1.4-3.3c1.8-4.2,3.9-8.9,5.8-14.3c9.6-26.9,15.1-53.1,16.3-77.9c1.2-26.1-2.3-50.7-10.4-73.3
		c-16.6-46.1-52.2-82.2-102.8-104.4C2256.4,81.1,2222.8,73.7,2189.9,73.7L2189.9,73.7z"/>
</g>
<g>
	<path class="st1" d="M2025.6,764.2c-144.9-124.7-142.3-247.3,1.7-360.1c33.9-26.6,14.4-47.7,7-74.2c-17.7-63.8-16.8-126,39.9-171.2
		c59.9-47.8,128.8-54.5,198.4-24.1c81.3,35.6,107,109.9,73.9,202.4c-8.3,23.2-25.1,41.2,6.9,65.7c150.1,114.8,152.1,232.9,5.9,358.2
		c30.4,20.7,60.2,40.2,89.1,60.9c154.6,110.7,177.6,272.2,172.2,445.1c-1.1,36-23.8,33.8-47.8,33.8c-253.6-0.1-507.3-0.8-760.9,0.8
		c-38.8,0.2-47-13.7-48.4-49.7C1755.6,1040.4,1813.5,864.4,2025.6,764.2z"/>
	<path class="st0" d="M2189.9,116.2c27.1,0,54.9,6.2,82.8,18.5c81.3,35.6,107,109.9,73.9,202.4c-8.3,23.2-25.1,41.2,6.9,65.7
		c150.1,114.8,152.1,232.9,5.9,358.2c30.4,20.7,60.2,40.2,89.1,60.9c154.6,110.7,177.6,272.2,172.2,445.1c-1,32-18.9,33.8-39.8,33.8
		c-2.6,0-5.3,0-8.1,0c-125.5,0-251.1-0.2-376.6-0.2c-128.1,0-256.2,0.2-384.3,1c-0.3,0-0.6,0-1,0c-37.9,0-46.1-14-47.4-49.7
		c-8-211.4,50-387.3,262.1-487.5c-144.9-124.7-142.3-247.3,1.7-360.1c33.9-26.6,14.4-47.7,7-74.2c-17.7-63.8-16.8-126,39.9-171.2
		C2110.2,130.1,2149.3,116.2,2189.9,116.2 M2189.9,73.7v42.5V73.7c-25.3,0-50.3,4.4-74.1,13.1c-23.8,8.7-46.6,21.7-68,38.7
		c-34.7,27.6-55.9,62.8-63.2,104.6c-5.7,32.7-2.8,69.1,8.8,111.2c2.1,7.4,4.6,13.9,6.8,19.6c1,2.5,2.2,5.6,3,8
		c-0.6,0.5-1.2,1.1-2.1,1.7c-81.6,63.9-123.8,133.2-125.4,205.9c-0.9,38.3,9.7,76.9,31.4,114.7c12.1,21.1,27.8,42.1,47.1,63
		c-33.5,20.2-63.5,42.9-89.5,68c-37.6,36.2-68.1,78.4-90.8,125.5c-40.1,83.1-57.3,183-52.7,305.5c0.8,21.3,3.9,45.6,20.5,64.6
		c20.4,23.3,49.4,26,69.5,26c0.4,0,0.8,0,1.2,0c111.6-0.7,230-1,384.1-1c69.7,0,140.6,0.1,209.2,0.1c54.9,0,111.6,0.1,167.4,0.1
		c1.3,0,2.5,0,3.8,0c1.4,0,2.9,0,4.3,0c11,0,31.5,0,49.7-11.2c14.2-8.8,31.5-27,32.6-63.8c1.6-50,0.6-93.2-3.1-132.2
		c-4.4-47.4-12.6-89.3-25.1-128.1c-14-43.6-33.9-83.7-59.1-118.9c-27.3-38.3-61.9-72.5-102.8-101.8c-15.2-10.9-30.7-21.5-46.1-31.8
		c21.2-22.2,38.3-44.4,51.2-66.4c22-37.6,32.6-75.9,31.6-113.8c-1-37.3-13.4-74.3-36.7-109.8c-21.5-32.7-53.1-65.1-93.9-96.4
		c0.5-1.1,1-2.3,1.4-3.3c1.8-4.2,3.9-8.9,5.8-14.3c9.6-26.9,15.1-53.1,16.3-77.9c1.2-26.1-2.3-50.7-10.4-73.3
		c-16.6-46.1-52.2-82.2-102.8-104.4C2256.4,81.1,2222.8,73.7,2189.9,73.7L2189.9,73.7z"/>
</g>
<g>
	<path class="st1" d="M2025.6,764.2c-144.9-124.7-142.3-247.3,1.7-360.1c33.9-26.6,14.4-47.7,7-74.2c-17.7-63.8-16.8-126,39.9-171.2
		c59.9-47.8,128.8-54.5,198.4-24.1c81.3,35.6,107,109.9,73.9,202.4c-8.3,23.2-25.1,41.2,6.9,65.7c150.1,114.8,152.1,232.9,5.9,358.2
		c30.4,20.7,60.2,40.2,89.1,60.9c154.6,110.7,177.6,272.2,172.2,445.1c-1.1,36-23.8,33.8-47.8,33.8c-253.6-0.1-507.3-0.8-760.9,0.8
		c-38.8,0.2-47-13.7-48.4-49.7C1755.6,1040.4,1813.5,864.4,2025.6,764.2z"/>
	<path class="st0" d="M2189.9,116.2c27.1,0,54.9,6.2,82.8,18.5c81.3,35.6,107,109.9,73.9,202.4c-8.3,23.2-25.1,41.2,6.9,65.7
		c150.1,114.8,152.1,232.9,5.9,358.2c30.4,20.7,60.2,40.2,89.1,60.9c154.6,110.7,177.6,272.2,172.2,445.1c-1,32-18.9,33.8-39.8,33.8
		c-2.6,0-5.3,0-8.1,0c-125.5,0-251.1-0.2-376.6-0.2c-128.1,0-256.2,0.2-384.3,1c-0.3,0-0.6,0-1,0c-37.9,0-46.1-14-47.4-49.7
		c-8-211.4,50-387.3,262.1-487.5c-144.9-124.7-142.3-247.3,1.7-360.1c33.9-26.6,14.4-47.7,7-74.2c-17.7-63.8-16.8-126,39.9-171.2
		C2110.2,130.1,2149.3,116.2,2189.9,116.2 M2189.9,73.7v42.5V73.7c-25.3,0-50.3,4.4-74.1,13.1c-23.8,8.7-46.6,21.7-68,38.7
		c-34.7,27.6-55.9,62.8-63.2,104.6c-5.7,32.7-2.8,69.1,8.8,111.2c2.1,7.4,4.6,13.9,6.8,19.6c1,2.5,2.2,5.6,3,8
		c-0.6,0.5-1.2,1.1-2.1,1.7c-81.6,63.9-123.8,133.2-125.4,205.9c-0.9,38.3,9.7,76.9,31.4,114.7c12.1,21.1,27.8,42.1,47.1,63
		c-33.5,20.2-63.5,42.9-89.5,68c-37.6,36.2-68.1,78.4-90.8,125.5c-40.1,83.1-57.3,183-52.7,305.5c0.8,21.3,3.9,45.6,20.5,64.6
		c20.4,23.3,49.4,26,69.5,26c0.4,0,0.8,0,1.2,0c111.6-0.7,230-1,384.1-1c69.7,0,140.6,0.1,209.2,0.1c54.9,0,111.6,0.1,167.4,0.1
		c1.3,0,2.5,0,3.8,0c1.4,0,2.9,0,4.3,0c11,0,31.5,0,49.7-11.2c14.2-8.8,31.5-27,32.6-63.8c1.6-50,0.6-93.2-3.1-132.2
		c-4.4-47.4-12.6-89.3-25.1-128.1c-14-43.6-33.9-83.7-59.1-118.9c-27.3-38.3-61.9-72.5-102.8-101.8c-15.2-10.9-30.7-21.5-46.1-31.8
		c21.2-22.2,38.3-44.4,51.2-66.4c22-37.6,32.6-75.9,31.6-113.8c-1-37.3-13.4-74.3-36.7-109.8c-21.5-32.7-53.1-65.1-93.9-96.4
		c0.5-1.1,1-2.3,1.4-3.3c1.8-4.2,3.9-8.9,5.8-14.3c9.6-26.9,15.1-53.1,16.3-77.9c1.2-26.1-2.3-50.7-10.4-73.3
		c-16.6-46.1-52.2-82.2-102.8-104.4C2256.4,81.1,2222.8,73.7,2189.9,73.7L2189.9,73.7z"/>
</g>
<g>
	<path class="st1" d="M2025.6,764.2c-144.9-124.7-142.3-247.3,1.7-360.1c33.9-26.6,14.4-47.7,7-74.2c-17.7-63.8-16.8-126,39.9-171.2
		c59.9-47.8,128.8-54.5,198.4-24.1c81.3,35.6,107,109.9,73.9,202.4c-8.3,23.2-25.1,41.2,6.9,65.7c150.1,114.8,152.1,232.9,5.9,358.2
		c30.4,20.7,60.2,40.2,89.1,60.9c154.6,110.7,177.6,272.2,172.2,445.1c-1.1,36-23.8,33.8-47.8,33.8c-253.6-0.1-507.3-0.8-760.9,0.8
		c-38.8,0.2-47-13.7-48.4-49.7C1755.6,1040.4,1813.5,864.4,2025.6,764.2z"/>
	<path class="st0" d="M2189.9,116.2c27.1,0,54.9,6.2,82.8,18.5c81.3,35.6,107,109.9,73.9,202.4c-8.3,23.2-25.1,41.2,6.9,65.7
		c150.1,114.8,152.1,232.9,5.9,358.2c30.4,20.7,60.2,40.2,89.1,60.9c154.6,110.7,177.6,272.2,172.2,445.1c-1,32-18.9,33.8-39.8,33.8
		c-2.6,0-5.3,0-8.1,0c-125.5,0-251.1-0.2-376.6-0.2c-128.1,0-256.2,0.2-384.3,1c-0.3,0-0.6,0-1,0c-37.9,0-46.1-14-47.4-49.7
		c-8-211.4,50-387.3,262.1-487.5c-144.9-124.7-142.3-247.3,1.7-360.1c33.9-26.6,14.4-47.7,7-74.2c-17.7-63.8-16.8-126,39.9-171.2
		C2110.2,130.1,2149.3,116.2,2189.9,116.2 M2189.9,73.7v42.5V73.7c-25.3,0-50.3,4.4-74.1,13.1c-23.8,8.7-46.6,21.7-68,38.7
		c-34.7,27.6-55.9,62.8-63.2,104.6c-5.7,32.7-2.8,69.1,8.8,111.2c2.1,7.4,4.6,13.9,6.8,19.6c1,2.5,2.2,5.6,3,8
		c-0.6,0.5-1.2,1.1-2.1,1.7c-81.6,63.9-123.8,133.2-125.4,205.9c-0.9,38.3,9.7,76.9,31.4,114.7c12.1,21.1,27.8,42.1,47.1,63
		c-33.5,20.2-63.5,42.9-89.5,68c-37.6,36.2-68.1,78.4-90.8,125.5c-40.1,83.1-57.3,183-52.7,305.5c0.8,21.3,3.9,45.6,20.5,64.6
		c20.4,23.3,49.4,26,69.5,26c0.4,0,0.8,0,1.2,0c111.6-0.7,230-1,384.1-1c69.7,0,140.6,0.1,209.2,0.1c54.9,0,111.6,0.1,167.4,0.1
		c1.3,0,2.5,0,3.8,0c1.4,0,2.9,0,4.3,0c11,0,31.5,0,49.7-11.2c14.2-8.8,31.5-27,32.6-63.8c1.6-50,0.6-93.2-3.1-132.2
		c-4.4-47.4-12.6-89.3-25.1-128.1c-14-43.6-33.9-83.7-59.1-118.9c-27.3-38.3-61.9-72.5-102.8-101.8c-15.2-10.9-30.7-21.5-46.1-31.8
		c21.2-22.2,38.3-44.4,51.2-66.4c22-37.6,32.6-75.9,31.6-113.8c-1-37.3-13.4-74.3-36.7-109.8c-21.5-32.7-53.1-65.1-93.9-96.4
		c0.5-1.1,1-2.3,1.4-3.3c1.8-4.2,3.9-8.9,5.8-14.3c9.6-26.9,15.1-53.1,16.3-77.9c1.2-26.1-2.3-50.7-10.4-73.3
		c-16.6-46.1-52.2-82.2-102.8-104.4C2256.4,81.1,2222.8,73.7,2189.9,73.7L2189.9,73.7z"/>
</g>
<g>
	<path class="st1" d="M2025.6,764.2c-144.9-124.7-142.3-247.3,1.7-360.1c33.9-26.6,14.4-47.7,7-74.2c-17.7-63.8-16.8-126,39.9-171.2
		c59.9-47.8,128.8-54.5,198.4-24.1c81.3,35.6,107,109.9,73.9,202.4c-8.3,23.2-25.1,41.2,6.9,65.7c150.1,114.8,152.1,232.9,5.9,358.2
		c30.4,20.7,60.2,40.2,89.1,60.9c154.6,110.7,177.6,272.2,172.2,445.1c-1.1,36-23.8,33.8-47.8,33.8c-253.6-0.1-507.3-0.8-760.9,0.8
		c-38.8,0.2-47-13.7-48.4-49.7C1755.6,1040.4,1813.5,864.4,2025.6,764.2z"/>
	<path class="st0" d="M2189.9,116.2c27.1,0,54.9,6.2,82.8,18.5c81.3,35.6,107,109.9,73.9,202.4c-8.3,23.2-25.1,41.2,6.9,65.7
		c150.1,114.8,152.1,232.9,5.9,358.2c30.4,20.7,60.2,40.2,89.1,60.9c154.6,110.7,177.6,272.2,172.2,445.1c-1,32-18.9,33.8-39.8,33.8
		c-2.6,0-5.3,0-8.1,0c-125.5,0-251.1-0.2-376.6-0.2c-128.1,0-256.2,0.2-384.3,1c-0.3,0-0.6,0-1,0c-37.9,0-46.1-14-47.4-49.7
		c-8-211.4,50-387.3,262.1-487.5c-144.9-124.7-142.3-247.3,1.7-360.1c33.9-26.6,14.4-47.7,7-74.2c-17.7-63.8-16.8-126,39.9-171.2
		C2110.2,130.1,2149.3,116.2,2189.9,116.2 M2189.9,73.7v42.5V73.7c-25.3,0-50.3,4.4-74.1,13.1c-23.8,8.7-46.6,21.7-68,38.7
		c-34.7,27.6-55.9,62.8-63.2,104.6c-5.7,32.7-2.8,69.1,8.8,111.2c2.1,7.4,4.6,13.9,6.8,19.6c1,2.5,2.2,5.6,3,8
		c-0.6,0.5-1.2,1.1-2.1,1.7c-81.6,63.9-123.8,133.2-125.4,205.9c-0.9,38.3,9.7,76.9,31.4,114.7c12.1,21.1,27.8,42.1,47.1,63
		c-33.5,20.2-63.5,42.9-89.5,68c-37.6,36.2-68.1,78.4-90.8,125.5c-40.1,83.1-57.3,183-52.7,305.5c0.8,21.3,3.9,45.6,20.5,64.6
		c20.4,23.3,49.4,26,69.5,26c0.4,0,0.8,0,1.2,0c111.6-0.7,230-1,384.1-1c69.7,0,140.6,0.1,209.2,0.1c54.9,0,111.6,0.1,167.4,0.1
		c1.3,0,2.5,0,3.8,0c1.4,0,2.9,0,4.3,0c11,0,31.5,0,49.7-11.2c14.2-8.8,31.5-27,32.6-63.8c1.6-50,0.6-93.2-3.1-132.2
		c-4.4-47.4-12.6-89.3-25.1-128.1c-14-43.6-33.9-83.7-59.1-118.9c-27.3-38.3-61.9-72.5-102.8-101.8c-15.2-10.9-30.7-21.5-46.1-31.8
		c21.2-22.2,38.3-44.4,51.2-66.4c22-37.6,32.6-75.9,31.6-113.8c-1-37.3-13.4-74.3-36.7-109.8c-21.5-32.7-53.1-65.1-93.9-96.4
		c0.5-1.1,1-2.3,1.4-3.3c1.8-4.2,3.9-8.9,5.8-14.3c9.6-26.9,15.1-53.1,16.3-77.9c1.2-26.1-2.3-50.7-10.4-73.3
		c-16.6-46.1-52.2-82.2-102.8-104.4C2256.4,81.1,2222.8,73.7,2189.9,73.7L2189.9,73.7z"/>
</g>
<g>
	<path class="st1" d="M2025.6,764.2c-144.9-124.7-142.3-247.3,1.7-360.1c33.9-26.6,14.4-47.7,7-74.2c-17.7-63.8-16.8-126,39.9-171.2
		c59.9-47.8,128.8-54.5,198.4-24.1c81.3,35.6,107,109.9,73.9,202.4c-8.3,23.2-25.1,41.2,6.9,65.7c150.1,114.8,152.1,232.9,5.9,358.2
		c30.4,20.7,60.2,40.2,89.1,60.9c154.6,110.7,177.6,272.2,172.2,445.1c-1.1,36-23.8,33.8-47.8,33.8c-253.6-0.1-507.3-0.8-760.9,0.8
		c-38.8,0.2-47-13.7-48.4-49.7C1755.6,1040.4,1813.5,864.4,2025.6,764.2z"/>
	<path class="st0" d="M2189.9,116.2c27.1,0,54.9,6.2,82.8,18.5c81.3,35.6,107,109.9,73.9,202.4c-8.3,23.2-25.1,41.2,6.9,65.7
		c150.1,114.8,152.1,232.9,5.9,358.2c30.4,20.7,60.2,40.2,89.1,60.9c154.6,110.7,177.6,272.2,172.2,445.1c-1,32-18.9,33.8-39.8,33.8
		c-2.6,0-5.3,0-8.1,0c-125.5,0-251.1-0.2-376.6-0.2c-128.1,0-256.2,0.2-384.3,1c-0.3,0-0.6,0-1,0c-37.9,0-46.1-14-47.4-49.7
		c-8-211.4,50-387.3,262.1-487.5c-144.9-124.7-142.3-247.3,1.7-360.1c33.9-26.6,14.4-47.7,7-74.2c-17.7-63.8-16.8-126,39.9-171.2
		C2110.2,130.1,2149.3,116.2,2189.9,116.2 M2189.9,73.7v42.5V73.7c-25.3,0-50.3,4.4-74.1,13.1c-23.8,8.7-46.6,21.7-68,38.7
		c-34.7,27.6-55.9,62.8-63.2,104.6c-5.7,32.7-2.8,69.1,8.8,111.2c2.1,7.4,4.6,13.9,6.8,19.6c1,2.5,2.2,5.6,3,8
		c-0.6,0.5-1.2,1.1-2.1,1.7c-81.6,63.9-123.8,133.2-125.4,205.9c-0.9,38.3,9.7,76.9,31.4,114.7c12.1,21.1,27.8,42.1,47.1,63
		c-33.5,20.2-63.5,42.9-89.5,68c-37.6,36.2-68.1,78.4-90.8,125.5c-40.1,83.1-57.3,183-52.7,305.5c0.8,21.3,3.9,45.6,20.5,64.6
		c20.4,23.3,49.4,26,69.5,26c0.4,0,0.8,0,1.2,0c111.6-0.7,230-1,384.1-1c69.7,0,140.6,0.1,209.2,0.1c54.9,0,111.6,0.1,167.4,0.1
		c1.3,0,2.5,0,3.8,0c1.4,0,2.9,0,4.3,0c11,0,31.5,0,49.7-11.2c14.2-8.8,31.5-27,32.6-63.8c1.6-50,0.6-93.2-3.1-132.2
		c-4.4-47.4-12.6-89.3-25.1-128.1c-14-43.6-33.9-83.7-59.1-118.9c-27.3-38.3-61.9-72.5-102.8-101.8c-15.2-10.9-30.7-21.5-46.1-31.8
		c21.2-22.2,38.3-44.4,51.2-66.4c22-37.6,32.6-75.9,31.6-113.8c-1-37.3-13.4-74.3-36.7-109.8c-21.5-32.7-53.1-65.1-93.9-96.4
		c0.5-1.1,1-2.3,1.4-3.3c1.8-4.2,3.9-8.9,5.8-14.3c9.6-26.9,15.1-53.1,16.3-77.9c1.2-26.1-2.3-50.7-10.4-73.3
		c-16.6-46.1-52.2-82.2-102.8-104.4C2256.4,81.1,2222.8,73.7,2189.9,73.7L2189.9,73.7z"/>
</g>
<g>
	<path class="st1" d="M2025.6,764.2c-144.9-124.7-142.3-247.3,1.7-360.1c33.9-26.6,14.4-47.7,7-74.2c-17.7-63.8-16.8-126,39.9-171.2
		c59.9-47.8,128.8-54.5,198.4-24.1c81.3,35.6,107,109.9,73.9,202.4c-8.3,23.2-25.1,41.2,6.9,65.7c150.1,114.8,152.1,232.9,5.9,358.2
		c30.4,20.7,60.2,40.2,89.1,60.9c154.6,110.7,177.6,272.2,172.2,445.1c-1.1,36-23.8,33.8-47.8,33.8c-253.6-0.1-507.3-0.8-760.9,0.8
		c-38.8,0.2-47-13.7-48.4-49.7C1755.6,1040.4,1813.5,864.4,2025.6,764.2z"/>
	<path class="st0" d="M2189.9,116.2c27.1,0,54.9,6.2,82.8,18.5c81.3,35.6,107,109.9,73.9,202.4c-8.3,23.2-25.1,41.2,6.9,65.7
		c150.1,114.8,152.1,232.9,5.9,358.2c30.4,20.7,60.2,40.2,89.1,60.9c154.6,110.7,177.6,272.2,172.2,445.1c-1,32-18.9,33.8-39.8,33.8
		c-2.6,0-5.3,0-8.1,0c-125.5,0-251.1-0.2-376.6-0.2c-128.1,0-256.2,0.2-384.3,1c-0.3,0-0.6,0-1,0c-37.9,0-46.1-14-47.4-49.7
		c-8-211.4,50-387.3,262.1-487.5c-144.9-124.7-142.3-247.3,1.7-360.1c33.9-26.6,14.4-47.7,7-74.2c-17.7-63.8-16.8-126,39.9-171.2
		C2110.2,130.1,2149.3,116.2,2189.9,116.2 M2189.9,73.7v42.5V73.7c-25.3,0-50.3,4.4-74.1,13.1c-23.8,8.7-46.6,21.7-68,38.7
		c-34.7,27.6-55.9,62.8-63.2,104.6c-5.7,32.7-2.8,69.1,8.8,111.2c2.1,7.4,4.6,13.9,6.8,19.6c1,2.5,2.2,5.6,3,8
		c-0.6,0.5-1.2,1.1-2.1,1.7c-81.6,63.9-123.8,133.2-125.4,205.9c-0.9,38.3,9.7,76.9,31.4,114.7c12.1,21.1,27.8,42.1,47.1,63
		c-33.5,20.2-63.5,42.9-89.5,68c-37.6,36.2-68.1,78.4-90.8,125.5c-40.1,83.1-57.3,183-52.7,305.5c0.8,21.3,3.9,45.6,20.5,64.6
		c20.4,23.3,49.4,26,69.5,26c0.4,0,0.8,0,1.2,0c111.6-0.7,230-1,384.1-1c69.7,0,140.6,0.1,209.2,0.1c54.9,0,111.6,0.1,167.4,0.1
		c1.3,0,2.5,0,3.8,0c1.4,0,2.9,0,4.3,0c11,0,31.5,0,49.7-11.2c14.2-8.8,31.5-27,32.6-63.8c1.6-50,0.6-93.2-3.1-132.2
		c-4.4-47.4-12.6-89.3-25.1-128.1c-14-43.6-33.9-83.7-59.1-118.9c-27.3-38.3-61.9-72.5-102.8-101.8c-15.2-10.9-30.7-21.5-46.1-31.8
		c21.2-22.2,38.3-44.4,51.2-66.4c22-37.6,32.6-75.9,31.6-113.8c-1-37.3-13.4-74.3-36.7-109.8c-21.5-32.7-53.1-65.1-93.9-96.4
		c0.5-1.1,1-2.3,1.4-3.3c1.8-4.2,3.9-8.9,5.8-14.3c9.6-26.9,15.1-53.1,16.3-77.9c1.2-26.1-2.3-50.7-10.4-73.3
		c-16.6-46.1-52.2-82.2-102.8-104.4C2256.4,81.1,2222.8,73.7,2189.9,73.7L2189.9,73.7z"/>
</g>
<g>
	<path class="st1" d="M542.6,764.2C397.7,639.5,400.3,517,544.3,404.1c33.9-26.6,14.4-47.7,7-74.2c-17.7-63.8-16.8-126,39.9-171.2
		c59.9-47.8,128.8-54.5,198.4-24.1c81.3,35.6,107,109.9,73.9,202.4c-8.3,23.2-25.1,41.2,6.9,65.7c150.1,114.8,152.1,232.9,5.9,358.2
		c30.4,20.7,60.2,40.2,89.1,60.9c154.6,110.7,177.6,272.2,172.2,445.1c-1.1,36-23.8,33.8-47.8,33.8c-253.6-0.1-507.3-0.8-760.9,0.8
		c-38.8,0.2-47-13.7-48.4-49.7C272.6,1040.4,330.5,864.4,542.6,764.2z"/>
	<path class="st0" d="M706.9,116.2c27.1,0,54.9,6.2,82.8,18.5c81.3,35.6,107,109.9,73.9,202.4c-8.3,23.2-25.1,41.2,6.9,65.7
		c150.1,114.8,152.1,232.9,5.9,358.2c30.4,20.7,60.2,40.2,89.1,60.9c154.6,110.7,177.6,272.2,172.2,445.1c-1,32-18.9,33.8-39.8,33.8
		c-2.6,0-5.3,0-8.1,0c-125.5,0-251.1-0.2-376.6-0.2c-128.1,0-256.2,0.2-384.3,1c-0.3,0-0.6,0-1,0c-37.9,0-46.1-14-47.4-49.7
		c-8-211.4,50-387.3,262.1-487.5C397.7,639.5,400.3,517,544.3,404.1c33.9-26.6,14.4-47.7,7-74.2c-17.7-63.8-16.8-126,39.9-171.2
		C627.2,130.1,666.3,116.2,706.9,116.2 M706.9,73.7v42.5V73.7c-25.3,0-50.3,4.4-74.1,13.1c-23.8,8.7-46.6,21.7-68,38.7
		c-34.7,27.6-55.9,62.8-63.2,104.6c-5.7,32.7-2.8,69.1,8.8,111.2c2.1,7.4,4.6,13.9,6.8,19.6c1,2.5,2.2,5.6,3,8
		c-0.6,0.5-1.2,1.1-2.1,1.7c-81.6,63.9-123.8,133.2-125.4,205.9c-0.9,38.3,9.7,76.9,31.4,114.7c12.1,21.1,27.8,42.1,47.1,63
		c-33.5,20.2-63.5,42.9-89.5,68c-37.6,36.2-68.1,78.4-90.8,125.5c-40.1,83.1-57.3,183-52.7,305.5c0.8,21.3,3.9,45.6,20.5,64.6
		c20.4,23.3,49.4,26,69.5,26c0.4,0,0.8,0,1.2,0c111.6-0.7,230-1,384.1-1c69.7,0,140.6,0.1,209.2,0.1c54.9,0,111.6,0.1,167.4,0.1
		c1.3,0,2.5,0,3.8,0c1.4,0,2.9,0,4.3,0c11,0,31.5,0,49.7-11.2c14.2-8.8,31.5-27,32.6-63.8c1.6-50,0.6-93.2-3.1-132.2
		c-4.4-47.4-12.6-89.3-25.1-128.1c-14-43.6-33.9-83.7-59.1-118.9c-27.3-38.3-61.9-72.5-102.8-101.8c-15.2-10.9-30.7-21.5-46.1-31.8
		c21.2-22.2,38.3-44.4,51.2-66.4c22-37.6,32.6-75.9,31.6-113.8c-1-37.3-13.4-74.3-36.7-109.8c-21.5-32.7-53.1-65.1-93.9-96.4
		c0.5-1.1,1-2.3,1.4-3.3c1.8-4.2,3.9-8.9,5.8-14.3c9.6-26.9,15.1-53.1,16.3-77.9c1.2-26.1-2.3-50.7-10.4-73.3
		c-16.6-46.1-52.2-82.2-102.8-104.4C773.4,81.1,739.8,73.7,706.9,73.7L706.9,73.7z"/>
</g>
</svg>
