<?xml version="1.0" encoding="utf-8"?>
<!-- Generator: Adobe Illustrator 22.0.0, SVG Export Plug-In . SVG Version: 6.00 Build 0)  -->
<svg version="1.1" id="Слой_1" xmlns="http://www.w3.org/2000/svg" xmlns:xlink="http://www.w3.org/1999/xlink" x="0px" y="0px"
	 viewBox="0 0 100 100" style="enable-background:new 0 0 100 100;" xml:space="preserve">
<style type="text/css">
	.st0{fill:#FFFFFF;}
</style>
<g>
	<path class="st0" d="M5,14c-2.6,1.4-4.4,4.2-4.4,7.4c0,4.7,3.8,8.4,8.4,8.4c3.2,0,6-1.8,7.4-4.4c0.3-0.5,0.5-1.1,0.7-1.7h14.3
		c13.6,0,24.8,10.3,26.3,23.5H16.9c0-0.1,0-0.1-0.1-0.2c-0.8-1.9-2.4-3.5-4.4-4.4c-1-0.5-2.2-0.7-3.4-0.7c-1.5,0-2.8,0.4-4,1
		c-2.6,1.4-4.4,4.2-4.4,7.4c0,4.7,3.8,8.4,8.4,8.4c3.2,0,6-1.8,7.4-4.4c0.1-0.3,0.3-0.6,0.4-0.8h40.8c-1.7,12.9-12.8,22.9-26.2,22.9
		H17c-0.1-0.2-0.1-0.3-0.2-0.5c-0.8-1.9-2.4-3.5-4.4-4.4c-1-0.5-2.2-0.7-3.4-0.7c-1.5,0-2.8,0.4-4,1c-2.6,1.4-4.4,4.2-4.4,7.4
		c0,4.7,3.8,8.4,8.4,8.4c3.2,0,6-1.8,7.4-4.4c0.1-0.2,0.2-0.4,0.3-0.6h14.7c16.9,0,30.9-12.9,32.6-29.3h19.7
		c1.3,3.1,4.3,5.2,7.8,5.2c3.2,0,6-1.8,7.4-4.4c0.7-1.2,1-2.6,1-4c0-1.2-0.2-2.3-0.7-3.4c-0.8-1.9-2.4-3.5-4.4-4.4
		c-1-0.5-2.2-0.7-3.4-0.7c-1.5,0-2.8,0.4-4,1c-1.7,0.9-3,2.4-3.7,4.2H64.1c-1.5-16.7-15.6-29.9-32.7-29.9h-15
		c-0.9-1.6-2.3-2.9-4-3.7c-1-0.5-2.2-0.7-3.4-0.7C7.6,13,6.2,13.4,5,14z"/>
</g>
</svg>
