<?xml version="1.0" encoding="utf-8"?>
<!-- Generator: Adobe Illustrator 22.0.0, SVG Export Plug-In . SVG Version: 6.00 Build 0)  -->
<svg version="1.1" id="Слой_1" xmlns="http://www.w3.org/2000/svg" xmlns:xlink="http://www.w3.org/1999/xlink" x="0px" y="0px"
	 viewBox="0 0 100 100" style="enable-background:new 0 0 100 100;" xml:space="preserve">
<style type="text/css">
	.st0{fill:#FFFFFF;}
</style>
<g>
	<path class="st0" d="M80.6,75.6l8.3-8.3c0.5-0.5,0.5-1.4,0-2L86,62.4c-0.5-0.5-1.4-0.5-2,0l-3.1,3.1l-14.4-15l31.4-30.2L100.2,0
		L80,2.3L50.1,33.3L20.3,2.3L0.1,0l2.3,20.2l31.4,30.2l-14.4,15l-3.1-3.1c-0.5-0.5-1.4-0.5-2,0l-2.9,2.9c-0.5,0.5-0.5,1.4,0,2
		l8.3,8.3L0.5,94.8c-0.5,0.5-0.5,1.3,0,1.8l3.1,3.1c0.5,0.5,1.3,0.5,1.8,0l19.2-19.2l8.3,8.3c0.5,0.5,1.4,0.5,2,0l2.9-2.9
		c0.5-0.5,0.5-1.4,0-2l-3.1-3.1l15.4-14.8l15.4,14.8l-3.1,3.1c-0.5,0.5-0.5,1.4,0,2l2.9,2.9c0.5,0.5,1.4,0.5,2,0l8.3-8.3l19.2,19.2
		c0.5,0.5,1.3,0.5,1.8,0l3.1-3.1c0.5-0.5,0.5-1.3,0-1.8L80.6,75.6z"/>
</g>
</svg>
