<?xml version="1.0" encoding="utf-8"?>
<!-- Generator: Adobe Illustrator 22.0.0, SVG Export Plug-In . SVG Version: 6.00 Build 0)  -->
<svg version="1.1" id="Слой_1" xmlns="http://www.w3.org/2000/svg" xmlns:xlink="http://www.w3.org/1999/xlink" x="0px" y="0px"
	 viewBox="0 0 1417.3 1417.3" style="enable-background:new 0 0 1417.3 1417.3;" xml:space="preserve">
<style type="text/css">
	.st0{fill:#22B573;}
</style>
<path class="st0" d="M1306.8,786.6c3.4-5.5,7.4-10.6,11.1-15.9c10.3-14.9,18.1-30.8,20.7-48.9c1.3-8.6,1-16.9-1.4-25.4
	c-9.3-33-23.7-63.3-45.5-89.9c-15.5-18.9-34-34.1-55.6-45.7c-9.9-5.3-20.8-7.2-31.6-9.3c-41-8.1-82.6-10.1-124.3-10.3
	c-15.2-0.1-30.4,0-45.7-0.1c-13.5-0.2-27-0.9-40.5-0.9c-20.3,0-40.7,0.3-61,0.6c-9.5,0.1-19,0.6-28.5,0.9c-1.7,0-3.3-0.2-5.3-0.3
	c0.2-7,1.8-13.4,3.6-19.7c4.2-15.5,10.8-30,17-44.7c11.5-26.9,25.9-52.5,38.7-78.8c16.5-34.1,28.4-69.7,34.5-107.1
	c5.6-34.1,5.7-68.1-0.2-102.2c-2.8-16-5.6-31.8-11.8-46.9c-21.1-51.8-57-88.7-109.8-108.4c-12.7-4.7-25.9-7.6-39.4-8.6
	c-1.3-0.1-2.5-0.6-3.8-0.9c-7.6,0-15.2,0-22.8,0c-7.7,0.8-14.5,4.2-21.5,7c-4.2,1.7-8.3,3.7-12.2,6.2c-10.3,6.7-17.6,15.6-19.6,28.1
	c-0.5,3-0.5,6.1-0.8,9.1c-2.9,27.2-5.7,54.5-8.7,81.7c-2.6,23.1-6.1,46-11.1,68.6c-4.9,22.3-12.2,43.9-20.4,65.2
	c-6.4,16.7-15.4,31.4-28,43.8c-10.3,10.1-21.1,19.7-32,29.2c-16.4,14.2-33.2,27.9-47.8,44c-11.3,12.5-21.3,25.7-27.9,41.4
	c-6.3,15.1-13.4,29.8-20.1,44.7c-16.7,37.3-32.7,74.9-51.4,111.3c-15.3,29.6-32.6,58-53.1,84.4c-10.5,13.5-22.5,25.3-37.9,33.2
	c-7.5,3.9-15.5,6.3-24,6.3c-2.2,0-3.9-0.5-5.6-2.2c-18.3-18.5-40.7-26.2-66.5-26c-49.3,0.4-98.6,0.1-147.8,0.1
	c-3.8,0-7.6,0.1-11.4,0.3c-40,2.8-73.1,33.9-78.3,73.6c-0.5,3.7-1.4,7.4-2.1,11.1c0,165.5,0,331,0,496.6c0.7,3.5,1.6,7,2.1,10.6
	c5.4,41.6,41.5,73.7,83.5,73.9c53.1,0.2,106.1,0.1,159.2,0c26.3,0,47.9-10.4,65.3-29.9c1-1.1,2-2.3,3-3.4c0.1-0.1,0.3-0.2,0.9-0.5
	c10,1.9,20.5,3.8,30.9,5.7c36.6,6.7,73.3,13.4,109.9,20.3c17.5,3.3,34.9,7.6,52.5,10.6c25.1,4.2,50.3,8.1,75.6,11
	c28.9,3.3,57.9,5.7,86.9,7.5c28.8,1.9,57.8,2.7,86.6,3.8c21.1,0.8,42.2,1.9,63.3,2c41.6,0.2,83.3,2,124.9-0.9
	c38.6-2.7,76.1-10.1,111.2-27.2c2.2-1.1,4.5-2.1,6.5-3.5c19.2-13.4,38.3-26.9,55.2-43.2c17.9-17.3,32.1-37,39.3-61.2
	c4.8-16.3,6.1-32.8,2.3-49.6c-1.6-7.4-0.9-14.6,3.9-20.6c6.2-7.9,12.6-15.7,19.5-23c11.2-11.9,22.9-23.3,33-36.3
	c18.7-24.2,23.7-50.9,15.2-80.1c-2.6-8.9-6.3-17.5-9.6-26.2c-3-7.6-6.2-15.1-9.3-22.7c-0.9-2.3-1.4-4.7-2.2-7.1
	c-1.8-5.6-0.7-9.8,4-14.1c16.5-14.8,29.7-32.1,37.6-53c14.9-39.6,6.7-75-20.5-106.6c-2.2-2.6-4.6-5-7.1-7.5
	c-2.5-2.4-3.1-5.3-1.7-8.3C1301.2,797,1303.7,791.6,1306.8,786.6z"/>
</svg>
