<?xml version="1.0" encoding="utf-8"?>
<!-- Generator: Adobe Illustrator 22.0.0, SVG Export Plug-In . SVG Version: 6.00 Build 0)  -->
<svg version="1.1" id="Слой_1" xmlns="http://www.w3.org/2000/svg" xmlns:xlink="http://www.w3.org/1999/xlink" x="0px" y="0px"
	 viewBox="0 0 100 100" style="enable-background:new 0 0 100 100;" xml:space="preserve">
<style type="text/css">
	.st0{fill:#FFFFFF;}
</style>
<g>
	<g>
		<g>
			<g>
				<rect x="8.3" y="23.2" class="st0" width="19" height="19"/>
			</g>
			<g>
				<rect x="27.3" y="42.2" class="st0" width="19" height="19"/>
			</g>
		</g>
		<g>
			<path class="st0" d="M41.4,68.4H13.3C6.6,68.4,1.1,63,1.1,56.3V28.2C1.1,21.5,6.6,16,13.3,16h28.1c6.7,0,12.2,5.5,12.2,12.2v28.1
				C53.6,63,48.1,68.4,41.4,68.4z M13.3,20.6c-4.2,0-7.6,3.4-7.6,7.6v28.1c0,4.2,3.4,7.6,7.6,7.6h28.1c4.2,0,7.6-3.4,7.6-7.6V28.2
				c0-4.2-3.4-7.6-7.6-7.6H13.3z"/>
		</g>
	</g>
	<path class="st0" d="M94.9,33.2H63.8c-2.3,0-4.1-1.8-4.1-4.1s1.8-4.1,4.1-4.1h31.1c2.3,0,4.1,1.8,4.1,4.1S97.2,33.2,94.9,33.2z"/>
	<path class="st0" d="M94.9,58.7H63.8c-2.3,0-4.1-1.8-4.1-4.1s1.8-4.1,4.1-4.1h31.1c2.3,0,4.1,1.8,4.1,4.1S97.2,58.7,94.9,58.7z"/>
	<path class="st0" d="M94.9,84.3H5.5c-2.3,0-4.1-1.8-4.1-4.1S3.3,76,5.5,76h89.3c2.3,0,4.1,1.8,4.1,4.1S97.2,84.3,94.9,84.3z"/>
</g>
</svg>
