<?xml version="1.0" encoding="utf-8"?>
<!-- Generator: Adobe Illustrator 22.0.0, SVG Export Plug-In . SVG Version: 6.00 Build 0)  -->
<svg version="1.1" id="Слой_1" xmlns="http://www.w3.org/2000/svg" xmlns:xlink="http://www.w3.org/1999/xlink" x="0px" y="0px"
	 viewBox="0 0 100 100" style="enable-background:new 0 0 100 100;" xml:space="preserve">
<style type="text/css">
	.st0{fill:#FFFFFF;}
</style>
<path class="st0" d="M62.1,87.1h-5.6V29.2c0-0.1,0-0.2,0-0.3c0-0.1,0-0.2,0-0.3c0-3.6-2.9-6.4-6.4-6.4H38.2c-3.6,0-6.4,2.9-6.4,6.4
	c0,3.6,2.9,6.4,6.4,6.4h5.4v52.1h-5.4c-3.6,0-6.4,2.9-6.4,6.4c0,3.6,2.9,6.4,6.4,6.4h23.9c3.6,0,6.4-2.9,6.4-6.4
	C68.5,90,65.6,87.1,62.1,87.1z"/>
<path class="st0" d="M50.1,16.6c3.6,0,6.4-2.9,6.4-6.4V6.4c0-3.6-2.9-6.4-6.4-6.4c-3.6,0-6.4,2.9-6.4,6.4v3.7
	C43.6,13.7,46.5,16.6,50.1,16.6z"/>
</svg>
