<?xml version="1.0" encoding="utf-8"?>
<!-- Generator: Adobe Illustrator 22.0.0, SVG Export Plug-In . SVG Version: 6.00 Build 0)  -->
<svg version="1.1" id="Слой_1" xmlns="http://www.w3.org/2000/svg" xmlns:xlink="http://www.w3.org/1999/xlink" x="0px" y="0px"
	 viewBox="0 0 500 500" style="enable-background:new 0 0 500 500;" xml:space="preserve">
<style type="text/css">
	.st0{fill:#006837;}
	.st1{fill:#FFFFFF;}
</style>
<g>
	<path class="st0" d="M240.6,66.9v113.7H126.9V66.9H240.6 M254,53.5H113.5V194H254V53.5L254,53.5z"/>
	<path class="st1" d="M240.6,216.3V314H143v-97.7H240.6 M254,202.9H129.6v124.4H254V202.9L254,202.9z"/>
	<path class="st1" d="M374,83v97.7h-97.7V83H374 M387.3,69.6H262.9V194h124.4V69.6L387.3,69.6z"/>
	<path class="st0" d="M374,216.3V314h-97.7v-97.7H374 M387.3,202.9H262.9v124.4h124.4V202.9L387.3,202.9z"/>
</g>
<path class="st0" d="M49.2,424.8c0,6.5-2,11.8-6.1,16.1c-4.1,4.3-9.3,6.4-15.8,6.4c-6.3,0-11.5-2.1-15.5-6.4c-4-4.3-6-9.6-6-16.1
	v-9.5c0-6.4,2-11.8,5.9-16.1c4-4.3,9.1-6.4,15.5-6.4c6.5,0,11.7,2.1,15.8,6.4c4.1,4.3,6.1,9.6,6.1,16.1V424.8z M40.4,415.2
	c0-4.4-1.2-8-3.5-10.9c-2.4-2.8-5.5-4.3-9.6-4.3c-3.9,0-7,1.4-9.2,4.3c-2.2,2.8-3.4,6.5-3.4,10.9v9.6c0,4.5,1.1,8.1,3.4,11
	c2.3,2.8,5.3,4.3,9.2,4.3c4,0,7.2-1.4,9.6-4.3c2.3-2.8,3.5-6.5,3.5-11V415.2z"/>
<path class="st0" d="M65.7,407.2l0.5,5.7c1.3-2,2.9-3.6,4.9-4.7c2-1.1,4.2-1.7,6.6-1.7c4.1,0,7.3,1.3,9.6,3.8
	c2.3,2.5,3.4,6.5,3.4,11.8v24.5h-8.8v-24.4c0-3.1-0.6-5.2-1.8-6.5c-1.2-1.3-3-1.9-5.4-1.9c-1.9,0-3.5,0.4-4.9,1.1
	c-1.4,0.7-2.5,1.7-3.3,3v28.8h-8.8v-39.3H65.7z"/>
<path class="st0" d="M109.3,446.5h-8.8v-56.7h8.8V446.5z"/>
<path class="st0" d="M128.6,397.6h-8.8v-7.7h8.8V397.6z M128.6,446.5h-8.8v-39.3h8.8V446.5z"/>
<path class="st0" d="M146.5,407.2l0.5,5.7c1.3-2,2.9-3.6,4.9-4.7c2-1.1,4.2-1.7,6.6-1.7c4.1,0,7.3,1.3,9.6,3.8
	c2.3,2.5,3.4,6.5,3.4,11.8v24.5h-8.8v-24.4c0-3.1-0.6-5.2-1.8-6.5c-1.2-1.3-3-1.9-5.4-1.9c-1.9,0-3.5,0.4-4.9,1.1
	c-1.4,0.7-2.5,1.7-3.3,3v28.8h-8.8v-39.3H146.5z"/>
<path class="st0" d="M197.4,447.3c-5.7,0-10.2-1.8-13.5-5.4c-3.2-3.6-4.9-8.3-4.9-14.1v-1.5c0-5.8,1.6-10.5,4.9-14.3
	c3.2-3.7,7.4-5.6,12.5-5.6c5.3,0,9.3,1.6,12,4.9c2.7,3.3,4.1,7.6,4.1,13.1v4.8h-24.3l-0.1,0.2c0.1,3.2,0.9,5.8,2.5,7.9
	c1.6,2,4,3,7.2,3c2.4,0,4.5-0.3,6.2-0.9c1.8-0.6,3.4-1.4,4.9-2.5l2.9,5.8c-1.5,1.3-3.5,2.4-6,3.3
	C203.4,446.9,200.6,447.3,197.4,447.3z M196.4,413.6c-2.3,0-4.1,0.8-5.5,2.5c-1.4,1.7-2.2,3.8-2.6,6.5l0.1,0.2h15.4V422
	c0-2.5-0.6-4.6-1.8-6.1C200.8,414.3,199,413.6,196.4,413.6z"/>
<path class="st1" d="M227,426.3c0-5.8,1.6-10.5,4.8-14.3c3.2-3.7,7.4-5.6,12.6-5.6c5.3,0,9.5,1.9,12.7,5.6c3.2,3.7,4.8,8.5,4.8,14.3
	v1.2c0,5.8-1.6,10.6-4.7,14.3c-3.2,3.7-7.4,5.5-12.6,5.5c-5.3,0-9.5-1.8-12.7-5.5c-3.2-3.7-4.8-8.5-4.8-14.3V426.3z M231.4,427.5
	c0,4.6,1.2,8.4,3.5,11.5c2.3,3.1,5.5,4.7,9.6,4.7c4,0,7.2-1.6,9.5-4.7c2.3-3.1,3.5-6.9,3.5-11.5v-1.2c0-4.5-1.2-8.3-3.5-11.4
	c-2.3-3.1-5.5-4.7-9.6-4.7s-7.3,1.6-9.6,4.7c-2.3,3.1-3.5,6.9-3.5,11.4V427.5z"/>
<path class="st1" d="M274.8,407.2l0.4,6.8c1.3-2.4,3-4.3,5.1-5.6c2.1-1.3,4.7-2,7.6-2c4.3,0,7.5,1.3,9.7,3.9
	c2.2,2.6,3.3,6.7,3.3,12.2v24h-4.4v-23.9c0-4.5-0.8-7.7-2.5-9.6c-1.7-1.9-4.1-2.8-7.2-2.8c-3.1,0-5.6,0.8-7.5,2.3
	c-1.9,1.5-3.3,3.6-4.1,6.1v27.9h-4.4v-39.3H274.8z"/>
<path class="st1" d="M349.2,428c0,5.9-1.3,10.6-4,14.1c-2.7,3.5-6.3,5.3-11,5.3c-2.9,0-5.3-0.6-7.4-1.7c-2.1-1.2-3.8-2.8-5.1-4.9
	l-0.7,5.9h-3.4v-56.7h4.4v23.4c1.3-2.2,3-3.8,5-5c2-1.2,4.4-1.8,7.2-1.8c4.7,0,8.4,1.9,11.1,5.7c2.7,3.8,4,8.8,4,15.1V428z
	 M344.8,427.2c0-5-1-9.1-2.9-12.2c-1.9-3.1-4.8-4.7-8.6-4.7c-3,0-5.4,0.7-7.3,2.2c-1.8,1.5-3.2,3.4-4.1,5.7v18
	c1,2.3,2.4,4.1,4.3,5.4c1.9,1.3,4.3,2,7.2,2c3.8,0,6.7-1.4,8.6-4.2c1.9-2.8,2.9-6.6,2.9-11.3V427.2z"/>
<path class="st1" d="M356.5,426.3c0-5.8,1.6-10.5,4.8-14.3c3.2-3.7,7.4-5.6,12.6-5.6c5.3,0,9.5,1.9,12.7,5.6
	c3.2,3.7,4.8,8.5,4.8,14.3v1.2c0,5.8-1.6,10.6-4.7,14.3c-3.2,3.7-7.4,5.5-12.6,5.5c-5.3,0-9.5-1.8-12.7-5.5
	c-3.2-3.7-4.8-8.5-4.8-14.3V426.3z M360.9,427.5c0,4.6,1.2,8.4,3.5,11.5c2.3,3.1,5.5,4.7,9.6,4.7c4,0,7.2-1.6,9.5-4.7
	c2.3-3.1,3.5-6.9,3.5-11.5v-1.2c0-4.5-1.2-8.3-3.5-11.4c-2.3-3.1-5.5-4.7-9.6-4.7c-4.1,0-7.3,1.6-9.6,4.7c-2.3,3.1-3.5,6.9-3.5,11.4
	V427.5z"/>
<path class="st1" d="M425.3,446.5c-0.3-1.4-0.5-2.6-0.6-3.6c-0.1-1-0.2-2-0.2-3.1c-1.4,2.1-3.3,3.9-5.7,5.3
	c-2.4,1.4-5.3,2.1-8.4,2.1c-3.9,0-6.8-1-9-3.1c-2.1-2-3.2-4.8-3.2-8.3c0-3.5,1.5-6.4,4.6-8.5c3.1-2.2,7.1-3.3,12-3.3h9.7v-4.9
	c0-2.8-0.9-5-2.7-6.6c-1.8-1.6-4.3-2.4-7.5-2.4c-3,0-5.4,0.7-7.2,2.2c-1.8,1.5-2.7,3.3-2.7,5.5h-4l-0.1-0.2c-0.1-3,1.1-5.6,3.8-7.8
	c2.7-2.2,6.2-3.4,10.5-3.4c4.3,0,7.8,1.1,10.4,3.3c2.6,2.2,3.9,5.4,3.9,9.5v19.3c0,1.4,0.1,2.7,0.2,4c0.2,1.3,0.4,2.6,0.8,3.9H425.3
	z M410.8,443.4c3.3,0,6.2-0.8,8.7-2.4c2.4-1.6,4.1-3.6,5-6.1v-7.5h-9.7c-3.5,0-6.5,0.8-8.8,2.5c-2.3,1.7-3.5,3.7-3.5,6.1
	c0,2.2,0.7,4,2.2,5.4C406.2,442.8,408.3,443.4,410.8,443.4z"/>
<path class="st1" d="M458.4,410.9l-3.1-0.2c-2.7,0-5,0.8-6.7,2.3c-1.8,1.5-3,3.7-3.8,6.3v27.2h-4.4v-39.3h3.8l0.5,6.5v0.4
	c1.1-2.4,2.7-4.3,4.6-5.7c1.9-1.4,4.2-2,6.8-2c0.5,0,1,0,1.5,0.1c0.5,0.1,0.9,0.2,1.2,0.3L458.4,410.9z"/>
<path class="st1" d="M463.4,427.2c0-6.3,1.3-11.3,4-15.1c2.7-3.8,6.4-5.7,11.1-5.7c2.7,0,5,0.6,7.1,1.7c2,1.1,3.7,2.8,5,4.8v-23.2
	h4.4v56.7h-3.6l-0.6-5.7c-1.3,2.1-3,3.7-5.1,4.8c-2.1,1.1-4.5,1.7-7.3,1.7c-4.7,0-8.4-1.8-11-5.3c-2.7-3.5-4-8.2-4-14.1V427.2z
	 M467.8,428c0,4.8,1,8.5,2.9,11.3c1.9,2.8,4.8,4.2,8.6,4.2c2.8,0,5.2-0.6,7-1.9c1.9-1.2,3.3-3,4.4-5.2v-18.7c-1-2.2-2.4-4-4.2-5.5
	c-1.8-1.4-4.2-2.1-7.1-2.1c-3.8,0-6.7,1.6-8.6,4.7c-1.9,3.1-2.9,7.2-2.9,12.2V428z"/>
</svg>
