<?xml version="1.0" encoding="utf-8"?>
<!-- Generator: Adobe Illustrator 22.0.0, SVG Export Plug-In . SVG Version: 6.00 Build 0)  -->
<svg version="1.1" id="Слой_1" xmlns="http://www.w3.org/2000/svg" xmlns:xlink="http://www.w3.org/1999/xlink" x="0px" y="0px"
	 viewBox="0 0 100 100" style="enable-background:new 0 0 100 100;" xml:space="preserve">
<style type="text/css">
	.st0{fill:#FFFFFF;}
</style>
<g>
	<g>
		<path class="st0" d="M76.9,25.3V4.2c0-1.8-1.5-3.2-3.2-3.2H16.5c-1.8,0-3.2,1.4-3.2,3.2v90.9c0,1.8,1.5,3.2,3.2,3.2h57.2
			c1.8,0,3.2-1.4,3.2-3.2V74.8l-3.4,3.4l-3,3v10.7H19.7V7.4h50.8v11.4L76.9,25.3z"/>
	</g>
	<g>
		<g>
			<path class="st0" d="M84.1,52.3L61.2,75.2L57,79.4c-0.6,0.6-1.4,0.9-2.3,0.9c-0.8,0-1.6-0.3-2.3-0.9c-1.2-1.3-1.2-3.3,0-4.5
				l8.8-8.8L77.2,50L51.7,24.5c-1.3-1.2-1.3-3.3,0-4.5c0.6-0.6,1.5-0.9,2.3-0.9c0.8,0,1.6,0.3,2.3,0.9l27.8,27.8
				C85.3,49,85.3,51.1,84.1,52.3z"/>
		</g>
	</g>
</g>
</svg>
