<svg xmlns="http://www.w3.org/2000/svg" xmlns:xlink="http://www.w3.org/1999/xlink" version="1.1" style="" xml:space="preserve" width="500" height="500"><rect id="backgroundrect" width="100%" height="100%" x="0" y="0" fill="none" stroke="none"/>
<style type="text/css">
	.st0{fill:#1B1924;}
	.st1{fill:#FFFFFF;}
</style>




















<g class="currentLayer" style=""><title>Layer 1</title><rect x="-588" y="-356.8999938964844" class="st0" width="1920" height="225" id="svg_1"/><path class="st0" d="M-19.1-409.2c-0.1-0.4-0.2-0.7-0.3-1.1c-0.8-2.6-3-4.7-5.6-5.5c-0.4-0.1-0.7-0.2-1.1-0.2  c-0.4-0.1-0.8-0.1-1.2-0.1c-4.6,0-8.4,3.7-8.4,8.4c0,1.6,0.5,3.2,1.3,4.5c0.2,0.3,0.4,0.6,0.6,0.9c1.5,1.9,3.8,3,6.4,3  c2.6,0,4.9-1.2,6.4-3c0.2-0.3,0.4-0.6,0.6-0.9c0.8-1.3,1.3-2.8,1.3-4.5C-19-408.2-19-408.7-19.1-409.2z M-20.2-409.5l-5.5,5.5h-5v-6  l5-5C-23-414.4-20.8-412.2-20.2-409.5z M-21.2-403.5c-0.2,0.3-0.4,0.6-0.7,0.9c-1.4,1.5-3.3,2.4-5.4,2.4c-2.2,0-4.1-0.9-5.4-2.4  c-0.2-0.3-0.5-0.6-0.7-0.9c-0.8-1.2-1.3-2.6-1.3-4.2c0-4.1,3.3-7.4,7.4-7.4c0.1,0,0.2,0,0.4,0l-4.6,4.6c-0.1,0.1-0.1,0.2-0.1,0.3  v6.7c0,0.1,0.1,0.3,0.1,0.3c0.1,0.1,0.2,0.1,0.3,0.1h5.7c0.1,0,0.3-0.1,0.3-0.1l5.2-5.2c0,0.2,0,0.4,0,0.6  C-19.9-406.2-20.4-404.7-21.2-403.5z" id="svg_2"/><g id="svg_3">
	<path class="st1" d="M-395.5-315.1c-4,2.2-6.8,6.5-6.8,11.4c0,7.2,5.8,13,13,13c4.9,0,9.2-2.7,11.4-6.8c0.5-0.8,0.8-1.7,1.1-2.7   h22.1c21,0,38.3,15.9,40.6,36.4h-63.1c0-0.1-0.1-0.2-0.1-0.3c-1.3-3-3.7-5.4-6.7-6.7c-1.6-0.7-3.4-1.1-5.2-1.1   c-2.3,0-4.4,0.6-6.2,1.6c-4,2.2-6.8,6.5-6.8,11.4c0,7.2,5.8,13,13,13c4.9,0,9.2-2.7,11.4-6.8c0.2-0.4,0.4-0.9,0.6-1.3h63   c-2.6,20-19.8,35.5-40.5,35.5H-377c-0.1-0.2-0.2-0.5-0.3-0.7c-1.3-3-3.7-5.4-6.7-6.7c-1.6-0.7-3.4-1.1-5.2-1.1   c-2.3,0-4.4,0.6-6.2,1.6c-4,2.2-6.8,6.5-6.8,11.4c0,7.2,5.8,13,13,13c4.9,0,9.2-2.7,11.4-6.8c0.2-0.3,0.3-0.6,0.4-0.9h22.7   c26.1,0,47.7-19.9,50.4-45.3h30.4c1.9,4.7,6.6,8.1,12,8.1c4.9,0,9.2-2.7,11.4-6.8c1-1.9,1.6-4,1.6-6.2c0-1.9-0.4-3.6-1.1-5.2   c-1.3-3-3.7-5.4-6.7-6.7c-1.6-0.7-3.4-1.1-5.2-1.1c-2.3,0-4.4,0.6-6.2,1.6c-2.6,1.4-4.7,3.7-5.8,6.5h-30.4   c-2.3-25.9-24.1-46.2-50.5-46.2h-23.2c-1.4-2.5-3.6-4.5-6.2-5.6c-1.6-0.7-3.4-1.1-5.2-1.1C-391.5-316.6-393.6-316.1-395.5-315.1z" id="svg_4"/>
</g><g id="svg_5">
	<g id="svg_6">
		<path class="st0" d="M956.6-521.8c-22.7,0-41.1,18.4-41.1,41.1c0,8.1,2.3,15.6,6.3,21.9c0.9,1.5,2,2.9,3.1,4.2    c7.5,9.1,18.9,14.9,31.7,14.9c12.7,0,24.1-5.8,31.6-14.8c1.1-1.3,2.1-2.8,3.1-4.2c4-6.4,6.4-13.9,6.4-22    C997.6-503.4,979.3-521.8,956.6-521.8z M986.7-460.2c-1,1.5-2.1,2.9-3.4,4.2c-6.7,7.2-16.2,11.7-26.7,11.7    c-10.6,0-20.1-4.5-26.8-11.7c-1.2-1.3-2.3-2.7-3.4-4.2c-4-5.8-6.3-12.9-6.3-20.4c0-20.1,16.3-36.4,36.4-36.4s36.4,16.3,36.4,36.4    C993-473.1,990.7-466,986.7-460.2z" id="svg_7"/>
	</g>
	<g id="svg_8">
		<g id="svg_9">
			<path class="st0" d="M987-480.5l-9.6-5.5l5.6-9.7h-11v-11.2l-9.6,5.5l-5.6-9.7l-5.5,9.6l-9.7-5.6v11h-11.2l5.5,9.6l-9.7,5.6     l9.6,5.5l-5.6,9.7h11v11.2l9.6-5.5l5.6,9.7l5.5-9.6l9.7,5.6v-11h11.2l-5.5-9.6L987-480.5z M936.9-475.4v-0.1     c0,0.1,0.1,0.2,0.1,0.3L936.9-475.4z M936.9-485.8v-0.1l0.1-0.2C937-486,936.9-485.9,936.9-485.8z M956.6-463.4     c-9.6,0-17.3-7.7-17.3-17.3S947-498,956.6-498s17.3,7.7,17.3,17.3S966.1-463.4,956.6-463.4z" id="svg_10"/>
		</g>
	</g>
</g><path class="st0" d="M1088.4-524.8c24.4,0,44.2,19.8,44.2,44.2c0,24.4-19.8,44.2-44.2,44.2H956.2c-24.4,0-44.2-19.8-44.2-44.2  c0-24.4,19.8-44.2,44.2-44.2H1088.4 M1088.4-530.3H956.2c-27.4,0-49.7,22.2-49.7,49.7c0,27.4,22.2,49.7,49.7,49.7h132.2  c27.4,0,49.7-22.2,49.7-49.7C1138-508.1,1115.8-530.3,1088.4-530.3L1088.4-530.3z" id="svg_11"/><g id="svg_12">
	<g id="svg_13">
		<g id="svg_14">
			<path class="st1" d="M1085.3-287.4c-22.7,0-41.1,18.4-41.1,41.1c0,8.1,2.3,15.6,6.3,21.9c0.9,1.5,2,2.9,3.1,4.2     c7.5,9.1,18.9,14.9,31.7,14.9c12.7,0,24.1-5.8,31.6-14.8c1.1-1.3,2.1-2.8,3.1-4.2c4-6.4,6.4-13.9,6.4-22     C1126.4-269,1108-287.4,1085.3-287.4z M1115.4-225.8c-1,1.5-2.1,2.9-3.4,4.2c-6.7,7.2-16.2,11.7-26.7,11.7     c-10.6,0-20.1-4.5-26.8-11.7c-1.2-1.3-2.3-2.7-3.4-4.2c-4-5.8-6.3-12.9-6.3-20.4c0-20.1,16.3-36.4,36.4-36.4     c20.1,0,36.4,16.3,36.4,36.4C1121.7-238.7,1119.4-231.6,1115.4-225.8z" id="svg_15"/>
		</g>
	</g>
	<g id="svg_16">
		<path class="st1" d="M1111.3-246.2c0,14.7-11.9,26.7-26.7,26.7c-3.6,0-7.1-0.7-10.3-2.1c9.6-4,16.4-13.5,16.4-24.6    c0-11.1-6.8-20.6-16.4-24.6c3.2-1.3,6.6-2.1,10.3-2.1C1099.4-272.9,1111.3-261,1111.3-246.2z" id="svg_17"/>
	</g>
</g><path class="st1" d="M1088.4-290.5c24.4,0,44.2,19.8,44.2,44.2s-19.8,44.2-44.2,44.2H956.2c-24.4,0-44.2-19.8-44.2-44.2  s19.8-44.2,44.2-44.2H1088.4 M1088.4-296H956.2c-27.4,0-49.7,22.2-49.7,49.7s22.2,49.7,49.7,49.7h132.2c27.4,0,49.7-22.2,49.7-49.7  S1115.8-296,1088.4-296L1088.4-296z" id="svg_18"/><g id="svg_19">
	<path class="st1" d="M143.6-327.8c-45,0-81.5,36.5-81.5,81.5c0,16,4.6,30.9,12.6,43.5c1.9,2.9,3.9,5.7,6.1,8.4   c15,18.1,37.6,29.6,62.9,29.6c25.2,0,47.8-11.4,62.7-29.4c2.2-2.7,4.3-5.5,6.1-8.4c8-12.6,12.7-27.6,12.7-43.7   C225.1-291.3,188.6-327.8,143.6-327.8z M203.3-205.5c-2,3-4.3,5.8-6.7,8.4c-13.2,14.2-32.1,23.2-53,23.2c-21,0-40-9-53.2-23.3   c-2.4-2.6-4.7-5.4-6.7-8.4c-7.9-11.6-12.5-25.5-12.5-40.6c0-39.9,32.4-72.3,72.3-72.3s72.3,32.4,72.3,72.3   C215.9-231.2,211.3-217.1,203.3-205.5z" id="svg_20"/>
	<g id="svg_21">
		<path class="st1" d="M151-206.1c-0.8,0-1.5-0.7-1.5-1.5v-61.8h0v-7.7c0-0.8-0.7-1.5-1.5-1.5h-19c-0.8,0-1.5,0.7-1.5,1.5v6.2    c0,0.8,0.7,1.5,1.5,1.5h9.7c0.8,0,1.5,0.7,1.5,1.5v60.3c0,0.8-0.7,1.5-1.5,1.5H129c-0.8,0-1.5,0.7-1.5,1.5v6.2    c0,0.8,0.7,1.5,1.5,1.5h32c0.8,0,1.5-0.7,1.5-1.5v-6.2c0-0.8-0.7-1.5-1.5-1.5H151z" id="svg_22"/>
		<path class="st1" d="M148-297.8h-6.2c-0.8,0-1.5,0.7-1.5,1.5v10.2c0,0.8,0.7,1.5,1.5,1.5h6.2c0.8,0,1.5-0.7,1.5-1.5v-10.2    C149.5-297.1,148.8-297.8,148-297.8z" id="svg_23"/>
	</g>
</g><g id="svg_24">
	<path class="st0" d="M454.2-516.9c-1.6-3.2-3.4-6.3-5.4-9.2c-6-8.8-13.6-16.3-22.5-22.2c-3-2-6.1-3.8-9.4-5.3   c-10.7-5.2-22.8-8.1-35.6-8.1c-45,0-81.5,36.5-81.5,81.5c0,16,4.6,30.9,12.6,43.5c1.9,2.9,3.9,5.7,6.1,8.4   c15,18.1,37.6,29.6,62.9,29.6c25.2,0,47.8-11.4,62.7-29.4c2.2-2.7,4.3-5.5,6.1-8.4c8-12.6,12.7-27.6,12.7-43.7   C462.8-493.5,459.7-505.9,454.2-516.9z M419.6-541.7c9,5.6,16.8,13.2,22.5,22.2l-24.7,24.7l1,3c5.1,15.3,1.2,31.9-10.2,43.3   c-9.3,9.3-22,13.6-34.7,12.1l12.8-12.8c3.5-3.5,5.4-8.1,5.4-13c0-4.9-1.9-9.6-5.4-13l-11-11c-3.5-3.5-8.1-5.4-13-5.4   c-4.9,0-9.6,1.9-13,5.4l-13,13c-1.6-12.8,2.7-25.7,12.1-35.2c11.5-11.5,28.3-15.4,43.7-10.1l3.1,1.1L419.6-541.7L419.6-541.7z    M441.1-439.5c-2,3-4.3,5.8-6.7,8.4c-13.2,14.2-32.1,23.2-53,23.2c-21,0-40-9-53.2-23.3c-2.4-2.6-4.7-5.4-6.7-8.4   c-7.9-11.6-12.5-25.5-12.5-40.6c0-39.9,32.4-72.3,72.3-72.3c10.2,0,19.8,2.1,28.6,5.9l-17.6,17.6c-8.3-2.3-17-2.5-25.5-0.6   c-9.8,2.2-18.7,7.1-25.8,14.2c-7.1,7.1-12,16-14.2,25.8c-2.1,9.5-1.5,19.4,1.6,28.6l2.7,7.9l25.5-25.5c3.1-3.1,8.3-3.1,11.4,0   l11,11c1.5,1.5,2.4,3.6,2.4,5.7c0,2.2-0.8,4.2-2.4,5.7L353.6-431l8,2.7c5.4,1.8,11.1,2.7,16.7,2.7c3.9,0,7.8-0.4,11.7-1.3   c9.7-2.2,18.5-7.1,25.6-14.1c7.1-7.1,11.9-15.9,14.1-25.6c1.9-8.4,1.7-17-0.5-25.3l18.1-18.1c4.1,9.1,6.4,19.1,6.4,29.7   C453.6-465.2,449-451.1,441.1-439.5z" id="svg_25"/>
</g><g id="svg_26">
	<path class="st0" d="M610.9-561.8c-45,0-81.5,36.5-81.5,81.5c0,16,4.6,30.9,12.6,43.5c1.9,2.9,3.9,5.7,6.1,8.4   c15,18.1,37.6,29.6,62.9,29.6c25.2,0,47.8-11.4,62.7-29.4c2.2-2.7,4.3-5.5,6.1-8.4c8-12.6,12.7-27.6,12.7-43.7   C692.5-525.3,656-561.8,610.9-561.8z M670.7-439.5c-2,3-4.3,5.8-6.7,8.4c-13.2,14.2-32.1,23.2-53,23.2c-21,0-40-9-53.2-23.3   c-2.4-2.6-4.7-5.4-6.7-8.4c-7.9-11.6-12.5-25.5-12.5-40.6c0-39.9,32.4-72.3,72.3-72.3c39.9,0,72.3,32.4,72.3,72.3   C683.2-465.2,678.6-451.1,670.7-439.5z" id="svg_27"/>
</g><g id="svg_28">
	<g id="svg_29">
		<path class="st0" d="M640.5-450.2l-3.3,3.3l-0.5,0.5v0.7v10h-52.3V-525h52.3v10.8v0.7l0.5,0.5l7.1,7.1l3,3v-4.2v-23.2    c0-2.9-2.4-5.3-5.3-5.3h-62.9c-2.9,0-5.3,2.4-5.3,5.3v99.9c0,2.9,2.4,5.3,5.3,5.3H642c2.9,0,5.3-2.4,5.3-5.3v-22.4v-4.2l-3,3    L640.5-450.2z M576.5-428c-0.1-0.1-0.2-0.2-0.3-0.3C576.3-428.2,576.4-428.1,576.5-428z M576.1-428.5c-0.1-0.1-0.1-0.2-0.2-0.3    C576-428.7,576.1-428.6,576.1-428.5z M638.5-514.1v-12.6h0L638.5-514.1l7.1,7.1v0L638.5-514.1z M579.1-533.8H642    c0.4,0,0.9,0.1,1.2,0.2c-0.4-0.1-0.8-0.2-1.2-0.2H579.1c-0.5,0-0.9,0.1-1.4,0.3C578.2-533.7,578.6-533.8,579.1-533.8z     M645.3-429.2c0-0.1,0-0.1,0.1-0.2C645.3-429.3,645.3-429.2,645.3-429.2z M641.8-449l-3.3,3.3v11.8h-55.8l0,0h55.8v-11.8    L641.8-449l3.7-3.7L641.8-449z" id="svg_30"/>
	</g>
	<g id="svg_31">
		<path class="st0" d="M654.5-483.6L624-514.1c-1-1-2.3-1.6-3.7-1.6c-1.4,0-2.8,0.6-3.7,1.6c-1,1-1.5,2.3-1.5,3.7    c0,1.4,0.6,2.7,1.6,3.7l26.8,26.8L627-463.5l-9.6,9.6c-2,2-2,5.4,0,7.4c1,1,2.3,1.6,3.7,1.6c1.4,0,2.7-0.5,3.7-1.5l4.6-4.6    l25.1-25.1c1-1,1.5-2.3,1.5-3.7C656.1-481.3,655.5-482.6,654.5-483.6z M617.1-512.1C617.1-512.1,617.1-512.1,617.1-512.1    C617.1-512.1,617.1-512.1,617.1-512.1z M616.8-511c0,0.2,0,0.4,0,0.5C616.7-510.6,616.7-510.8,616.8-511z M616.7-510.4    c0,0.9,0.3,1.8,1,2.5l14,14l-14-14C617.1-508.6,616.7-509.5,616.7-510.4z M628.2-462.2l8.8-8.8L628.2-462.2l-3.8,3.8L628.2-462.2z     M623.6-447.6c-0.7,0.7-1.6,1-2.5,1c-0.9,0-1.8-0.4-2.5-1c-1.2-1.2-1.3-3-0.5-4.4c-0.9,1.4-0.7,3.2,0.5,4.4c0.7,0.7,1.6,1,2.5,1    C622-446.6,622.9-447,623.6-447.6l2.3-2.3L623.6-447.6z M653.3-477.4l-8.4,8.4L653.3-477.4c0.5-0.5,0.8-1.1,1-1.8    c0-0.2,0.1-0.4,0.1-0.7c0,0.2,0,0.4-0.1,0.7C654.2-478.5,653.8-477.9,653.3-477.4z M654.3-479.9c0-0.9-0.3-1.8-1-2.5l-7.6-7.6    l7.6,7.6C654-481.7,654.3-480.8,654.3-479.9z" id="svg_32"/>
	</g>
</g><g id="svg_40">
	<path class="st1" d="M454.2-287c-1.6-3.2-3.4-6.3-5.4-9.2c-6-8.8-13.6-16.3-22.5-22.2c-3-2-6.1-3.8-9.4-5.3   c-10.7-5.2-22.8-8.1-35.6-8.1c-45,0-81.5,36.5-81.5,81.5c0,16,4.6,30.9,12.6,43.5c1.9,2.9,3.9,5.7,6.1,8.4   c15,18.1,37.6,29.6,62.9,29.6c25.2,0,47.8-11.4,62.7-29.4c2.2-2.7,4.3-5.5,6.1-8.4c8-12.6,12.7-27.6,12.7-43.7   C462.8-263.5,459.7-275.9,454.2-287z M419.6-311.7c9,5.6,16.8,13.2,22.5,22.2l-24.7,24.7l1,3c5.1,15.3,1.2,31.9-10.2,43.3   c-9.3,9.3-22,13.6-34.7,12.1l12.8-12.8c3.5-3.5,5.4-8.1,5.4-13c0-4.9-1.9-9.6-5.4-13l-11-11c-3.5-3.5-8.1-5.4-13-5.4   c-4.9,0-9.6,1.9-13,5.4l-13,13c-1.6-12.8,2.7-25.7,12.1-35.2c11.5-11.5,28.3-15.4,43.7-10.1l3.1,1.1L419.6-311.7L419.6-311.7z    M441.1-209.6c-2,3-4.3,5.8-6.7,8.4c-13.2,14.2-32.1,23.2-53,23.2c-21,0-40-9-53.2-23.3c-2.4-2.6-4.7-5.4-6.7-8.4   c-7.9-11.6-12.5-25.5-12.5-40.6c0-39.9,32.4-72.3,72.3-72.3c10.2,0,19.8,2.1,28.6,5.9l-17.6,17.6c-8.3-2.3-17-2.5-25.5-0.6   c-9.8,2.2-18.7,7.1-25.8,14.2c-7.1,7.1-12,16-14.2,25.8c-2.1,9.5-1.5,19.4,1.6,28.6l2.7,7.9l25.5-25.5c3.1-3.1,8.3-3.1,11.4,0   l11,11c1.5,1.5,2.4,3.6,2.4,5.7c0,2.2-0.8,4.2-2.4,5.7L353.6-201l8,2.7c5.4,1.8,11.1,2.7,16.7,2.7c3.9,0,7.8-0.4,11.7-1.3   c9.7-2.2,18.5-7.1,25.6-14.1c7.1-7.1,11.9-15.9,14.1-25.6c1.9-8.4,1.7-17-0.5-25.3l18.1-18.1c4.1,9.1,6.4,19.1,6.4,29.7   C453.6-235.2,449-221.2,441.1-209.6z" id="svg_41"/>
</g><g id="svg_42">
	<path class="st1" d="M-100.1-314.1c-25.1,0-45.5,20.4-45.5,45.5c0,25.1,20.4,45.5,45.5,45.5c25.1,0,45.5-20.4,45.5-45.5   C-54.6-293.6-75-314.1-100.1-314.1z M-100.1-232.9c-19.6,0-35.6-16-35.6-35.6c0-19.6,16-35.6,35.6-35.6c19.6,0,35.6,16,35.6,35.6   C-64.5-248.9-80.5-232.9-100.1-232.9z" id="svg_43"/>
	<path class="st1" d="M-100.1-331.9c-45,0-81.5,36.5-81.5,81.5c0,12.1,2.7,23.7,7.4,34c1.5,3.2,3.1,6.3,5,9.2   c0.1,0.1,0.1,0.2,0.2,0.3c1.9,2.9,3.9,5.7,6.1,8.4c15,18.1,37.6,29.6,62.9,29.6c25.2,0,47.8-11.4,62.7-29.4   c2.2-2.7,4.3-5.5,6.1-8.4c0.1-0.2,0.2-0.3,0.3-0.5c1.9-2.9,3.5-6,5-9.2c4.8-10.4,7.4-21.9,7.4-34   C-18.6-295.4-55.1-331.9-100.1-331.9z M-47.1-201.2c-13.2,14.2-32.1,23.2-53,23.2c-21,0-40-9-53.2-23.3c-1.7-1.8-3.3-3.7-4.8-5.7   h115.9C-43.7-205-45.3-203.1-47.1-201.2z M-163.9-216.3c-5.4-10.1-8.5-21.7-8.5-34c0-39.9,32.4-72.3,72.3-72.3   c39.9,0,72.3,32.4,72.3,72.3c0,12.3-3.1,23.9-8.5,34H-163.9z" id="svg_44"/>
</g><g id="svg_45">
	<path class="st1" d="M610.9-331.9c-45,0-81.5,36.5-81.5,81.5c0,16,4.6,30.9,12.6,43.5c1.9,2.9,3.9,5.7,6.1,8.4   c15,18.1,37.6,29.6,62.9,29.6c25.2,0,47.8-11.4,62.7-29.4c2.2-2.7,4.3-5.5,6.1-8.4c8-12.6,12.7-27.6,12.7-43.7   C692.5-295.4,656-331.9,610.9-331.9z M670.7-209.6c-2,3-4.3,5.8-6.7,8.4c-13.2,14.2-32.1,23.2-53,23.2c-21,0-40-9-53.2-23.3   c-2.4-2.6-4.7-5.4-6.7-8.4c-7.9-11.6-12.5-25.5-12.5-40.6c0-39.9,32.4-72.3,72.3-72.3c39.9,0,72.3,32.4,72.3,72.3   C683.2-235.2,678.6-221.2,670.7-209.6z" id="svg_46"/>
</g><g id="svg_47">
	<g id="svg_48">
		<path class="st1" d="M640.5-220.2l-3.3,3.3l-0.5,0.5v0.7v10h-52.3V-295h52.3v10.8v0.7l0.5,0.5l7.1,7.1l3,3v-4.2v-23.2    c0-2.9-2.4-5.3-5.3-5.3h-62.9c-2.9,0-5.3,2.4-5.3,5.3v99.9c0,2.9,2.4,5.3,5.3,5.3H642c2.9,0,5.3-2.4,5.3-5.3v-22.4v-4.2l-3,3    L640.5-220.2z M576.5-198c-0.1-0.1-0.2-0.2-0.3-0.3C576.3-198.2,576.4-198.1,576.5-198z M576.1-198.5c-0.1-0.1-0.1-0.2-0.2-0.3    C576-198.8,576.1-198.6,576.1-198.5z M638.5-284.2v-12.6h0L638.5-284.2l7.1,7.1v0L638.5-284.2z M579.1-303.8H642    c0.4,0,0.9,0.1,1.2,0.2c-0.4-0.1-0.8-0.2-1.2-0.2H579.1c-0.5,0-0.9,0.1-1.4,0.3C578.2-303.7,578.6-303.8,579.1-303.8z     M645.3-199.2c0-0.1,0-0.1,0.1-0.2C645.3-199.4,645.3-199.3,645.3-199.2z M641.8-219l-3.3,3.3v11.8h-55.8l0,0h55.8v-11.8    L641.8-219l3.7-3.7L641.8-219z" id="svg_49"/>
	</g>
	<g id="svg_50">
		<path class="st1" d="M654.5-253.7L624-284.2c-1-1-2.3-1.6-3.7-1.6c-1.4,0-2.8,0.6-3.7,1.6c-1,1-1.5,2.3-1.5,3.7    c0,1.4,0.6,2.7,1.6,3.7l26.8,26.8L627-233.5l-9.6,9.6c-2,2-2,5.4,0,7.4c1,1,2.3,1.6,3.7,1.6c1.4,0,2.7-0.5,3.7-1.5l4.6-4.6    l25.1-25.1c1-1,1.5-2.3,1.5-3.7C656.1-251.3,655.5-252.7,654.5-253.7z M617.1-282.1C617.1-282.1,617.1-282.1,617.1-282.1    C617.1-282.1,617.1-282.1,617.1-282.1z M616.8-281.1c0,0.2,0,0.4,0,0.5C616.7-280.7,616.7-280.9,616.8-281.1z M616.7-280.5    c0,0.9,0.3,1.8,1,2.5l14,14l-14-14C617.1-278.7,616.7-279.6,616.7-280.5z M628.2-232.3l8.8-8.8L628.2-232.3l-3.8,3.8L628.2-232.3z     M623.6-217.7c-0.7,0.7-1.6,1-2.5,1c-0.9,0-1.8-0.4-2.5-1c-1.2-1.2-1.3-3-0.5-4.4c-0.9,1.4-0.7,3.2,0.5,4.4c0.7,0.7,1.6,1,2.5,1    C622-216.7,622.9-217,623.6-217.7l2.3-2.3L623.6-217.7z M653.3-247.5l-8.4,8.4L653.3-247.5c0.5-0.5,0.8-1.1,1-1.8    c0-0.2,0.1-0.4,0.1-0.7c0,0.2,0,0.4-0.1,0.7C654.2-248.6,653.8-248,653.3-247.5z M654.3-249.9c0-0.9-0.3-1.8-1-2.5l-7.6-7.6    l7.6,7.6C654-251.7,654.3-250.8,654.3-249.9z" id="svg_51"/>
	</g>
</g><g id="svg_52">
	<g id="svg_53">
		<path class="st0" d="M822.8-450.2l-3.3,3.3l-0.5,0.5v0.7v10h-52.3V-525H819v10.8v0.7l0.5,0.5l7.1,7.1l3,3v-4.2v-23.2    c0-2.9-2.4-5.3-5.3-5.3h-62.9c-2.9,0-5.3,2.4-5.3,5.3v99.9c0,2.9,2.4,5.3,5.3,5.3h62.9c2.9,0,5.3-2.4,5.3-5.3v-22.4v-4.2l-3,3    L822.8-450.2z M758.8-428c-0.1-0.1-0.2-0.2-0.3-0.3C758.6-428.2,758.7-428.1,758.8-428z M758.4-428.5c-0.1-0.1-0.1-0.2-0.2-0.3    C758.3-428.7,758.4-428.6,758.4-428.5z M820.7-514.1v-12.6h0L820.7-514.1l7.1,7.1v0L820.7-514.1z M761.4-533.8h62.9    c0.4,0,0.9,0.1,1.2,0.2c-0.4-0.1-0.8-0.2-1.2-0.2H761.4c-0.5,0-0.9,0.1-1.4,0.3C760.5-533.7,760.9-533.8,761.4-533.8z     M827.6-429.2c0-0.1,0-0.1,0.1-0.2C827.6-429.3,827.6-429.2,827.6-429.2z M824-449l-3.3,3.3v11.8h-55.8l0,0h55.8v-11.8L824-449    l3.7-3.7L824-449z" id="svg_54"/>
	</g>
	<g id="svg_55">
		<path class="st0" d="M836.8-483.6l-30.5-30.5c-1-1-2.3-1.6-3.7-1.6c-1.4,0-2.8,0.6-3.7,1.6c-1,1-1.5,2.3-1.5,3.7    c0,1.4,0.6,2.7,1.6,3.7l26.8,26.8l-16.4,16.4l-9.6,9.6c-2,2-2,5.4,0,7.4c1,1,2.3,1.6,3.7,1.6c1.4,0,2.7-0.5,3.7-1.5l4.6-4.6    l25.1-25.1c1-1,1.5-2.3,1.5-3.7C838.4-481.3,837.8-482.6,836.8-483.6z M799.4-512.1C799.4-512.1,799.4-512.1,799.4-512.1    C799.4-512.1,799.4-512.1,799.4-512.1z M799.1-511c0,0.2,0,0.4,0,0.5C799-510.6,799-510.8,799.1-511z M799-510.4    c0,0.9,0.3,1.8,1,2.5l14,14l-14-14C799.4-508.6,799-509.5,799-510.4z M810.5-462.2l8.8-8.8L810.5-462.2l-3.8,3.8L810.5-462.2z     M805.8-447.6c-0.7,0.7-1.6,1-2.5,1c-0.9,0-1.8-0.4-2.5-1c-1.2-1.2-1.3-3-0.5-4.4c-0.9,1.4-0.7,3.2,0.5,4.4c0.7,0.7,1.6,1,2.5,1    C804.3-446.6,805.1-447,805.8-447.6l2.3-2.3L805.8-447.6z M835.6-477.4l-8.4,8.4L835.6-477.4c0.5-0.5,0.8-1.1,1-1.8    c0-0.2,0.1-0.4,0.1-0.7c0,0.2,0,0.4-0.1,0.7C836.4-478.5,836.1-477.9,835.6-477.4z M836.6-479.9c0-0.9-0.3-1.8-1-2.5l-7.6-7.6    l7.6,7.6C836.3-481.7,836.6-480.8,836.6-479.9z" id="svg_56"/>
	</g>
</g><g id="svg_57">
	<g id="svg_58">
		<path class="st1" d="M822.8-220.2l-3.3,3.3l-0.5,0.5v0.7v10h-52.3V-295H819v10.8v0.7l0.5,0.5l7.1,7.1l3,3v-4.2v-23.2    c0-2.9-2.4-5.3-5.3-5.3h-62.9c-2.9,0-5.3,2.4-5.3,5.3v99.9c0,2.9,2.4,5.3,5.3,5.3h62.9c2.9,0,5.3-2.4,5.3-5.3v-22.4v-4.2l-3,3    L822.8-220.2z M758.8-198c-0.1-0.1-0.2-0.2-0.3-0.3C758.6-198.2,758.7-198.1,758.8-198z M758.4-198.5c-0.1-0.1-0.1-0.2-0.2-0.3    C758.3-198.8,758.4-198.6,758.4-198.5z M820.7-284.2v-12.6h0L820.7-284.2l7.1,7.1v0L820.7-284.2z M761.4-303.8h62.9    c0.4,0,0.9,0.1,1.2,0.2c-0.4-0.1-0.8-0.2-1.2-0.2H761.4c-0.5,0-0.9,0.1-1.4,0.3C760.5-303.7,760.9-303.8,761.4-303.8z     M827.6-199.2c0-0.1,0-0.1,0.1-0.2C827.6-199.4,827.6-199.3,827.6-199.2z M824-219l-3.3,3.3v11.8h-55.8l0,0h55.8v-11.8L824-219    l3.7-3.7L824-219z" id="svg_59"/>
	</g>
	<g id="svg_60">
		<path class="st1" d="M836.8-253.7l-30.5-30.5c-1-1-2.3-1.6-3.7-1.6c-1.4,0-2.8,0.6-3.7,1.6c-1,1-1.5,2.3-1.5,3.7    c0,1.4,0.6,2.7,1.6,3.7l26.8,26.8l-16.4,16.4l-9.6,9.6c-2,2-2,5.4,0,7.4c1,1,2.3,1.6,3.7,1.6c1.4,0,2.7-0.5,3.7-1.5l4.6-4.6    l25.1-25.1c1-1,1.5-2.3,1.5-3.7C838.4-251.3,837.8-252.7,836.8-253.7z M799.4-282.1C799.4-282.1,799.4-282.1,799.4-282.1    C799.4-282.1,799.4-282.1,799.4-282.1z M799.1-281.1c0,0.2,0,0.4,0,0.5C799-280.7,799-280.9,799.1-281.1z M799-280.5    c0,0.9,0.3,1.8,1,2.5l14,14l-14-14C799.4-278.7,799-279.6,799-280.5z M810.5-232.3l8.8-8.8L810.5-232.3l-3.8,3.8L810.5-232.3z     M805.8-217.7c-0.7,0.7-1.6,1-2.5,1c-0.9,0-1.8-0.4-2.5-1c-1.2-1.2-1.3-3-0.5-4.4c-0.9,1.4-0.7,3.2,0.5,4.4c0.7,0.7,1.6,1,2.5,1    C804.3-216.7,805.1-217,805.8-217.7l2.3-2.3L805.8-217.7z M835.6-247.5l-8.4,8.4L835.6-247.5c0.5-0.5,0.8-1.1,1-1.8    c0-0.2,0.1-0.4,0.1-0.7c0,0.2,0,0.4-0.1,0.7C836.4-248.6,836.1-248,835.6-247.5z M836.6-249.9c0-0.9-0.3-1.8-1-2.5l-7.6-7.6    l7.6,7.6C836.3-251.7,836.6-250.8,836.6-249.9z" id="svg_61"/>
	</g>
</g><path class="st1" d="M-19.1-179.2c-0.1-0.4-0.2-0.7-0.3-1.1c-0.8-2.6-3-4.7-5.6-5.5c-0.4-0.1-0.7-0.2-1.1-0.2  c-0.4-0.1-0.8-0.1-1.2-0.1c-4.6,0-8.4,3.7-8.4,8.4c0,1.6,0.5,3.2,1.3,4.5c0.2,0.3,0.4,0.6,0.6,0.9c1.5,1.9,3.8,3,6.4,3  c2.6,0,4.9-1.2,6.4-3c0.2-0.3,0.4-0.6,0.6-0.9c0.8-1.3,1.3-2.8,1.3-4.5C-19-178.2-19-178.7-19.1-179.2z M-20.2-179.5l-5.5,5.5h-5v-6  l5-5C-23-184.4-20.8-182.2-20.2-179.5z M-21.2-173.5c-0.2,0.3-0.4,0.6-0.7,0.9c-1.4,1.5-3.3,2.4-5.4,2.4c-2.2,0-4.1-0.9-5.4-2.4  c-0.2-0.3-0.5-0.6-0.7-0.9c-0.8-1.2-1.3-2.6-1.3-4.2c0-4.1,3.3-7.4,7.4-7.4c0.1,0,0.2,0,0.4,0l-4.6,4.6c-0.1,0.1-0.1,0.2-0.1,0.3  v6.7c0,0.1,0.1,0.3,0.1,0.3c0.1,0.1,0.2,0.1,0.3,0.1h5.7c0.1,0,0.3-0.1,0.3-0.1l5.2-5.2c0,0.2,0,0.4,0,0.6  C-19.9-176.2-20.4-174.7-21.2-173.5z" id="svg_62"/><g class="selected"><g id="svg_33" class="">
	<path class="st1" d="M249.85630606984478,15.787262109345033 c-129.31991042414072,0 -234.2127266570548,104.89281623291411 -234.2127266570548,234.2127266570548 c0,45.98041259525003 13.219368621134382,88.7996718245766 36.2095749187594,125.009246743336 c5.460173995685941,8.33394978288907 11.207725570092194,16.380521987057822 17.53003230193907,24.139716612506263 c43.1066368080469,52.01534174837659 108.05396959883755,85.06376330121255 180.7604970150767,85.06376330121255 c72.4191498375188,0 137.36648262830946,-32.761043974115644 180.18574185763603,-84.48900814377193 c6.322306731846878,-7.759194625448442 12.357235884973445,-15.805766829617198 17.53003230193907,-24.139716612506263 c22.990206297625015,-36.2095749187594 36.49695249747971,-79.3162117268063 36.49695249747971,-125.58400190077664 C484.35641030561993,120.68007834225918 379.4635940727058,15.787262109345033 249.85630606984478,15.787262109345033 zM421.70809814459176,367.25004088428744 c-5.747551574406254,8.62132736160938 -12.357235884973445,16.667899565778136 -19.25429777426095,24.139716612506263 c-37.933840391081276,40.8076161782844 -92.24820276922037,66.67159826311253 -152.31011672176572,66.67159826311253 c-60.34929153126566,0 -114.95103148812507,-25.86398208482814 -152.88487187920634,-66.95897584183285 c-6.897061889287504,-7.4718170467281295 -13.506746199854694,-15.518389250896885 -19.25429777426095,-24.139716612506263 c-22.7028287189047,-33.33579913155627 -35.922197340039084,-73.28128257367973 -35.922197340039084,-116.67529696044694 c0,-114.66365390940476 93.1103355053813,-207.77398941478606 207.77398941478606,-207.77398941478606 s207.77398941478606,93.1103355053813 207.77398941478606,207.77398941478606 C457.63029548463084,293.3940031531671 444.41092686349646,333.9142417527312 421.70809814459176,367.25004088428744 z" id="svg_34"/>
</g><g id="svg_35" class="">
	<g id="svg_36">
		<path class="st1" d="M334.92006937105737,336.500639961214 l-9.483460097770319,9.483460097770319 l-1.4368878936015639,1.4368878936015639 v2.0116430510421903 v28.737757872031267 h-150.29847367072352 V121.54221107842008 h150.29847367072352 v31.03677850179377 v2.0116430510421903 l1.4368878936015639,1.4368878936015639 l20.4038080891422,20.4038080891422 l8.62132736160938,8.62132736160938 v-12.069858306253131 v-66.67159826311253 c0,-8.33394978288907 -6.897061889287504,-15.231011672176573 -15.231011672176573,-15.231011672176573 h-180.7604970150767 c-8.33394978288907,0 -15.231011672176573,6.897061889287504 -15.231011672176573,15.231011672176573 v287.09020114159233 c0,8.33394978288907 6.897061889287504,15.231011672176573 15.231011672176573,15.231011672176573 H339.23073305186205 c8.33394978288907,0 15.231011672176573,-6.897061889287504 15.231011672176573,-15.231011672176573 v-64.37257763335003 v-12.069858306253131 l-8.62132736160938,8.62132736160938 L334.92006937105737,336.500639961214 zM150.99841899005725,400.29846243712336 c-0.28737757872031305,-0.28737757872031305 -0.5747551574406258,-0.5747551574406258 -0.8621327361609386,-0.8621327361609386 C150.42366383261663,399.7237072796828 150.71104141133694,400.011084858403 150.99841899005725,400.29846243712336 zM149.848908675176,398.8615745435218 c-0.28737757872031305,-0.28737757872031305 -0.28737757872031305,-0.5747551574406258 -0.5747551574406258,-0.8621327361609386 C149.56153109645567,398.2868193860812 149.848908675176,398.57419696480156 149.848908675176,398.8615745435218 zM329.1725177966511,152.86636715893417 v-36.2095749187594 h0 L329.1725177966511,152.86636715893417 l20.4038080891422,20.4038080891422 v0 L329.1725177966511,152.86636715893417 zM158.47023603678537,96.25298415103256 H339.23073305186205 c1.14951031488125,0 2.586398208482814,0.28737757872031305 3.448530944643752,0.5747551574406258 c-1.14951031488125,-0.28737757872031305 -2.2990206297625018,-0.5747551574406258 -3.448530944643752,-0.5747551574406258 H158.47023603678537 c-1.4368878936015639,0 -2.586398208482814,0.28737757872031305 -4.023286102084377,0.8621327361609386 C155.88383782830257,96.54036172975292 157.03334814318382,96.25298415103256 158.47023603678537,96.25298415103256 zM348.71419314963237,396.84993149247964 c0,-0.28737757872031305 0,-0.28737757872031305 0.28737757872031305,-0.5747551574406258 C348.71419314963237,396.56255391375936 348.71419314963237,396.84993149247964 348.71419314963237,396.84993149247964 zM338.6559778944214,339.9491709058578 l-9.483460097770319,9.483460097770319 v33.91055428899689 h-160.35668892593446 l0,0 h160.35668892593446 v-33.91055428899689 L338.6559778944214,339.9491709058578 l10.632970412651568,-10.632970412651568 L338.6559778944214,339.9491709058578 z" id="svg_37"/>
	</g>
	<g id="svg_38">
		<path class="st1" d="M375.1529303919011,240.51652866862958 L287.5027688822057,152.86636715893417 c-2.8737757872031278,-2.8737757872031278 -6.609684310567192,-4.5980412595250035 -10.632970412651568,-4.5980412595250035 c-4.023286102084377,0 -8.046572204168754,1.7242654723218767 -10.632970412651568,4.5980412595250035 c-2.8737757872031278,2.8737757872031278 -4.31066368080469,6.609684310567192 -4.31066368080469,10.632970412651568 c0,4.023286102084377 1.7242654723218767,7.759194625448442 4.5980412595250035,10.632970412651568 l77.0171910970438,77.0171910970438 L296.12409624381513,298.27942199141245 l-27.588247557150016,27.588247557150016 c-5.747551574406254,5.747551574406254 -5.747551574406254,15.518389250896885 0,21.265940825303137 c2.8737757872031278,2.8737757872031278 6.609684310567192,4.5980412595250035 10.632970412651568,4.5980412595250035 c4.023286102084377,0 7.759194625448442,-1.4368878936015639 10.632970412651568,-4.31066368080469 l13.219368621134382,-13.219368621134382 l72.13177225879848,-72.13177225879848 c2.8737757872031278,-2.8737757872031278 4.31066368080469,-6.609684310567192 4.31066368080469,-10.632970412651568 C379.75097165142614,247.12621297919668 378.0267061791043,243.3903044558327 375.1529303919011,240.51652866862958 zM267.6737159505043,158.61391873334045 C267.6737159505043,158.61391873334045 267.6737159505043,158.61391873334045 267.6737159505043,158.61391873334045 C267.6737159505043,158.61391873334045 267.6737159505043,158.61391873334045 267.6737159505043,158.61391873334045 zM266.8115832143432,161.77507209926387 c0,0.5747551574406258 0,1.14951031488125 0,1.4368878936015639 C266.524205635623,162.92458241414514 266.524205635623,162.34982725670451 266.8115832143432,161.77507209926387 zM266.524205635623,163.49933757158573 c0,2.586398208482814 0.8621327361609386,5.172796416965628 2.8737757872031278,7.184439468007817 l40.23286102084378,40.23286102084378 l-40.23286102084378,-40.23286102084378 C267.6737159505043,168.67213398855137 266.524205635623,166.08573578006857 266.524205635623,163.49933757158573 zM299.5726271884589,302.01533051477645 l25.289226927387514,-25.289226927387514 L299.5726271884589,302.01533051477645 l-10.920347991371882,10.920347991371882 L299.5726271884589,302.01533051477645 zM286.3532585673245,343.9724570079421 c-2.0116430510421903,2.0116430510421903 -4.5980412595250035,2.8737757872031278 -7.184439468007817,2.8737757872031278 c-2.586398208482814,0 -5.172796416965628,-1.14951031488125 -7.184439468007817,-2.8737757872031278 c-3.448530944643752,-3.448530944643752 -3.7359085233640648,-8.62132736160938 -1.4368878936015639,-12.644613463693757 c-2.586398208482814,4.023286102084377 -2.0116430510421903,9.196082519050007 1.4368878936015639,12.644613463693757 c2.0116430510421903,2.0116430510421903 4.5980412595250035,2.8737757872031278 7.184439468007817,2.8737757872031278 C281.75521730779946,346.8462327951452 284.34161551628233,345.696722480264 286.3532585673245,343.9724570079421 l6.609684310567192,-6.609684310567192 L286.3532585673245,343.9724570079421 zM371.70439944725734,258.333938549289 l-24.139716612506263,24.139716612506263 L371.70439944725734,258.333938549289 c1.4368878936015639,-1.4368878936015639 2.2990206297625018,-3.161153365923439 2.8737757872031278,-5.172796416965628 c0,-0.5747551574406258 0.28737757872031305,-1.14951031488125 0.28737757872031305,-2.0116430510421903 c0,0.5747551574406258 0,1.14951031488125 -0.28737757872031305,2.0116430510421903 C374.2907976557402,255.17278518336548 373.141287340859,256.89705065568734 371.70439944725734,258.333938549289 zM374.57817523446056,251.14949908128114 c0,-2.586398208482814 -0.8621327361609386,-5.172796416965628 -2.8737757872031278,-7.184439468007817 l-21.840695982743764,-21.840695982743764 l21.840695982743764,21.840695982743764 C373.71604249829954,245.97670266431544 374.57817523446056,248.56310087279832 374.57817523446056,251.14949908128114 z" id="svg_39"/>
	</g>
</g></g></g></svg>