<svg xmlns="http://www.w3.org/2000/svg" xmlns:xlink="http://www.w3.org/1999/xlink" version="1.1" style="enable-background:new 0 0 500 500;" xml:space="preserve" width="500" height="500"><rect id="backgroundrect" width="100%" height="100%" x="0" y="0" fill="none" stroke="none"/>
<style type="text/css">
	.st0{fill:#1B1924;}
	.st1{fill:#FFFFFF;}
</style>



















<g class="currentLayer" style=""><title>Layer 1</title><rect x="-588" y="-356.8999938964844" class="st0" width="1920" height="225" id="svg_1"/><path class="st0" d="M-19.1-409.2c-0.1-0.4-0.2-0.7-0.3-1.1c-0.8-2.6-3-4.7-5.6-5.5c-0.4-0.1-0.7-0.2-1.1-0.2  c-0.4-0.1-0.8-0.1-1.2-0.1c-4.6,0-8.4,3.7-8.4,8.4c0,1.6,0.5,3.2,1.3,4.5c0.2,0.3,0.4,0.6,0.6,0.9c1.5,1.9,3.8,3,6.4,3  c2.6,0,4.9-1.2,6.4-3c0.2-0.3,0.4-0.6,0.6-0.9c0.8-1.3,1.3-2.8,1.3-4.5C-19-408.2-19-408.7-19.1-409.2z M-20.2-409.5l-5.5,5.5h-5v-6  l5-5C-23-414.4-20.8-412.2-20.2-409.5z M-21.2-403.5c-0.2,0.3-0.4,0.6-0.7,0.9c-1.4,1.5-3.3,2.4-5.4,2.4c-2.2,0-4.1-0.9-5.4-2.4  c-0.2-0.3-0.5-0.6-0.7-0.9c-0.8-1.2-1.3-2.6-1.3-4.2c0-4.1,3.3-7.4,7.4-7.4c0.1,0,0.2,0,0.4,0l-4.6,4.6c-0.1,0.1-0.1,0.2-0.1,0.3  v6.7c0,0.1,0.1,0.3,0.1,0.3c0.1,0.1,0.2,0.1,0.3,0.1h5.7c0.1,0,0.3-0.1,0.3-0.1l5.2-5.2c0,0.2,0,0.4,0,0.6  C-19.9-406.2-20.4-404.7-21.2-403.5z" id="svg_2"/><g id="svg_3">
	<path class="st1" d="M-395.5-315.1c-4,2.2-6.8,6.5-6.8,11.4c0,7.2,5.8,13,13,13c4.9,0,9.2-2.7,11.4-6.8c0.5-0.8,0.8-1.7,1.1-2.7   h22.1c21,0,38.3,15.9,40.6,36.4h-63.1c0-0.1-0.1-0.2-0.1-0.3c-1.3-3-3.7-5.4-6.7-6.7c-1.6-0.7-3.4-1.1-5.2-1.1   c-2.3,0-4.4,0.6-6.2,1.6c-4,2.2-6.8,6.5-6.8,11.4c0,7.2,5.8,13,13,13c4.9,0,9.2-2.7,11.4-6.8c0.2-0.4,0.4-0.9,0.6-1.3h63   c-2.6,20-19.8,35.5-40.5,35.5H-377c-0.1-0.2-0.2-0.5-0.3-0.7c-1.3-3-3.7-5.4-6.7-6.7c-1.6-0.7-3.4-1.1-5.2-1.1   c-2.3,0-4.4,0.6-6.2,1.6c-4,2.2-6.8,6.5-6.8,11.4c0,7.2,5.8,13,13,13c4.9,0,9.2-2.7,11.4-6.8c0.2-0.3,0.3-0.6,0.4-0.9h22.7   c26.1,0,47.7-19.9,50.4-45.3h30.4c1.9,4.7,6.6,8.1,12,8.1c4.9,0,9.2-2.7,11.4-6.8c1-1.9,1.6-4,1.6-6.2c0-1.9-0.4-3.6-1.1-5.2   c-1.3-3-3.7-5.4-6.7-6.7c-1.6-0.7-3.4-1.1-5.2-1.1c-2.3,0-4.4,0.6-6.2,1.6c-2.6,1.4-4.7,3.7-5.8,6.5h-30.4   c-2.3-25.9-24.1-46.2-50.5-46.2h-23.2c-1.4-2.5-3.6-4.5-6.2-5.6c-1.6-0.7-3.4-1.1-5.2-1.1C-391.5-316.6-393.6-316.1-395.5-315.1z" id="svg_4"/>
</g><g id="svg_5">
	<g id="svg_6">
		<path class="st0" d="M956.6-521.8c-22.7,0-41.1,18.4-41.1,41.1c0,8.1,2.3,15.6,6.3,21.9c0.9,1.5,2,2.9,3.1,4.2    c7.5,9.1,18.9,14.9,31.7,14.9c12.7,0,24.1-5.8,31.6-14.8c1.1-1.3,2.1-2.8,3.1-4.2c4-6.4,6.4-13.9,6.4-22    C997.6-503.4,979.3-521.8,956.6-521.8z M986.7-460.2c-1,1.5-2.1,2.9-3.4,4.2c-6.7,7.2-16.2,11.7-26.7,11.7    c-10.6,0-20.1-4.5-26.8-11.7c-1.2-1.3-2.3-2.7-3.4-4.2c-4-5.8-6.3-12.9-6.3-20.4c0-20.1,16.3-36.4,36.4-36.4s36.4,16.3,36.4,36.4    C993-473.1,990.7-466,986.7-460.2z" id="svg_7"/>
	</g>
	<g id="svg_8">
		<g id="svg_9">
			<path class="st0" d="M987-480.5l-9.6-5.5l5.6-9.7h-11v-11.2l-9.6,5.5l-5.6-9.7l-5.5,9.6l-9.7-5.6v11h-11.2l5.5,9.6l-9.7,5.6     l9.6,5.5l-5.6,9.7h11v11.2l9.6-5.5l5.6,9.7l5.5-9.6l9.7,5.6v-11h11.2l-5.5-9.6L987-480.5z M936.9-475.4v-0.1     c0,0.1,0.1,0.2,0.1,0.3L936.9-475.4z M936.9-485.8v-0.1l0.1-0.2C937-486,936.9-485.9,936.9-485.8z M956.6-463.4     c-9.6,0-17.3-7.7-17.3-17.3S947-498,956.6-498s17.3,7.7,17.3,17.3S966.1-463.4,956.6-463.4z" id="svg_10"/>
		</g>
	</g>
</g><path class="st0" d="M1088.4-524.8c24.4,0,44.2,19.8,44.2,44.2c0,24.4-19.8,44.2-44.2,44.2H956.2c-24.4,0-44.2-19.8-44.2-44.2  c0-24.4,19.8-44.2,44.2-44.2H1088.4 M1088.4-530.3H956.2c-27.4,0-49.7,22.2-49.7,49.7c0,27.4,22.2,49.7,49.7,49.7h132.2  c27.4,0,49.7-22.2,49.7-49.7C1138-508.1,1115.8-530.3,1088.4-530.3L1088.4-530.3z" id="svg_11"/><g id="svg_12">
	<g id="svg_13">
		<g id="svg_14">
			<path class="st1" d="M1085.3-287.4c-22.7,0-41.1,18.4-41.1,41.1c0,8.1,2.3,15.6,6.3,21.9c0.9,1.5,2,2.9,3.1,4.2     c7.5,9.1,18.9,14.9,31.7,14.9c12.7,0,24.1-5.8,31.6-14.8c1.1-1.3,2.1-2.8,3.1-4.2c4-6.4,6.4-13.9,6.4-22     C1126.4-269,1108-287.4,1085.3-287.4z M1115.4-225.8c-1,1.5-2.1,2.9-3.4,4.2c-6.7,7.2-16.2,11.7-26.7,11.7     c-10.6,0-20.1-4.5-26.8-11.7c-1.2-1.3-2.3-2.7-3.4-4.2c-4-5.8-6.3-12.9-6.3-20.4c0-20.1,16.3-36.4,36.4-36.4     c20.1,0,36.4,16.3,36.4,36.4C1121.7-238.7,1119.4-231.6,1115.4-225.8z" id="svg_15"/>
		</g>
	</g>
	<g id="svg_16">
		<path class="st1" d="M1111.3-246.2c0,14.7-11.9,26.7-26.7,26.7c-3.6,0-7.1-0.7-10.3-2.1c9.6-4,16.4-13.5,16.4-24.6    c0-11.1-6.8-20.6-16.4-24.6c3.2-1.3,6.6-2.1,10.3-2.1C1099.4-272.9,1111.3-261,1111.3-246.2z" id="svg_17"/>
	</g>
</g><path class="st1" d="M1088.4-290.5c24.4,0,44.2,19.8,44.2,44.2s-19.8,44.2-44.2,44.2H956.2c-24.4,0-44.2-19.8-44.2-44.2  s19.8-44.2,44.2-44.2H1088.4 M1088.4-296H956.2c-27.4,0-49.7,22.2-49.7,49.7s22.2,49.7,49.7,49.7h132.2c27.4,0,49.7-22.2,49.7-49.7  S1115.8-296,1088.4-296L1088.4-296z" id="svg_18"/><g id="svg_19">
	<path class="st1" d="M143.6-327.8c-45,0-81.5,36.5-81.5,81.5c0,16,4.6,30.9,12.6,43.5c1.9,2.9,3.9,5.7,6.1,8.4   c15,18.1,37.6,29.6,62.9,29.6c25.2,0,47.8-11.4,62.7-29.4c2.2-2.7,4.3-5.5,6.1-8.4c8-12.6,12.7-27.6,12.7-43.7   C225.1-291.3,188.6-327.8,143.6-327.8z M203.3-205.5c-2,3-4.3,5.8-6.7,8.4c-13.2,14.2-32.1,23.2-53,23.2c-21,0-40-9-53.2-23.3   c-2.4-2.6-4.7-5.4-6.7-8.4c-7.9-11.6-12.5-25.5-12.5-40.6c0-39.9,32.4-72.3,72.3-72.3s72.3,32.4,72.3,72.3   C215.9-231.2,211.3-217.1,203.3-205.5z" id="svg_20"/>
	<g id="svg_21">
		<path class="st1" d="M151-206.1c-0.8,0-1.5-0.7-1.5-1.5v-61.8h0v-7.7c0-0.8-0.7-1.5-1.5-1.5h-19c-0.8,0-1.5,0.7-1.5,1.5v6.2    c0,0.8,0.7,1.5,1.5,1.5h9.7c0.8,0,1.5,0.7,1.5,1.5v60.3c0,0.8-0.7,1.5-1.5,1.5H129c-0.8,0-1.5,0.7-1.5,1.5v6.2    c0,0.8,0.7,1.5,1.5,1.5h32c0.8,0,1.5-0.7,1.5-1.5v-6.2c0-0.8-0.7-1.5-1.5-1.5H151z" id="svg_22"/>
		<path class="st1" d="M148-297.8h-6.2c-0.8,0-1.5,0.7-1.5,1.5v10.2c0,0.8,0.7,1.5,1.5,1.5h6.2c0.8,0,1.5-0.7,1.5-1.5v-10.2    C149.5-297.1,148.8-297.8,148-297.8z" id="svg_23"/>
	</g>
</g><g id="svg_24">
	<path class="st0" d="M454.2-516.9c-1.6-3.2-3.4-6.3-5.4-9.2c-6-8.8-13.6-16.3-22.5-22.2c-3-2-6.1-3.8-9.4-5.3   c-10.7-5.2-22.8-8.1-35.6-8.1c-45,0-81.5,36.5-81.5,81.5c0,16,4.6,30.9,12.6,43.5c1.9,2.9,3.9,5.7,6.1,8.4   c15,18.1,37.6,29.6,62.9,29.6c25.2,0,47.8-11.4,62.7-29.4c2.2-2.7,4.3-5.5,6.1-8.4c8-12.6,12.7-27.6,12.7-43.7   C462.8-493.5,459.7-505.9,454.2-516.9z M419.6-541.7c9,5.6,16.8,13.2,22.5,22.2l-24.7,24.7l1,3c5.1,15.3,1.2,31.9-10.2,43.3   c-9.3,9.3-22,13.6-34.7,12.1l12.8-12.8c3.5-3.5,5.4-8.1,5.4-13c0-4.9-1.9-9.6-5.4-13l-11-11c-3.5-3.5-8.1-5.4-13-5.4   c-4.9,0-9.6,1.9-13,5.4l-13,13c-1.6-12.8,2.7-25.7,12.1-35.2c11.5-11.5,28.3-15.4,43.7-10.1l3.1,1.1L419.6-541.7L419.6-541.7z    M441.1-439.5c-2,3-4.3,5.8-6.7,8.4c-13.2,14.2-32.1,23.2-53,23.2c-21,0-40-9-53.2-23.3c-2.4-2.6-4.7-5.4-6.7-8.4   c-7.9-11.6-12.5-25.5-12.5-40.6c0-39.9,32.4-72.3,72.3-72.3c10.2,0,19.8,2.1,28.6,5.9l-17.6,17.6c-8.3-2.3-17-2.5-25.5-0.6   c-9.8,2.2-18.7,7.1-25.8,14.2c-7.1,7.1-12,16-14.2,25.8c-2.1,9.5-1.5,19.4,1.6,28.6l2.7,7.9l25.5-25.5c3.1-3.1,8.3-3.1,11.4,0   l11,11c1.5,1.5,2.4,3.6,2.4,5.7c0,2.2-0.8,4.2-2.4,5.7L353.6-431l8,2.7c5.4,1.8,11.1,2.7,16.7,2.7c3.9,0,7.8-0.4,11.7-1.3   c9.7-2.2,18.5-7.1,25.6-14.1c7.1-7.1,11.9-15.9,14.1-25.6c1.9-8.4,1.7-17-0.5-25.3l18.1-18.1c4.1,9.1,6.4,19.1,6.4,29.7   C453.6-465.2,449-451.1,441.1-439.5z" id="svg_25"/>
</g><g id="svg_26">
	<path class="st0" d="M610.9-561.8c-45,0-81.5,36.5-81.5,81.5c0,16,4.6,30.9,12.6,43.5c1.9,2.9,3.9,5.7,6.1,8.4   c15,18.1,37.6,29.6,62.9,29.6c25.2,0,47.8-11.4,62.7-29.4c2.2-2.7,4.3-5.5,6.1-8.4c8-12.6,12.7-27.6,12.7-43.7   C692.5-525.3,656-561.8,610.9-561.8z M670.7-439.5c-2,3-4.3,5.8-6.7,8.4c-13.2,14.2-32.1,23.2-53,23.2c-21,0-40-9-53.2-23.3   c-2.4-2.6-4.7-5.4-6.7-8.4c-7.9-11.6-12.5-25.5-12.5-40.6c0-39.9,32.4-72.3,72.3-72.3c39.9,0,72.3,32.4,72.3,72.3   C683.2-465.2,678.6-451.1,670.7-439.5z" id="svg_27"/>
</g><g id="svg_28">
	<g id="svg_29">
		<path class="st0" d="M640.5-450.2l-3.3,3.3l-0.5,0.5v0.7v10h-52.3V-525h52.3v10.8v0.7l0.5,0.5l7.1,7.1l3,3v-4.2v-23.2    c0-2.9-2.4-5.3-5.3-5.3h-62.9c-2.9,0-5.3,2.4-5.3,5.3v99.9c0,2.9,2.4,5.3,5.3,5.3H642c2.9,0,5.3-2.4,5.3-5.3v-22.4v-4.2l-3,3    L640.5-450.2z M576.5-428c-0.1-0.1-0.2-0.2-0.3-0.3C576.3-428.2,576.4-428.1,576.5-428z M576.1-428.5c-0.1-0.1-0.1-0.2-0.2-0.3    C576-428.7,576.1-428.6,576.1-428.5z M638.5-514.1v-12.6h0L638.5-514.1l7.1,7.1v0L638.5-514.1z M579.1-533.8H642    c0.4,0,0.9,0.1,1.2,0.2c-0.4-0.1-0.8-0.2-1.2-0.2H579.1c-0.5,0-0.9,0.1-1.4,0.3C578.2-533.7,578.6-533.8,579.1-533.8z     M645.3-429.2c0-0.1,0-0.1,0.1-0.2C645.3-429.3,645.3-429.2,645.3-429.2z M641.8-449l-3.3,3.3v11.8h-55.8l0,0h55.8v-11.8    L641.8-449l3.7-3.7L641.8-449z" id="svg_30"/>
	</g>
	<g id="svg_31">
		<path class="st0" d="M654.5-483.6L624-514.1c-1-1-2.3-1.6-3.7-1.6c-1.4,0-2.8,0.6-3.7,1.6c-1,1-1.5,2.3-1.5,3.7    c0,1.4,0.6,2.7,1.6,3.7l26.8,26.8L627-463.5l-9.6,9.6c-2,2-2,5.4,0,7.4c1,1,2.3,1.6,3.7,1.6c1.4,0,2.7-0.5,3.7-1.5l4.6-4.6    l25.1-25.1c1-1,1.5-2.3,1.5-3.7C656.1-481.3,655.5-482.6,654.5-483.6z M617.1-512.1C617.1-512.1,617.1-512.1,617.1-512.1    C617.1-512.1,617.1-512.1,617.1-512.1z M616.8-511c0,0.2,0,0.4,0,0.5C616.7-510.6,616.7-510.8,616.8-511z M616.7-510.4    c0,0.9,0.3,1.8,1,2.5l14,14l-14-14C617.1-508.6,616.7-509.5,616.7-510.4z M628.2-462.2l8.8-8.8L628.2-462.2l-3.8,3.8L628.2-462.2z     M623.6-447.6c-0.7,0.7-1.6,1-2.5,1c-0.9,0-1.8-0.4-2.5-1c-1.2-1.2-1.3-3-0.5-4.4c-0.9,1.4-0.7,3.2,0.5,4.4c0.7,0.7,1.6,1,2.5,1    C622-446.6,622.9-447,623.6-447.6l2.3-2.3L623.6-447.6z M653.3-477.4l-8.4,8.4L653.3-477.4c0.5-0.5,0.8-1.1,1-1.8    c0-0.2,0.1-0.4,0.1-0.7c0,0.2,0,0.4-0.1,0.7C654.2-478.5,653.8-477.9,653.3-477.4z M654.3-479.9c0-0.9-0.3-1.8-1-2.5l-7.6-7.6    l7.6,7.6C654-481.7,654.3-480.8,654.3-479.9z" id="svg_32"/>
	</g>
</g><g id="svg_33">
	<path class="st1" d="M454.2-287c-1.6-3.2-3.4-6.3-5.4-9.2c-6-8.8-13.6-16.3-22.5-22.2c-3-2-6.1-3.8-9.4-5.3   c-10.7-5.2-22.8-8.1-35.6-8.1c-45,0-81.5,36.5-81.5,81.5c0,16,4.6,30.9,12.6,43.5c1.9,2.9,3.9,5.7,6.1,8.4   c15,18.1,37.6,29.6,62.9,29.6c25.2,0,47.8-11.4,62.7-29.4c2.2-2.7,4.3-5.5,6.1-8.4c8-12.6,12.7-27.6,12.7-43.7   C462.8-263.5,459.7-275.9,454.2-287z M419.6-311.7c9,5.6,16.8,13.2,22.5,22.2l-24.7,24.7l1,3c5.1,15.3,1.2,31.9-10.2,43.3   c-9.3,9.3-22,13.6-34.7,12.1l12.8-12.8c3.5-3.5,5.4-8.1,5.4-13c0-4.9-1.9-9.6-5.4-13l-11-11c-3.5-3.5-8.1-5.4-13-5.4   c-4.9,0-9.6,1.9-13,5.4l-13,13c-1.6-12.8,2.7-25.7,12.1-35.2c11.5-11.5,28.3-15.4,43.7-10.1l3.1,1.1L419.6-311.7L419.6-311.7z    M441.1-209.6c-2,3-4.3,5.8-6.7,8.4c-13.2,14.2-32.1,23.2-53,23.2c-21,0-40-9-53.2-23.3c-2.4-2.6-4.7-5.4-6.7-8.4   c-7.9-11.6-12.5-25.5-12.5-40.6c0-39.9,32.4-72.3,72.3-72.3c10.2,0,19.8,2.1,28.6,5.9l-17.6,17.6c-8.3-2.3-17-2.5-25.5-0.6   c-9.8,2.2-18.7,7.1-25.8,14.2c-7.1,7.1-12,16-14.2,25.8c-2.1,9.5-1.5,19.4,1.6,28.6l2.7,7.9l25.5-25.5c3.1-3.1,8.3-3.1,11.4,0   l11,11c1.5,1.5,2.4,3.6,2.4,5.7c0,2.2-0.8,4.2-2.4,5.7L353.6-201l8,2.7c5.4,1.8,11.1,2.7,16.7,2.7c3.9,0,7.8-0.4,11.7-1.3   c9.7-2.2,18.5-7.1,25.6-14.1c7.1-7.1,11.9-15.9,14.1-25.6c1.9-8.4,1.7-17-0.5-25.3l18.1-18.1c4.1,9.1,6.4,19.1,6.4,29.7   C453.6-235.2,449-221.2,441.1-209.6z" id="svg_34"/>
</g><g id="svg_35">
	<path class="st1" d="M-100.1-314.1c-25.1,0-45.5,20.4-45.5,45.5c0,25.1,20.4,45.5,45.5,45.5c25.1,0,45.5-20.4,45.5-45.5   C-54.6-293.6-75-314.1-100.1-314.1z M-100.1-232.9c-19.6,0-35.6-16-35.6-35.6c0-19.6,16-35.6,35.6-35.6c19.6,0,35.6,16,35.6,35.6   C-64.5-248.9-80.5-232.9-100.1-232.9z" id="svg_36"/>
	<path class="st1" d="M-100.1-331.9c-45,0-81.5,36.5-81.5,81.5c0,12.1,2.7,23.7,7.4,34c1.5,3.2,3.1,6.3,5,9.2   c0.1,0.1,0.1,0.2,0.2,0.3c1.9,2.9,3.9,5.7,6.1,8.4c15,18.1,37.6,29.6,62.9,29.6c25.2,0,47.8-11.4,62.7-29.4   c2.2-2.7,4.3-5.5,6.1-8.4c0.1-0.2,0.2-0.3,0.3-0.5c1.9-2.9,3.5-6,5-9.2c4.8-10.4,7.4-21.9,7.4-34   C-18.6-295.4-55.1-331.9-100.1-331.9z M-47.1-201.2c-13.2,14.2-32.1,23.2-53,23.2c-21,0-40-9-53.2-23.3c-1.7-1.8-3.3-3.7-4.8-5.7   h115.9C-43.7-205-45.3-203.1-47.1-201.2z M-163.9-216.3c-5.4-10.1-8.5-21.7-8.5-34c0-39.9,32.4-72.3,72.3-72.3   c39.9,0,72.3,32.4,72.3,72.3c0,12.3-3.1,23.9-8.5,34H-163.9z" id="svg_37"/>
</g><g id="svg_38">
	<path class="st1" d="M610.9-331.9c-45,0-81.5,36.5-81.5,81.5c0,16,4.6,30.9,12.6,43.5c1.9,2.9,3.9,5.7,6.1,8.4   c15,18.1,37.6,29.6,62.9,29.6c25.2,0,47.8-11.4,62.7-29.4c2.2-2.7,4.3-5.5,6.1-8.4c8-12.6,12.7-27.6,12.7-43.7   C692.5-295.4,656-331.9,610.9-331.9z M670.7-209.6c-2,3-4.3,5.8-6.7,8.4c-13.2,14.2-32.1,23.2-53,23.2c-21,0-40-9-53.2-23.3   c-2.4-2.6-4.7-5.4-6.7-8.4c-7.9-11.6-12.5-25.5-12.5-40.6c0-39.9,32.4-72.3,72.3-72.3c39.9,0,72.3,32.4,72.3,72.3   C683.2-235.2,678.6-221.2,670.7-209.6z" id="svg_39"/>
</g><g id="svg_40">
	<g id="svg_41">
		<path class="st1" d="M640.5-220.2l-3.3,3.3l-0.5,0.5v0.7v10h-52.3V-295h52.3v10.8v0.7l0.5,0.5l7.1,7.1l3,3v-4.2v-23.2    c0-2.9-2.4-5.3-5.3-5.3h-62.9c-2.9,0-5.3,2.4-5.3,5.3v99.9c0,2.9,2.4,5.3,5.3,5.3H642c2.9,0,5.3-2.4,5.3-5.3v-22.4v-4.2l-3,3    L640.5-220.2z M576.5-198c-0.1-0.1-0.2-0.2-0.3-0.3C576.3-198.2,576.4-198.1,576.5-198z M576.1-198.5c-0.1-0.1-0.1-0.2-0.2-0.3    C576-198.8,576.1-198.6,576.1-198.5z M638.5-284.2v-12.6h0L638.5-284.2l7.1,7.1v0L638.5-284.2z M579.1-303.8H642    c0.4,0,0.9,0.1,1.2,0.2c-0.4-0.1-0.8-0.2-1.2-0.2H579.1c-0.5,0-0.9,0.1-1.4,0.3C578.2-303.7,578.6-303.8,579.1-303.8z     M645.3-199.2c0-0.1,0-0.1,0.1-0.2C645.3-199.4,645.3-199.3,645.3-199.2z M641.8-219l-3.3,3.3v11.8h-55.8l0,0h55.8v-11.8    L641.8-219l3.7-3.7L641.8-219z" id="svg_42"/>
	</g>
	<g id="svg_43">
		<path class="st1" d="M654.5-253.7L624-284.2c-1-1-2.3-1.6-3.7-1.6c-1.4,0-2.8,0.6-3.7,1.6c-1,1-1.5,2.3-1.5,3.7    c0,1.4,0.6,2.7,1.6,3.7l26.8,26.8L627-233.5l-9.6,9.6c-2,2-2,5.4,0,7.4c1,1,2.3,1.6,3.7,1.6c1.4,0,2.7-0.5,3.7-1.5l4.6-4.6    l25.1-25.1c1-1,1.5-2.3,1.5-3.7C656.1-251.3,655.5-252.7,654.5-253.7z M617.1-282.1C617.1-282.1,617.1-282.1,617.1-282.1    C617.1-282.1,617.1-282.1,617.1-282.1z M616.8-281.1c0,0.2,0,0.4,0,0.5C616.7-280.7,616.7-280.9,616.8-281.1z M616.7-280.5    c0,0.9,0.3,1.8,1,2.5l14,14l-14-14C617.1-278.7,616.7-279.6,616.7-280.5z M628.2-232.3l8.8-8.8L628.2-232.3l-3.8,3.8L628.2-232.3z     M623.6-217.7c-0.7,0.7-1.6,1-2.5,1c-0.9,0-1.8-0.4-2.5-1c-1.2-1.2-1.3-3-0.5-4.4c-0.9,1.4-0.7,3.2,0.5,4.4c0.7,0.7,1.6,1,2.5,1    C622-216.7,622.9-217,623.6-217.7l2.3-2.3L623.6-217.7z M653.3-247.5l-8.4,8.4L653.3-247.5c0.5-0.5,0.8-1.1,1-1.8    c0-0.2,0.1-0.4,0.1-0.7c0,0.2,0,0.4-0.1,0.7C654.2-248.6,653.8-248,653.3-247.5z M654.3-249.9c0-0.9-0.3-1.8-1-2.5l-7.6-7.6    l7.6,7.6C654-251.7,654.3-250.8,654.3-249.9z" id="svg_44"/>
	</g>
</g><g id="svg_45">
	<g id="svg_46">
		<path class="st0" d="M822.8-450.2l-3.3,3.3l-0.5,0.5v0.7v10h-52.3V-525H819v10.8v0.7l0.5,0.5l7.1,7.1l3,3v-4.2v-23.2    c0-2.9-2.4-5.3-5.3-5.3h-62.9c-2.9,0-5.3,2.4-5.3,5.3v99.9c0,2.9,2.4,5.3,5.3,5.3h62.9c2.9,0,5.3-2.4,5.3-5.3v-22.4v-4.2l-3,3    L822.8-450.2z M758.8-428c-0.1-0.1-0.2-0.2-0.3-0.3C758.6-428.2,758.7-428.1,758.8-428z M758.4-428.5c-0.1-0.1-0.1-0.2-0.2-0.3    C758.3-428.7,758.4-428.6,758.4-428.5z M820.7-514.1v-12.6h0L820.7-514.1l7.1,7.1v0L820.7-514.1z M761.4-533.8h62.9    c0.4,0,0.9,0.1,1.2,0.2c-0.4-0.1-0.8-0.2-1.2-0.2H761.4c-0.5,0-0.9,0.1-1.4,0.3C760.5-533.7,760.9-533.8,761.4-533.8z     M827.6-429.2c0-0.1,0-0.1,0.1-0.2C827.6-429.3,827.6-429.2,827.6-429.2z M824-449l-3.3,3.3v11.8h-55.8l0,0h55.8v-11.8L824-449    l3.7-3.7L824-449z" id="svg_47"/>
	</g>
	<g id="svg_48">
		<path class="st0" d="M836.8-483.6l-30.5-30.5c-1-1-2.3-1.6-3.7-1.6c-1.4,0-2.8,0.6-3.7,1.6c-1,1-1.5,2.3-1.5,3.7    c0,1.4,0.6,2.7,1.6,3.7l26.8,26.8l-16.4,16.4l-9.6,9.6c-2,2-2,5.4,0,7.4c1,1,2.3,1.6,3.7,1.6c1.4,0,2.7-0.5,3.7-1.5l4.6-4.6    l25.1-25.1c1-1,1.5-2.3,1.5-3.7C838.4-481.3,837.8-482.6,836.8-483.6z M799.4-512.1C799.4-512.1,799.4-512.1,799.4-512.1    C799.4-512.1,799.4-512.1,799.4-512.1z M799.1-511c0,0.2,0,0.4,0,0.5C799-510.6,799-510.8,799.1-511z M799-510.4    c0,0.9,0.3,1.8,1,2.5l14,14l-14-14C799.4-508.6,799-509.5,799-510.4z M810.5-462.2l8.8-8.8L810.5-462.2l-3.8,3.8L810.5-462.2z     M805.8-447.6c-0.7,0.7-1.6,1-2.5,1c-0.9,0-1.8-0.4-2.5-1c-1.2-1.2-1.3-3-0.5-4.4c-0.9,1.4-0.7,3.2,0.5,4.4c0.7,0.7,1.6,1,2.5,1    C804.3-446.6,805.1-447,805.8-447.6l2.3-2.3L805.8-447.6z M835.6-477.4l-8.4,8.4L835.6-477.4c0.5-0.5,0.8-1.1,1-1.8    c0-0.2,0.1-0.4,0.1-0.7c0,0.2,0,0.4-0.1,0.7C836.4-478.5,836.1-477.9,835.6-477.4z M836.6-479.9c0-0.9-0.3-1.8-1-2.5l-7.6-7.6    l7.6,7.6C836.3-481.7,836.6-480.8,836.6-479.9z" id="svg_49"/>
	</g>
</g><g id="svg_50" class="selected">
	<g id="svg_51">
		<path class="st1" d="M359.26431201978096,378.9361908335228 l-14.11241774846,14.11241774846 l-2.1382451134030305,2.1382451134030305 v2.993543158764243 v42.76490226806061 h-223.66043886195698 V59.05472186842937 H343.0136491579179 v46.18609444950546 v2.993543158764243 l2.1382451134030305,2.1382451134030305 l30.36308061032303,30.36308061032303 l12.829470680418183,12.829470680418183 v-17.961258952585457 v-99.21457326190061 c0,-12.401821657737576 -10.263576544334546,-22.665398202072122 -22.665398202072122,-22.665398202072122 h-268.9912352661012 c-12.401821657737576,0 -22.665398202072122,10.263576544334546 -22.665398202072122,22.665398202072122 v427.2213736579255 c0,12.401821657737576 10.263576544334546,22.665398202072122 22.665398202072122,22.665398202072122 h268.9912352661012 c12.401821657737576,0 22.665398202072122,-10.263576544334546 22.665398202072122,-22.665398202072122 v-95.79338108045576 v-17.961258952585457 l-12.829470680418183,12.829470680418183 L359.26431201978096,378.9361908335228 zM85.56893750419303,473.87427386861725 c-0.4276490226806061,-0.4276490226806061 -0.8552980453612131,-0.8552980453612131 -1.2829470680418196,-1.2829470680418196 C84.71363945883166,473.01897582325614 85.14128848151236,473.44662484593664 85.56893750419303,473.87427386861725 zM83.8583414134707,471.7360287552143 c-0.4276490226806061,-0.4276490226806061 -0.4276490226806061,-0.8552980453612131 -0.8552980453612131,-1.2829470680418196 C83.43069239079,470.8807307098531 83.8583414134707,471.3083797325336 83.8583414134707,471.7360287552143 zM350.2836825434881,105.66846534061557 v-53.88377685775636 h0 L350.2836825434881,105.66846534061557 l30.36308061032303,30.36308061032303 v0 L350.2836825434881,105.66846534061557 zM96.68781209388885,21.421607872535986 h268.9912352661012 c1.7105960907224245,0 3.8488412041254554,0.4276490226806061 5.131788272167273,0.8552980453612131 c-1.7105960907224245,-0.4276490226806061 -3.421192181444849,-0.8552980453612131 -5.131788272167273,-0.8552980453612131 H96.68781209388885 c-2.1382451134030305,0 -3.8488412041254554,0.4276490226806061 -5.987086317528485,1.2829470680418196 C92.83897088976329,21.849256895216683 94.54956698048585,21.421607872535986 96.68781209388885,21.421607872535986 zM379.7914651084501,468.74248559645 c0,-0.4276490226806061 0,-0.4276490226806061 0.4276490226806061,-0.8552980453612131 C379.7914651084501,468.3148365737694 379.7914651084501,468.74248559645 379.7914651084501,468.74248559645 zM364.3961002919482,384.06797910569003 l-14.11241774846,14.11241774846 v50.46258467631152 h-238.6281546557782 l0,0 h238.6281546557782 v-50.46258467631152 L364.3961002919482,384.06797910569003 l15.823013839182426,-15.823013839182426 L364.3961002919482,384.06797910569003 z" id="svg_52"/>
	</g>
	<g id="svg_53">
		<path class="st1" d="M419.1351751950658,236.1014172582004 l-130.43295191758486,-130.43295191758486 c-4.276490226806061,-4.276490226806061 -9.83592752165394,-6.842384362889698 -15.823013839182426,-6.842384362889698 c-5.987086317528485,0 -11.97417263505697,2.565894136083637 -15.823013839182426,6.842384362889698 c-4.276490226806061,4.276490226806061 -6.414735340209091,9.83592752165394 -6.414735340209091,15.823013839182426 c0,5.987086317528485 2.565894136083637,11.546523612376365 6.842384362889698,15.823013839182426 l114.60993807840245,114.60993807840245 l-70.1344397196194,70.1344397196194 l-41.054306177338184,41.054306177338184 c-8.552980453612122,8.552980453612122 -8.552980453612122,23.09304722475273 0,31.646027678364852 c4.276490226806061,4.276490226806061 9.83592752165394,6.842384362889698 15.823013839182426,6.842384362889698 c5.987086317528485,0 11.546523612376365,-2.1382451134030305 15.823013839182426,-6.414735340209091 l19.67185504330788,-19.67185504330788 l107.33990469283214,-107.33990469283214 c4.276490226806061,-4.276490226806061 6.414735340209091,-9.83592752165394 6.414735340209091,-15.823013839182426 C425.9775595579554,245.9373447798542 423.4116654218718,240.37790748500646 419.1351751950658,236.1014172582004 zM259.19444071251917,114.22144579422769 C259.19444071251917,114.22144579422769 259.19444071251917,114.22144579422769 259.19444071251917,114.22144579422769 C259.19444071251917,114.22144579422769 259.19444071251917,114.22144579422769 259.19444071251917,114.22144579422769 zM257.91149364447716,118.92558504371425 c0,0.8552980453612131 0,1.7105960907224245 0,2.1382451134030305 C257.48384462179666,120.63618113443675 257.48384462179666,119.78088308907542 257.91149364447716,118.92558504371425 zM257.48384462179666,121.49147917979775 c0,3.8488412041254554 1.2829470680418196,7.697682408250911 4.276490226806061,10.691225567015152 l59.87086317528485,59.87086317528485 l-59.87086317528485,-59.87086317528485 C259.19444071251917,129.18916158804888 257.48384462179666,125.34032038392331 257.48384462179666,121.49147917979775 zM306.66348223006634,327.61830811185 l37.63311399589334,-37.63311399589334 L306.66348223006634,327.61830811185 l-16.25066286186303,16.25066286186303 L306.66348223006634,327.61830811185 zM286.5639781640779,390.05506542321837 c-2.993543158764243,2.993543158764243 -6.842384362889698,4.276490226806061 -10.691225567015152,4.276490226806061 c-3.8488412041254554,0 -7.697682408250911,-1.7105960907224245 -10.691225567015152,-4.276490226806061 c-5.131788272167273,-5.131788272167273 -5.5594372948478785,-12.829470680418183 -2.1382451134030305,-18.81655699794667 c-3.8488412041254554,5.987086317528485 -2.993543158764243,13.684768725779396 2.1382451134030305,18.81655699794667 c2.993543158764243,2.993543158764243 6.842384362889698,4.276490226806061 10.691225567015152,4.276490226806061 C280.1492428238688,394.3315556500245 283.5704350053137,392.62095955930215 286.5639781640779,390.05506542321837 l9.83592752165394,-9.83592752165394 L286.5639781640779,390.05506542321837 zM414.0033869228986,262.61565666439776 l-35.922517905170906,35.922517905170906 L414.0033869228986,262.61565666439776 c2.1382451134030305,-2.1382451134030305 3.421192181444849,-4.704139249486667 4.276490226806061,-7.697682408250911 c0,-0.8552980453612131 0.4276490226806061,-1.7105960907224245 0.4276490226806061,-2.993543158764243 c0,0.8552980453612131 0,1.7105960907224245 -0.4276490226806061,2.993543158764243 C417.42457910434325,257.9115174149112 416.14163203630164,260.4774115509947 414.0033869228986,262.61565666439776 zM418.2798771497046,251.92443109738258 c0,-3.8488412041254554 -1.2829470680418196,-7.697682408250911 -4.276490226806061,-10.691225567015152 l-32.50132572372606,-32.50132572372606 l32.50132572372606,32.50132572372606 C416.99693008166275,244.22674868913185 418.2798771497046,248.07558989325724 418.2798771497046,251.92443109738258 z" id="svg_54"/>
	</g>
</g><g id="svg_55">
	<g id="svg_56">
		<path class="st1" d="M822.8-220.2l-3.3,3.3l-0.5,0.5v0.7v10h-52.3V-295H819v10.8v0.7l0.5,0.5l7.1,7.1l3,3v-4.2v-23.2    c0-2.9-2.4-5.3-5.3-5.3h-62.9c-2.9,0-5.3,2.4-5.3,5.3v99.9c0,2.9,2.4,5.3,5.3,5.3h62.9c2.9,0,5.3-2.4,5.3-5.3v-22.4v-4.2l-3,3    L822.8-220.2z M758.8-198c-0.1-0.1-0.2-0.2-0.3-0.3C758.6-198.2,758.7-198.1,758.8-198z M758.4-198.5c-0.1-0.1-0.1-0.2-0.2-0.3    C758.3-198.8,758.4-198.6,758.4-198.5z M820.7-284.2v-12.6h0L820.7-284.2l7.1,7.1v0L820.7-284.2z M761.4-303.8h62.9    c0.4,0,0.9,0.1,1.2,0.2c-0.4-0.1-0.8-0.2-1.2-0.2H761.4c-0.5,0-0.9,0.1-1.4,0.3C760.5-303.7,760.9-303.8,761.4-303.8z     M827.6-199.2c0-0.1,0-0.1,0.1-0.2C827.6-199.4,827.6-199.3,827.6-199.2z M824-219l-3.3,3.3v11.8h-55.8l0,0h55.8v-11.8L824-219    l3.7-3.7L824-219z" id="svg_57"/>
	</g>
	<g id="svg_58">
		<path class="st1" d="M836.8-253.7l-30.5-30.5c-1-1-2.3-1.6-3.7-1.6c-1.4,0-2.8,0.6-3.7,1.6c-1,1-1.5,2.3-1.5,3.7    c0,1.4,0.6,2.7,1.6,3.7l26.8,26.8l-16.4,16.4l-9.6,9.6c-2,2-2,5.4,0,7.4c1,1,2.3,1.6,3.7,1.6c1.4,0,2.7-0.5,3.7-1.5l4.6-4.6    l25.1-25.1c1-1,1.5-2.3,1.5-3.7C838.4-251.3,837.8-252.7,836.8-253.7z M799.4-282.1C799.4-282.1,799.4-282.1,799.4-282.1    C799.4-282.1,799.4-282.1,799.4-282.1z M799.1-281.1c0,0.2,0,0.4,0,0.5C799-280.7,799-280.9,799.1-281.1z M799-280.5    c0,0.9,0.3,1.8,1,2.5l14,14l-14-14C799.4-278.7,799-279.6,799-280.5z M810.5-232.3l8.8-8.8L810.5-232.3l-3.8,3.8L810.5-232.3z     M805.8-217.7c-0.7,0.7-1.6,1-2.5,1c-0.9,0-1.8-0.4-2.5-1c-1.2-1.2-1.3-3-0.5-4.4c-0.9,1.4-0.7,3.2,0.5,4.4c0.7,0.7,1.6,1,2.5,1    C804.3-216.7,805.1-217,805.8-217.7l2.3-2.3L805.8-217.7z M835.6-247.5l-8.4,8.4L835.6-247.5c0.5-0.5,0.8-1.1,1-1.8    c0-0.2,0.1-0.4,0.1-0.7c0,0.2,0,0.4-0.1,0.7C836.4-248.6,836.1-248,835.6-247.5z M836.6-249.9c0-0.9-0.3-1.8-1-2.5l-7.6-7.6    l7.6,7.6C836.3-251.7,836.6-250.8,836.6-249.9z" id="svg_59"/>
	</g>
</g><path class="st1" d="M-19.1-179.2c-0.1-0.4-0.2-0.7-0.3-1.1c-0.8-2.6-3-4.7-5.6-5.5c-0.4-0.1-0.7-0.2-1.1-0.2  c-0.4-0.1-0.8-0.1-1.2-0.1c-4.6,0-8.4,3.7-8.4,8.4c0,1.6,0.5,3.2,1.3,4.5c0.2,0.3,0.4,0.6,0.6,0.9c1.5,1.9,3.8,3,6.4,3  c2.6,0,4.9-1.2,6.4-3c0.2-0.3,0.4-0.6,0.6-0.9c0.8-1.3,1.3-2.8,1.3-4.5C-19-178.2-19-178.7-19.1-179.2z M-20.2-179.5l-5.5,5.5h-5v-6  l5-5C-23-184.4-20.8-182.2-20.2-179.5z M-21.2-173.5c-0.2,0.3-0.4,0.6-0.7,0.9c-1.4,1.5-3.3,2.4-5.4,2.4c-2.2,0-4.1-0.9-5.4-2.4  c-0.2-0.3-0.5-0.6-0.7-0.9c-0.8-1.2-1.3-2.6-1.3-4.2c0-4.1,3.3-7.4,7.4-7.4c0.1,0,0.2,0,0.4,0l-4.6,4.6c-0.1,0.1-0.1,0.2-0.1,0.3  v6.7c0,0.1,0.1,0.3,0.1,0.3c0.1,0.1,0.2,0.1,0.3,0.1h5.7c0.1,0,0.3-0.1,0.3-0.1l5.2-5.2c0,0.2,0,0.4,0,0.6  C-19.9-176.2-20.4-174.7-21.2-173.5z" id="svg_60"/></g></svg>