<svg xmlns="http://www.w3.org/2000/svg" xmlns:xlink="http://www.w3.org/1999/xlink" version="1.1" style="" xml:space="preserve" width="291.63157647072137" height="273.52631372560097"><rect id="backgroundrect" width="100%" height="100%" x="0" y="0" fill="#0B0B15" stroke="none" class="selected" style=""/>
<style type="text/css">
	.st0{fill:#006837;}
	.st1{fill:#FFFFFF;}
</style>














<g class="currentLayer" style=""><title>Layer 1</title><g id="svg_1" class="">
	<path class="st0" d="M135.05789575576782,13.399999523162847 v113.7 H21.357895755767828 V13.399999523162847 H135.05789575576782 M148.45789575576782,-4.76837158203125e-7 H7.957895755767822 V140.49999952316284 H148.45789575576782 V-4.76837158203125e-7 L148.45789575576782,-4.76837158203125e-7 z" id="svg_2"/>
	<path class="st1" d="M135.05789575576782,162.79999952316285 V260.49999952316284 H37.45789575576782 v-97.7 H135.05789575576782 M148.45789575576782,149.39999952316285 H24.057895755767817 v124.4 H148.45789575576782 V149.39999952316285 L148.45789575576782,149.39999952316285 z" id="svg_3"/>
	<path class="st1" d="M268.4578957557678,29.499999523162842 v97.7 h-97.7 V29.499999523162842 H268.4578957557678 M281.75789575576783,16.099999523162836 H157.3578957557678 V140.49999952316284 h124.4 V16.099999523162836 L281.75789575576783,16.099999523162836 z" id="svg_4"/>
	<path class="st0" d="M268.4578957557678,162.79999952316285 V260.49999952316284 h-97.7 v-97.7 H268.4578957557678 M281.75789575576783,149.39999952316285 H157.3578957557678 v124.4 h124.4 V149.39999952316285 L281.75789575576783,149.39999952316285 z" id="svg_5"/>
</g><path class="st0" d="M43.39999694824219,414.98946647644044 c0,6.5 -2,11.8 -6.1,16.1 c-4.1,4.3 -9.3,6.4 -15.8,6.4 c-6.3,0 -11.5,-2.1 -15.5,-6.4 c-4,-4.3 -6,-9.6 -6,-16.1 v-9.5 c0,-6.4 2,-11.8 5.9,-16.1 c4,-4.3 9.1,-6.4 15.5,-6.4 c6.5,0 11.7,2.1 15.8,6.4 c4.1,4.3 6.1,9.6 6.1,16.1 V414.98946647644044 zM34.599996948242186,405.3894664764404 c0,-4.4 -1.2,-8 -3.5,-10.9 c-2.4,-2.8 -5.5,-4.3 -9.6,-4.3 c-3.9,0 -7,1.4 -9.2,4.3 c-2.2,2.8 -3.4,6.5 -3.4,10.9 v9.6 c0,4.5 1.1,8.1 3.4,11 c2.3,2.8 5.3,4.3 9.2,4.3 c4,0 7.2,-1.4 9.6,-4.3 c2.3,-2.8 3.5,-6.5 3.5,-11 V405.3894664764404 z" id="svg_6"/><path class="st0" d="M59.89999694824219,397.3894664764404 l0.5,5.7 c1.3,-2 2.9,-3.6 4.9,-4.7 c2,-1.1 4.2,-1.7000000000000002 6.6,-1.7000000000000002 c4.1,0 7.3,1.3 9.6,3.8 c2.3,2.5 3.4,6.5 3.4,11.8 v24.5 h-8.8 v-24.4 c0,-3.1 -0.6000000000000001,-5.2 -1.8,-6.5 c-1.2,-1.3 -3,-1.9 -5.4,-1.9 c-1.9,0 -3.5,0.4 -4.9,1.1 c-1.4,0.7000000000000001 -2.5,1.7000000000000002 -3.3,3 v28.8 h-8.8 v-39.3 H59.89999694824219 z" id="svg_7"/><path class="st0" d="M103.49999694824218,436.68946647644043 h-8.8 v-56.7 h8.8 V436.68946647644043 z" id="svg_8"/><path class="st0" d="M122.79999694824218,387.78946647644045 h-8.8 v-7.7 h8.8 V387.78946647644045 zM122.79999694824218,436.68946647644043 h-8.8 v-39.3 h8.8 V436.68946647644043 z" id="svg_9"/><path class="st0" d="M140.6999969482422,397.3894664764404 l0.5,5.7 c1.3,-2 2.9,-3.6 4.9,-4.7 c2,-1.1 4.2,-1.7000000000000002 6.6,-1.7000000000000002 c4.1,0 7.3,1.3 9.6,3.8 c2.3,2.5 3.4,6.5 3.4,11.8 v24.5 h-8.8 v-24.4 c0,-3.1 -0.6000000000000001,-5.2 -1.8,-6.5 c-1.2,-1.3 -3,-1.9 -5.4,-1.9 c-1.9,0 -3.5,0.4 -4.9,1.1 c-1.4,0.7000000000000001 -2.5,1.7000000000000002 -3.3,3 v28.8 h-8.8 v-39.3 H140.6999969482422 z" id="svg_10"/><path class="st0" d="M191.5999969482422,437.48946647644044 c-5.7,0 -10.2,-1.8 -13.5,-5.4 c-3.2,-3.6 -4.9,-8.3 -4.9,-14.1 v-1.5 c0,-5.8 1.6,-10.5 4.9,-14.3 c3.2,-3.7 7.4,-5.6 12.5,-5.6 c5.3,0 9.3,1.6 12,4.9 c2.7,3.3 4.1,7.6 4.1,13.1 v4.8 h-24.3 l-0.1,0.2 c0.1,3.2 0.9,5.8 2.5,7.9 c1.6,2 4,3 7.2,3 c2.4,0 4.5,-0.30000000000000004 6.2,-0.9 c1.8,-0.6000000000000001 3.4,-1.4 4.9,-2.5 l2.9,5.8 c-1.5,1.3 -3.5,2.4 -6,3.3 C197.5999969482422,437.0894664764404 194.79999694824218,437.48946647644044 191.5999969482422,437.48946647644044 zM190.5999969482422,403.78946647644045 c-2.3,0 -4.1,0.8 -5.5,2.5 c-1.4,1.7000000000000002 -2.2,3.8 -2.6,6.5 l0.1,0.2 h15.4 V412.18946647644043 c0,-2.5 -0.6000000000000001,-4.6 -1.8,-6.1 C194.9999969482422,404.48946647644044 193.1999969482422,403.78946647644045 190.5999969482422,403.78946647644045 z" id="svg_11"/><path class="st1" d="M221.1999969482422,416.48946647644044 c0,-5.8 1.6,-10.5 4.8,-14.3 c3.2,-3.7 7.4,-5.6 12.6,-5.6 c5.3,0 9.5,1.9 12.7,5.6 c3.2,3.7 4.8,8.5 4.8,14.3 v1.2 c0,5.8 -1.6,10.6 -4.7,14.3 c-3.2,3.7 -7.4,5.5 -12.6,5.5 c-5.3,0 -9.5,-1.8 -12.7,-5.5 c-3.2,-3.7 -4.8,-8.5 -4.8,-14.3 V416.48946647644044 zM225.5999969482422,417.68946647644043 c0,4.6 1.2,8.4 3.5,11.5 c2.3,3.1 5.5,4.7 9.6,4.7 c4,0 7.2,-1.6 9.5,-4.7 c2.3,-3.1 3.5,-6.9 3.5,-11.5 v-1.2 c0,-4.5 -1.2,-8.3 -3.5,-11.4 c-2.3,-3.1 -5.5,-4.7 -9.6,-4.7 s-7.3,1.6 -9.6,4.7 c-2.3,3.1 -3.5,6.9 -3.5,11.4 V417.68946647644043 z" id="svg_12"/><path class="st1" d="M268.9999969482422,397.3894664764404 l0.4,6.8 c1.3,-2.4 3,-4.3 5.1,-5.6 c2.1,-1.3 4.7,-2 7.6,-2 c4.3,0 7.5,1.3 9.7,3.9 c2.2,2.6 3.3,6.7 3.3,12.2 v24 h-4.4 v-23.9 c0,-4.5 -0.8,-7.7 -2.5,-9.6 c-1.7000000000000002,-1.9 -4.1,-2.8 -7.2,-2.8 c-3.1,0 -5.6,0.8 -7.5,2.3 c-1.9,1.5 -3.3,3.6 -4.1,6.1 v27.9 h-4.4 v-39.3 H268.9999969482422 z" id="svg_13"/><path class="st1" d="M343.3999969482422,418.18946647644043 c0,5.9 -1.3,10.6 -4,14.1 c-2.7,3.5 -6.3,5.3 -11,5.3 c-2.9,0 -5.3,-0.6000000000000001 -7.4,-1.7000000000000002 c-2.1,-1.2 -3.8,-2.8 -5.1,-4.9 l-0.7000000000000001,5.9 h-3.4 v-56.7 h4.4 v23.4 c1.3,-2.2 3,-3.8 5,-5 c2,-1.2 4.4,-1.8 7.2,-1.8 c4.7,0 8.4,1.9 11.1,5.7 c2.7,3.8 4,8.8 4,15.1 V418.18946647644043 zM338.9999969482422,417.3894664764404 c0,-5 -1,-9.1 -2.9,-12.2 c-1.9,-3.1 -4.8,-4.7 -8.6,-4.7 c-3,0 -5.4,0.7000000000000001 -7.3,2.2 c-1.8,1.5 -3.2,3.4 -4.1,5.7 v18 c1,2.3 2.4,4.1 4.3,5.4 c1.9,1.3 4.3,2 7.2,2 c3.8,0 6.7,-1.4 8.6,-4.2 c1.9,-2.8 2.9,-6.6 2.9,-11.3 V417.3894664764404 z" id="svg_14"/><path class="st1" d="M350.6999969482422,416.48946647644044 c0,-5.8 1.6,-10.5 4.8,-14.3 c3.2,-3.7 7.4,-5.6 12.6,-5.6 c5.3,0 9.5,1.9 12.7,5.6 c3.2,3.7 4.8,8.5 4.8,14.3 v1.2 c0,5.8 -1.6,10.6 -4.7,14.3 c-3.2,3.7 -7.4,5.5 -12.6,5.5 c-5.3,0 -9.5,-1.8 -12.7,-5.5 c-3.2,-3.7 -4.8,-8.5 -4.8,-14.3 V416.48946647644044 zM355.09999694824216,417.68946647644043 c0,4.6 1.2,8.4 3.5,11.5 c2.3,3.1 5.5,4.7 9.6,4.7 c4,0 7.2,-1.6 9.5,-4.7 c2.3,-3.1 3.5,-6.9 3.5,-11.5 v-1.2 c0,-4.5 -1.2,-8.3 -3.5,-11.4 c-2.3,-3.1 -5.5,-4.7 -9.6,-4.7 c-4.1,0 -7.3,1.6 -9.6,4.7 c-2.3,3.1 -3.5,6.9 -3.5,11.4 V417.68946647644043 z" id="svg_15"/><path class="st1" d="M419.4999969482422,436.68946647644043 c-0.30000000000000004,-1.4 -0.5,-2.6 -0.6000000000000001,-3.6 c-0.1,-1 -0.2,-2 -0.2,-3.1 c-1.4,2.1 -3.3,3.9 -5.7,5.3 c-2.4,1.4 -5.3,2.1 -8.4,2.1 c-3.9,0 -6.8,-1 -9,-3.1 c-2.1,-2 -3.2,-4.8 -3.2,-8.3 c0,-3.5 1.5,-6.4 4.6,-8.5 c3.1,-2.2 7.1,-3.3 12,-3.3 h9.7 v-4.9 c0,-2.8 -0.9,-5 -2.7,-6.6 c-1.8,-1.6 -4.3,-2.4 -7.5,-2.4 c-3,0 -5.4,0.7000000000000001 -7.2,2.2 c-1.8,1.5 -2.7,3.3 -2.7,5.5 h-4 l-0.1,-0.2 c-0.1,-3 1.1,-5.6 3.8,-7.8 c2.7,-2.2 6.2,-3.4 10.5,-3.4 c4.3,0 7.8,1.1 10.4,3.3 c2.6,2.2 3.9,5.4 3.9,9.5 v19.3 c0,1.4 0.1,2.7 0.2,4 c0.2,1.3 0.4,2.6 0.8,3.9 H419.4999969482422 zM404.9999969482422,433.5894664764404 c3.3,0 6.2,-0.8 8.7,-2.4 c2.4,-1.6 4.1,-3.6 5,-6.1 v-7.5 h-9.7 c-3.5,0 -6.5,0.8 -8.8,2.5 c-2.3,1.7000000000000002 -3.5,3.7 -3.5,6.1 c0,2.2 0.7000000000000001,4 2.2,5.4 C400.3999969482422,432.98946647644044 402.4999969482422,433.5894664764404 404.9999969482422,433.5894664764404 z" id="svg_16"/><path class="st1" d="M452.59999694824216,401.0894664764404 l-3.1,-0.2 c-2.7,0 -5,0.8 -6.7,2.3 c-1.8,1.5 -3,3.7 -3.8,6.3 v27.2 h-4.4 v-39.3 h3.8 l0.5,6.5 v0.4 c1.1,-2.4 2.7,-4.3 4.6,-5.7 c1.9,-1.4 4.2,-2 6.8,-2 c0.5,0 1,0 1.5,0.1 c0.5,0.1 0.9,0.2 1.2,0.30000000000000004 L452.59999694824216,401.0894664764404 z" id="svg_17"/><path class="st1" d="M457.59999694824216,417.3894664764404 c0,-6.3 1.3,-11.3 4,-15.1 c2.7,-3.8 6.4,-5.7 11.1,-5.7 c2.7,0 5,0.6000000000000001 7.1,1.7000000000000002 c2,1.1 3.7,2.8 5,4.8 v-23.2 h4.4 v56.7 h-3.6 l-0.6000000000000001,-5.7 c-1.3,2.1 -3,3.7 -5.1,4.8 c-2.1,1.1 -4.5,1.7000000000000002 -7.3,1.7000000000000002 c-4.7,0 -8.4,-1.8 -11,-5.3 c-2.7,-3.5 -4,-8.2 -4,-14.1 V417.3894664764404 zM461.9999969482422,418.18946647644043 c0,4.8 1,8.5 2.9,11.3 c1.9,2.8 4.8,4.2 8.6,4.2 c2.8,0 5.2,-0.6000000000000001 7,-1.9 c1.9,-1.2 3.3,-3 4.4,-5.2 v-18.7 c-1,-2.2 -2.4,-4 -4.2,-5.5 c-1.8,-1.4 -4.2,-2.1 -7.1,-2.1 c-3.8,0 -6.7,1.6 -8.6,4.7 c-1.9,3.1 -2.9,7.2 -2.9,12.2 V418.18946647644043 z" id="svg_18"/></g></svg>
