<?xml version="1.0" encoding="utf-8"?>
<!-- Generator: Adobe Illustrator 22.0.0, SVG Export Plug-In . SVG Version: 6.00 Build 0)  -->
<svg version="1.1" id="Слой_1" xmlns="http://www.w3.org/2000/svg" xmlns:xlink="http://www.w3.org/1999/xlink" x="0px" y="0px"
	 viewBox="0 0 100 100" style="enable-background:new 0 0 100 100;" xml:space="preserve">
<style type="text/css">
	.st0{fill:#FFFFFF;}
</style>
<path class="st0" d="M4.3,88.3c-0.5,0-1-0.1-1.4-0.3c-1.4-0.6-2.3-1.9-2.3-3.4V14.7c0-2.1,1.7-3.7,3.7-3.7h91.9
	c2.1,0,3.7,1.7,3.7,3.7v56.5c0,2.1-1.7,3.7-3.7,3.7h-77L7,87.2C6.3,88,5.3,88.3,4.3,88.3z M8.1,18.5v57.2l7-7
	c0.7-0.7,1.6-1.1,2.6-1.1h74.8v-49H8.1z"/>
</svg>
