<?xml version="1.0" encoding="utf-8"?>
<!-- Generator: Adobe Illustrator 22.0.0, SVG Export Plug-In . SVG Version: 6.00 Build 0)  -->
<svg version="1.1" id="Слой_1" xmlns="http://www.w3.org/2000/svg" xmlns:xlink="http://www.w3.org/1999/xlink" x="0px" y="0px"
	 viewBox="0 0 100 100" style="enable-background:new 0 0 100 100;" xml:space="preserve">
<style type="text/css">
	.st0{fill:#FFFFFF;}
</style>
<path class="st0" d="M98,84.9L63.5,50.4c-0.3-0.3-0.6-0.4-0.9-0.6l11.8-11.8c6.5,2.1,13.8,0.5,19-4.6c5.1-5.1,6.7-12.5,4.6-19
	l-7.3,7.3c-2.5,2.5-6.5,2.5-8.9,0l-3.2-3.2c-2.5-2.5-2.5-6.5,0-8.9l7.3-7.3c-6.5-2.1-13.8-0.5-19,4.6c-5.1,5.1-6.7,12.5-4.6,19
	L46.4,41.7L22.6,17.9l0.6-0.6l-5.1-7.9L7.9,1.5c-1-0.7-2.3-0.7-3.2,0.2L1.5,4.9c-0.9,0.9-1,2.2-0.2,3.2l7.8,10.2l7.9,5.1l0.6-0.6
	l23.8,23.8L25.7,62.4c-6.5-2.1-13.8-0.5-19,4.6c-7.3,7.3-7.3,19.2,0,26.5c7.3,7.3,19.2,7.3,26.5,0c5.1-5.1,6.7-12.5,4.6-19
	l11.7-11.7c0.2,0.3,0.3,0.6,0.6,0.9l34.5,34.5c1.3,1.3,3.3,1.3,4.6,0l8.7-8.7C99.3,88.2,99.3,86.1,98,84.9z M26.9,87.2
	C23,91,16.9,91,13,87.2c-3.8-3.8-3.8-10,0-13.8c3.8-3.8,10-3.8,13.8,0C30.7,77.2,30.7,83.4,26.9,87.2z"/>
</svg>
