<?xml version="1.0" encoding="utf-8"?>
<!-- Generator: Adobe Illustrator 22.0.0, SVG Export Plug-In . SVG Version: 6.00 Build 0)  -->
<svg version="1.1" id="Слой_1" xmlns="http://www.w3.org/2000/svg" xmlns:xlink="http://www.w3.org/1999/xlink" x="0px" y="0px"
	 viewBox="0 0 1417.3 1417.3" style="enable-background:new 0 0 1417.3 1417.3;" xml:space="preserve">
<style type="text/css">
	.st0{fill:#FFFFFF;}
	.st1{fill:#1B1924;}
</style>
<g>
	<path class="st0" d="M391,664.1c-5-127.3,45.6-245.1-57.5-344.8c-33.5-32.4-30.9-81.2-0.1-119c30-36.9,74.6-47.7,117.5-31.8
		c51.3,19,70.7,63.9,60.7,116.6c-26.1,136.9,40.7,248.4,96.1,381.7c34.6-152.2,64.4-286.5,14.7-423.1
		c-15.9-43.7-10.4-80.3,27.6-108.6c38-28.3,80.1-33.9,119.1-5.5c36.8,26.8,46.7,68.7,30.9,109.6c-52.6,135.3-20,267.1,15.7,401.7
		c55.9-108.1,115.7-215.7,95.6-343.9c-9.1-57.9,1.2-100.9,55.2-124.6c45.8-20,91.8-15.1,120.9,30.4c30.3,47.4,28.5,94.6-16,135.5
		c-47.8,43.8-45,104.5-47.6,160.9c-2.2,47.1,6.8,94.7,10.9,142.8c84.6-44.6,134.8-140,118.2-229.8c-11.5-62.3,12-102.3,69-124
		c51.4-19.6,89.7,1.8,114.5,45.8c30.8,54.7,15.2,105.3-33.7,137.8c-30.4,20.2-37.2,41.9-42.8,74.5c-15.6,91.6-35.9,182.6-57.1,273.1
		c-12.5,53.5-56.7,88.2-89.4,128.3c-45.1,55.3-61.1,104-26.8,175c50.9,105.4,30.2,145.1-85.1,160.6
		c-202.3,27.2-405.9,38.3-607.6-10.2c-87.9-21.1-104-40-65.5-123.6c43.2-93.8,22.4-163.1-44.1-231.8
		c-87.2-90.1-92.4-211.8-116.3-325.1c-10.8-51.1-11.2-99.7-63.7-134.5C63.5,431.2,55.3,381.5,81,335.4c23.4-42,64-61.2,109-51.1
		c51.6,11.6,86.3,49.3,77.9,104.7C250.7,501.4,301.8,580.8,391,664.1z"/>
	<path class="st1" d="M714.8,111.1c18.2,0,36.5,5.9,54.1,18.7c36.8,26.8,46.7,68.7,30.9,109.6c-52.6,135.3-20,267.1,15.7,401.7
		c55.9-108.1,115.7-215.7,95.6-343.9c-9.1-57.9,1.2-100.9,55.2-124.6c16.5-7.2,33.1-11.2,48.8-11.2c27.9,0,53.4,12.5,72,41.6
		c30.3,47.4,28.5,94.6-16,135.5c-47.8,43.8-45,104.5-47.6,160.9c-2.2,47.1,6.8,94.7,10.9,142.8c84.6-44.6,134.8-140,118.2-229.8
		c-11.5-62.3,12-102.3,69-124c13-5,25.2-7.3,36.5-7.3c33.4,0,59.4,20.2,77.9,53.1c30.8,54.7,15.2,105.3-33.7,137.8
		c-30.4,20.2-37.2,41.9-42.8,74.5c-15.6,91.6-35.9,182.6-57.1,273.1c-12.5,53.5-56.7,88.2-89.4,128.3c-45.1,55.3-61.1,104-26.8,175
		c50.9,105.4,30.2,145.1-85.1,160.6c-101.8,13.7-204,23.3-306,23.3c-100.8,0-201.4-9.4-301.6-33.5c-87.9-21.1-104-40-65.5-123.6
		c43.2-93.8,22.4-163.1-44.1-231.8c-87.2-90.1-92.4-211.8-116.3-325.1c-10.8-51.1-11.2-99.7-63.7-134.5
		C63.5,431.2,55.3,381.5,81,335.4c19.3-34.6,50.3-53.8,85.8-53.8c7.6,0,15.3,0.9,23.2,2.6c51.6,11.6,86.3,49.3,77.9,104.7
		c-17.1,112.4,34,191.9,123.1,275.2c-5-127.3,45.6-245.1-57.5-344.8c-33.5-32.4-30.9-81.2-0.1-119c21.1-25.9,49.3-38.9,79-38.9
		c12.7,0,25.7,2.4,38.5,7.1c51.3,19,70.7,63.9,60.7,116.6c-26.1,136.9,40.7,248.4,96.1,381.7c34.6-152.2,64.4-286.5,14.7-423.1
		c-15.9-43.7-10.4-80.3,27.6-108.6C670.6,119.8,692.7,111.1,714.8,111.1 M714.8,72.1c-15.6,0-31.3,3-46.8,8.8
		c-14.1,5.3-28.1,13.1-41.5,23.1c-26,19.4-42.4,43.3-48.8,71.2c-5.6,24.7-3,52.3,7.8,82.1c33.4,91.8,27.6,183.5,9.3,282.6
		c-35.8-83.9-61.5-160.7-45-247.2c14.1-74.3-18.6-135.8-85.4-160.6c-17.1-6.3-34.6-9.6-52.1-9.6c-42.5,0-81.3,18.9-109.3,53.3
		c-10.2,12.5-18.2,26.1-23.7,40.4c-5.8,14.8-8.8,30-9,45.1c-0.1,8.1,0.6,16,2.1,23.8c-18.9-18.9-44.1-32.2-73.9-38.9
		c-10.6-2.4-21.3-3.6-31.7-3.6c-24.8,0-48.9,6.9-69.6,19.8c-20.5,12.8-37.4,31-50.2,54c-36,64.8-21.4,136.4,35.7,174.1
		c29.2,19.3,34.6,42.6,42.4,85.5c1.4,7.9,2.9,16.1,4.7,24.5c4.4,20.6,8.2,42.3,11.9,63.2c8.4,47.5,17.1,96.5,33.2,143.7
		c18.9,55.3,45.5,100.3,81.3,137.3c60.2,62.2,70.5,115,36.7,188.4c-11,24-17.7,42.6-20.9,58.6c-4.5,22.2-2.7,41.1,5.4,57.8
		c8.5,17.5,23.4,31.1,45.4,41.6c14.8,7,33.9,13.1,61.8,19.9c96.6,23.2,198.3,34.5,310.7,34.5c92.2,0,191.1-7.5,311.2-23.6
		c33.1-4.4,59-10.8,79.2-19.6c25.5-11,43.9-26.8,54.7-46.9c10.9-20.2,13.9-44.5,8.9-72.1c-3.9-21.8-13-47.2-27.7-77.7
		c-24.5-50.6-19.1-83,21.9-133.4c7.5-9.2,15.9-18.3,24.7-27.9c28.5-31,60.7-66.2,72.4-116.1c20.3-86.5,41.3-179.7,57.6-275.5
		c4.8-27.8,8.5-37,25.9-48.6c32.6-21.7,54.4-50.4,62.9-83.2c8.9-34.1,3.1-70.9-16.8-106.3c-12.4-21.9-27.5-39.3-44.9-51.6
		c-20.1-14.2-42.7-21.4-67-21.4c-16.3,0-33.3,3.3-50.4,9.9c-27,10.3-48.6,24.4-64.5,42.1c8.6-35.6,1-74-23.2-111.9
		c-12.5-19.6-28.2-34.7-46.5-44.8c-17.7-9.8-37.4-14.8-58.4-14.8c-20.8,0-42.5,4.9-64.5,14.5c-35.4,15.5-59.6,39.4-72,71
		c-10.3,26.3-12.2,56.6-6.2,95.4c12.7,80.8-10.6,153.5-44.6,226.4c-19.7-91-27.8-183.6,8.2-276c11-28.2,12.9-57.3,5.6-84.3
		c-7.6-28.1-24.8-52.7-49.9-70.9C768,80.9,742.1,72.1,714.8,72.1L714.8,72.1z M355.4,568.7c-44.5-57.9-58.5-110.9-49-173.8
		c2.5-16.7,2.2-32.9-0.9-48.2c0.3,0.3,0.5,0.5,0.8,0.8c62,60,56.6,127.4,49.7,212.7C355.8,563,355.6,565.8,355.4,568.7L355.4,568.7z
		 M1065.9,569.7c-2.6-23.7-4.3-46.5-3.3-68.7c0.3-5.7,0.5-11.4,0.7-17c1.7-47.4,3.2-88.4,34.3-116.9c6.2-5.7,11.9-11.6,17-17.7
		c-4.8,21-4.9,44.4-0.2,69.9C1124,472.1,1104.5,528.7,1065.9,569.7L1065.9,569.7z"/>
</g>
</svg>
